<svg xmlns="http://www.w3.org/2000/svg" xmlns:xlink="http://www.w3.org/1999/xlink" width="108" height="108" viewBox="0 0 108 108">
  <defs>
    <filter id="Rectángulo_43776" x="0" y="0" width="108" height="108" filterUnits="userSpaceOnUse">
      <feOffset dy="3" input="SourceAlpha"/>
      <feGaussianBlur stdDeviation="3" result="blur"/>
      <feFlood flood-opacity="0.161"/>
      <feComposite operator="in" in2="blur"/>
      <feComposite in="SourceGraphic"/>
    </filter>
    <clipPath id="clip-path">
      <rect id="Rectángulo_45016" data-name="Rectángulo 45016" width="64" height="64" transform="translate(0 0)" fill="none" stroke="#6836bf" stroke-width="2"/>
    </clipPath>
  </defs>
  <g id="Grupo_137441" data-name="Grupo 137441" transform="translate(-539 -5685)">
    <g transform="matrix(1, 0, 0, 1, 539, 5685)" filter="url(#Rectángulo_43776)">
      <path id="Rectángulo_43776-2" data-name="Rectángulo 43776" d="M10,0H80A10,10,0,0,1,90,10V90a0,0,0,0,1,0,0H10A10,10,0,0,1,0,80V10A10,10,0,0,1,10,0Z" transform="translate(9 6)" fill="#f6f6f6"/>
    </g>
    <g id="Grupo_137439" data-name="Grupo 137439" transform="translate(560.667 5703.667)">
      <g id="Grupo_137438" data-name="Grupo 137438" transform="translate(0.333 0.334)" clip-path="url(#clip-path)">
        <path id="Trazado_195746" data-name="Trazado 195746" d="M26.611,26.5v1.187a5.289,5.289,0,0,1-5.289,5.289H16.789A5.289,5.289,0,0,1,11.5,27.688V26.5" transform="translate(12.945 30.326)" fill="none" stroke="#6836bf" stroke-linecap="round" stroke-linejoin="round" stroke-width="2"/>
        <path id="Trazado_195747" data-name="Trazado 195747" d="M10.456,3.806a20.495,20.495,0,0,0,4.179,30.423,8.859,8.859,0,0,1,3.778,5.7" transform="translate(5.992 4.029)" fill="none" stroke="#6836bf" stroke-linecap="round" stroke-linejoin="round" stroke-width="2"/>
        <path id="Trazado_195748" data-name="Trazado 195748" d="M28.6,47.67V44.378c0-2.383,1.833-5,3.817-6.319a20.5,20.5,0,0,0-22.63-34.2" transform="translate(10.957 0.198)" fill="none" stroke="#6836bf" stroke-linecap="round" stroke-linejoin="round" stroke-width="2"/>
        <path id="Trazado_195749" data-name="Trazado 195749" d="M16.976,22.5H27.77a2.159,2.159,0,0,1,0,4.317H12.659a2.159,2.159,0,0,1,0-4.317" transform="translate(11.786 25.691)" fill="none" stroke="#6836bf" stroke-linecap="round" stroke-linejoin="round" stroke-width="2"/>
        <path id="Trazado_195750" data-name="Trazado 195750" d="M36.563,19.335V15.73L33.256,15A10.982,10.982,0,0,0,31.9,11.739l1.826-2.854L31.179,6.338,28.326,8.166A10.958,10.958,0,0,0,25.059,6.81L24.334,3.5H20.729L20,6.81a10.959,10.959,0,0,0-3.266,1.356L13.884,6.335,11.334,8.885l1.828,2.854A11.039,11.039,0,0,0,11.807,15L8.5,15.73v3.605l3.309.725a10.918,10.918,0,0,0,1.354,3.264L11.334,26.18l2.549,2.547L16.738,26.9A10.958,10.958,0,0,0,20,28.255l.725,3.309h3.605l.725-3.309A11.01,11.01,0,0,0,28.326,26.9l2.854,1.828,2.547-2.549L31.9,23.327a10.9,10.9,0,0,0,1.354-3.266ZM22.529,23.549a6.014,6.014,0,1,1,6.014-6.014" transform="translate(9.468 3.675)" fill="none" stroke="#6836bf" stroke-linecap="round" stroke-linejoin="round" stroke-width="2"/>
        <line id="Línea_502" data-name="Línea 502" y1="0.216" x2="0.216" transform="translate(36.102 25.309)" fill="none" stroke="#6836bf" stroke-linecap="round" stroke-linejoin="round" stroke-width="2"/>
        <line id="Línea_503" data-name="Línea 503" x1="5.071" y1="1.846" transform="translate(2.587 9.423)" fill="none" stroke="#6836bf" stroke-linecap="round" stroke-linejoin="round" stroke-width="2"/>
        <line id="Línea_504" data-name="Línea 504" x1="5.071" y1="1.846" transform="translate(56.343 28.989)" fill="none" stroke="#6836bf" stroke-linecap="round" stroke-linejoin="round" stroke-width="2"/>
        <line id="Línea_505" data-name="Línea 505" y1="1.846" x2="5.071" transform="translate(56.342 9.423)" fill="none" stroke="#6836bf" stroke-linecap="round" stroke-linejoin="round" stroke-width="2"/>
        <line id="Línea_506" data-name="Línea 506" y1="1.846" x2="5.071" transform="translate(2.587 28.989)" fill="none" stroke="#6836bf" stroke-linecap="round" stroke-linejoin="round" stroke-width="2"/>
        <line id="Línea_507" data-name="Línea 507" x2="5.397" transform="translate(57.904 20.129)" fill="none" stroke="#6836bf" stroke-linecap="round" stroke-linejoin="round" stroke-width="2"/>
        <line id="Línea_508" data-name="Línea 508" x2="5.397" transform="translate(0.699 20.129)" fill="none" stroke="#6836bf" stroke-linecap="round" stroke-linejoin="round" stroke-width="2"/>
        <path id="Trazado_195751" data-name="Trazado 195751" d="M29.928,26.66a2.165,2.165,0,0,1-2.159,2.159H12.659a2.159,2.159,0,0,1,0-4.317H27.77A2.165,2.165,0,0,1,29.928,26.66Z" transform="translate(11.786 28.008)" fill="none" stroke="#6836bf" stroke-linecap="round" stroke-linejoin="round" stroke-width="2"/>
      </g>
    </g>
  </g>
</svg>
