<svg xmlns="http://www.w3.org/2000/svg" xmlns:xlink="http://www.w3.org/1999/xlink" width="108" height="108" viewBox="0 0 108 108">
  <defs>
    <filter id="Rectángulo_43777" x="0" y="0" width="108" height="108" filterUnits="userSpaceOnUse">
      <feOffset dy="3" input="SourceAlpha"/>
      <feGaussianBlur stdDeviation="3" result="blur"/>
      <feFlood flood-opacity="0.161"/>
      <feComposite operator="in" in2="blur"/>
      <feComposite in="SourceGraphic"/>
    </filter>
    <clipPath id="clip-path">
      <rect id="Rectángulo_45015" data-name="Rectángulo 45015" width="62.412" height="62.221" fill="none" stroke="#6836bf" stroke-width="2"/>
    </clipPath>
  </defs>
  <g id="Grupo_137442" data-name="Grupo 137442" transform="translate(-960 -5840)">
    <g transform="matrix(1, 0, 0, 1, 960, 5840)" filter="url(#Rectángulo_43777)">
      <path id="Rectángulo_43777-2" data-name="Rectángulo 43777" d="M10,0H80A10,10,0,0,1,90,10V90a0,0,0,0,1,0,0H10A10,10,0,0,1,0,80V10A10,10,0,0,1,10,0Z" transform="translate(9 6)" fill="#f6f6f6"/>
    </g>
    <g id="Grupo_137437" data-name="Grupo 137437" transform="translate(983 5860)">
      <g id="Grupo_137436" data-name="Grupo 137436" transform="translate(0 0)" clip-path="url(#clip-path)">
        <path id="Trazado_195743" data-name="Trazado 195743" d="M21.3,42.108H2.58A2.087,2.087,0,0,1,.5,40.028V2.58A2.087,2.087,0,0,1,2.58.5H58.751a2.087,2.087,0,0,1,2.08,2.08V31.706" transform="translate(0.54 0.54)" fill="none" stroke="#6836bf" stroke-linecap="round" stroke-linejoin="round" stroke-width="2"/>
        <path id="Trazado_195744" data-name="Trazado 195744" d="M3.5,20.062l9.362-8.322L21.183,15.9l10.4-10.4,8.322,5.2,4.161-4.159" transform="translate(3.781 5.943)" fill="none" stroke="#6836bf" stroke-linecap="round" stroke-linejoin="round" stroke-width="2"/>
        <path id="Trazado_195745" data-name="Trazado 195745" d="M45.525,50.917a3.113,3.113,0,0,0,2.08-2.929V30.3a3.121,3.121,0,0,0-6.241,0v-2.08a3.121,3.121,0,1,0-6.241,0v-1.04a3.121,3.121,0,0,0-6.241,0V12.621a3.121,3.121,0,0,0-6.241,0V36.545l-3.624-7.579c-1.188-2.563-3.4-3.539-6.274-1.847l3.239,12.547s3.666,8.573,6.564,10.269" transform="translate(13.767 10.263)" fill="none" stroke="#6836bf" stroke-linecap="round" stroke-linejoin="round" stroke-width="2"/>
        <line id="Línea_490" data-name="Línea 490" y2="4.161" transform="translate(57.211 19.763)" fill="none" stroke="#6836bf" stroke-linecap="round" stroke-linejoin="round" stroke-width="2"/>
        <line id="Línea_491" data-name="Línea 491" x1="16.643" transform="translate(7.281 34.326)" fill="none" stroke="#6836bf" stroke-linecap="round" stroke-linejoin="round" stroke-width="2"/>
        <line id="Línea_492" data-name="Línea 492" y1="2.08" transform="translate(11.442 28.085)" fill="none" stroke="#6836bf" stroke-linecap="round" stroke-linejoin="round" stroke-width="2"/>
        <line id="Línea_493" data-name="Línea 493" y1="4.161" transform="translate(15.603 26.005)" fill="none" stroke="#6836bf" stroke-linecap="round" stroke-linejoin="round" stroke-width="2"/>
        <line id="Línea_494" data-name="Línea 494" y1="5.201" transform="translate(19.764 24.964)" fill="none" stroke="#6836bf" stroke-linecap="round" stroke-linejoin="round" stroke-width="2"/>
        <line id="Línea_495" data-name="Línea 495" y1="4.161" transform="translate(23.925 26.005)" fill="none" stroke="#6836bf" stroke-linecap="round" stroke-linejoin="round" stroke-width="2"/>
        <line id="Línea_496" data-name="Línea 496" y1="5.201" transform="translate(28.085 24.964)" fill="none" stroke="#6836bf" stroke-linecap="round" stroke-linejoin="round" stroke-width="2"/>
        <line id="Línea_497" data-name="Línea 497" y1="8.322" transform="translate(32.246 21.844)" fill="none" stroke="#6836bf" stroke-linecap="round" stroke-linejoin="round" stroke-width="2"/>
        <line id="Línea_498" data-name="Línea 498" y1="9.362" transform="translate(46.809 20.804)" fill="none" stroke="#6836bf" stroke-linecap="round" stroke-linejoin="round" stroke-width="2"/>
        <line id="Línea_499" data-name="Línea 499" y2="14.563" transform="translate(50.97 15.603)" fill="none" stroke="#6836bf" stroke-linecap="round" stroke-linejoin="round" stroke-width="2"/>
        <line id="Línea_500" data-name="Línea 500" y1="0.208" transform="translate(7.281 29.957)" fill="none" stroke="#6836bf" stroke-linecap="round" stroke-linejoin="round" stroke-width="2"/>
        <line id="Línea_501" data-name="Línea 501" y1="0.166" x2="0.166" transform="translate(50.97 9.195)" fill="none" stroke="#6836bf" stroke-linecap="round" stroke-linejoin="round" stroke-width="2"/>
      </g>
    </g>
  </g>
</svg>
