<svg xmlns="http://www.w3.org/2000/svg" xmlns:xlink="http://www.w3.org/1999/xlink" width="108" height="108" viewBox="0 0 108 108">
  <defs>
    <filter id="Rectángulo_43779" x="0" y="0" width="108" height="108" filterUnits="userSpaceOnUse">
      <feOffset dy="3" input="SourceAlpha"/>
      <feGaussianBlur stdDeviation="3" result="blur"/>
      <feFlood flood-opacity="0.161"/>
      <feComposite operator="in" in2="blur"/>
      <feComposite in="SourceGraphic"/>
    </filter>
    <clipPath id="clip-path">
      <rect id="Rectángulo_45012" data-name="Rectángulo 45012" width="64" height="64" fill="#6836bf"/>
    </clipPath>
  </defs>
  <g id="Grupo_137444" data-name="Grupo 137444" transform="translate(-960 -6157)">
    <g transform="matrix(1, 0, 0, 1, 960, 6157)" filter="url(#Rectángulo_43779)">
      <path id="Rectángulo_43779-2" data-name="Rectángulo 43779" d="M10,0H80A10,10,0,0,1,90,10V90a0,0,0,0,1,0,0H10A10,10,0,0,1,0,80V10A10,10,0,0,1,10,0Z" transform="translate(9 6)" fill="#f6f6f6"/>
    </g>
    <g id="Grupo_137431" data-name="Grupo 137431" transform="translate(982 6176)">
      <g id="Grupo_137430" data-name="Grupo 137430" clip-path="url(#clip-path)">
        <path id="Trazado_195715" data-name="Trazado 195715" d="M21,32H43a4,4,0,0,0,4-4V18a4,4,0,0,0-4-4V7a1.09,1.09,0,0,0-.293-.707l-6-6A1.121,1.121,0,0,0,36,0H22a1,1,0,0,0-1,1V9a4,4,0,0,0-4,4V28a4,4,0,0,0,4,4M39.586,6H37V3.414ZM23,2H35V7a1,1,0,0,0,1,1h5v6H33.566l-1.835-3.058A4.018,4.018,0,0,0,28.3,9H23ZM19,13a2,2,0,0,1,2-2h7.3a2.028,2.028,0,0,1,1.714.976L32,15.283c.248.414.452.717,1,.717H43a2,2,0,0,1,2,2V28a2,2,0,0,1-2,2H21a2,2,0,0,1-2-2Z" fill="#6836bf"/>
        <path id="Trazado_195716" data-name="Trazado 195716" d="M39,50H34.618l-1.171-2.342A2.983,2.983,0,0,0,30.764,46H25a3,3,0,0,0-3,3V61a3,3,0,0,0,3,3H39a3,3,0,0,0,3-3V53a3,3,0,0,0-3-3m1,11a1,1,0,0,1-1,1H25a1,1,0,0,1-1-1V49a1,1,0,0,1,1-1h5.764a1,1,0,0,1,.894.553L33.1,51.447A1,1,0,0,0,34,52h5a1,1,0,0,1,1,1Z" fill="#6836bf"/>
        <path id="Trazado_195717" data-name="Trazado 195717" d="M61,50H56.618l-1.171-2.342A2.983,2.983,0,0,0,52.764,46H47a3,3,0,0,0-3,3V61a3,3,0,0,0,3,3H61a3,3,0,0,0,3-3V53a3,3,0,0,0-3-3m1,11a1,1,0,0,1-1,1H47a1,1,0,0,1-1-1V49a1,1,0,0,1,1-1h5.764a1,1,0,0,1,.894.553L55.1,51.447A1,1,0,0,0,56,52h5a1,1,0,0,1,1,1Z" fill="#6836bf"/>
        <path id="Trazado_195718" data-name="Trazado 195718" d="M17,50H12.618l-1.171-2.342A2.983,2.983,0,0,0,8.764,46H3a3,3,0,0,0-3,3V61a3,3,0,0,0,3,3H17a3,3,0,0,0,3-3V53a3,3,0,0,0-3-3m1,11a1,1,0,0,1-1,1H3a1,1,0,0,1-1-1V49a1,1,0,0,1,1-1H8.764a1,1,0,0,1,.894.553L11.1,51.447A1,1,0,0,0,12,52h5a1,1,0,0,1,1,1Z" fill="#6836bf"/>
        <path id="Trazado_195719" data-name="Trazado 195719" d="M10,44a1,1,0,0,0,1-1V41a1,1,0,0,1,1-1H31v3a1,1,0,0,0,2,0V40H52a1,1,0,0,1,1,1v2a1,1,0,0,0,2,0V41a3,3,0,0,0-3-3H33V35a1,1,0,0,0-2,0v3H12a3,3,0,0,0-3,3v2a1,1,0,0,0,1,1" fill="#6836bf"/>
      </g>
    </g>
  </g>
</svg>
