<svg xmlns="http://www.w3.org/2000/svg" xmlns:xlink="http://www.w3.org/1999/xlink" width="403" height="310" viewBox="0 0 403 310">
  <defs>
    <linearGradient id="linear-gradient" x1="-0.092" y1="11.144" x2="-0.09" y2="11.144" gradientUnits="objectBoundingBox">
      <stop offset="0" stop-color="#e8e1f6"/>
      <stop offset="0.848" stop-color="#f4f8ff"/>
      <stop offset="1" stop-color="#f4f8ff"/>
    </linearGradient>
    <clipPath id="clip-path">
      <rect id="Rectángulo_44851" data-name="Rectángulo 44851" width="370.473" height="299.036" fill="none"/>
    </clipPath>
    <clipPath id="clip-path-2">
      <rect id="Rectángulo_44727" data-name="Rectángulo 44727" width="36.21" height="39.799" fill="none"/>
    </clipPath>
    <linearGradient id="linear-gradient-2" x1="-6.037" y1="6.978" x2="-6.023" y2="6.978" gradientUnits="objectBoundingBox">
      <stop offset="0" stop-color="#eef4fe"/>
      <stop offset="0.848" stop-color="#f4f8ff"/>
      <stop offset="1" stop-color="#f4f8ff"/>
    </linearGradient>
    <clipPath id="clip-path-4">
      <rect id="Rectángulo_44733" data-name="Rectángulo 44733" width="36.209" height="39.799" fill="none"/>
    </clipPath>
    <linearGradient id="linear-gradient-3" x1="-8.545" y1="6.96" x2="-8.531" y2="6.96" xlink:href="#linear-gradient-2"/>
    <linearGradient id="linear-gradient-4" x1="-7.291" y1="6.969" x2="-7.277" y2="6.969" xlink:href="#linear-gradient-2"/>
    <clipPath id="clip-path-8">
      <path id="Rectángulo_44752" data-name="Rectángulo 44752" d="M1.959,0H145.3a1.959,1.959,0,0,1,1.959,1.959V75.218a1.96,1.96,0,0,1-1.96,1.96H1.96A1.96,1.96,0,0,1,0,75.218V1.959A1.959,1.959,0,0,1,1.959,0Z" fill="none"/>
    </clipPath>
    <linearGradient id="linear-gradient-5" x1="-0.919" y1="2.685" x2="-0.916" y2="2.685" xlink:href="#linear-gradient-2"/>
    <clipPath id="clip-path-10">
      <rect id="Rectángulo_44765" data-name="Rectángulo 44765" width="105.962" height="62.485" fill="none"/>
    </clipPath>
    <linearGradient id="linear-gradient-6" x1="-0.962" y1="4.467" x2="-0.957" y2="4.467" xlink:href="#linear-gradient-2"/>
    <clipPath id="clip-path-12">
      <path id="Rectángulo_44769" data-name="Rectángulo 44769" d="M4.305,0H107.583a4.3,4.3,0,0,1,4.3,4.3V43.516a4.3,4.3,0,0,1-4.3,4.3H4.306A4.306,4.306,0,0,1,0,43.514V4.305A4.305,4.305,0,0,1,4.305,0Z" fill="none"/>
    </clipPath>
    <linearGradient id="linear-gradient-7" x1="-0.191" y1="5.075" x2="-0.186" y2="5.075" xlink:href="#linear-gradient-2"/>
    <clipPath id="clip-path-14">
      <rect id="Rectángulo_44788" data-name="Rectángulo 44788" width="26.327" height="15.475" fill="none"/>
    </clipPath>
    <clipPath id="clip-path-16">
      <rect id="Rectángulo_44790" data-name="Rectángulo 44790" width="14.208" height="128.955" fill="none"/>
    </clipPath>
    <clipPath id="clip-path-17">
      <rect id="Rectángulo_44791" data-name="Rectángulo 44791" width="14.919" height="128.955" fill="none"/>
    </clipPath>
    <clipPath id="clip-path-18">
      <rect id="Rectángulo_44795" data-name="Rectángulo 44795" width="11.022" height="3.78" fill="none"/>
    </clipPath>
    <clipPath id="clip-path-20">
      <rect id="Rectángulo_44796" data-name="Rectángulo 44796" width="15.143" height="9.181" fill="none"/>
    </clipPath>
    <clipPath id="clip-path-21">
      <rect id="Rectángulo_44797" data-name="Rectángulo 44797" width="18.139" height="80.782" fill="none"/>
    </clipPath>
    <clipPath id="clip-path-22">
      <rect id="Rectángulo_44798" data-name="Rectángulo 44798" width="17.869" height="78.905" fill="none"/>
    </clipPath>
    <clipPath id="clip-path-23">
      <path id="Trazado_195410" data-name="Trazado 195410" d="M569.616,153.485l3.693,8,5.853-5.952-7.572-5.555Z" transform="translate(-569.616 -149.975)" fill="#cab8e9"/>
    </clipPath>
    <clipPath id="clip-path-24">
      <path id="Trazado_195411" data-name="Trazado 195411" d="M588.413,155.921l2.811,5.952,3.656-2.976.555-8.128Z" transform="translate(-588.413 -150.769)" fill="#cab8e9"/>
    </clipPath>
    <clipPath id="clip-path-26">
      <rect id="Rectángulo_44804" data-name="Rectángulo 44804" width="12.496" height="24.505" fill="none"/>
    </clipPath>
    <clipPath id="clip-path-27">
      <rect id="Rectángulo_44802" data-name="Rectángulo 44802" width="1.969" height="6.476" fill="none"/>
    </clipPath>
    <clipPath id="clip-path-28">
      <rect id="Rectángulo_44803" data-name="Rectángulo 44803" width="12.496" height="17.83" fill="none"/>
    </clipPath>
    <clipPath id="clip-path-29">
      <rect id="Rectángulo_44808" data-name="Rectángulo 44808" width="6.428" height="18.55" fill="none"/>
    </clipPath>
    <clipPath id="clip-path-30">
      <rect id="Rectángulo_44805" data-name="Rectángulo 44805" width="5.627" height="7.084" fill="none"/>
    </clipPath>
    <clipPath id="clip-path-31">
      <rect id="Rectángulo_44806" data-name="Rectángulo 44806" width="2.971" height="7.407" fill="none"/>
    </clipPath>
    <clipPath id="clip-path-32">
      <rect id="Rectángulo_44807" data-name="Rectángulo 44807" width="4.165" height="3.702" fill="none"/>
    </clipPath>
    <clipPath id="clip-path-33">
      <rect id="Rectángulo_44810" data-name="Rectángulo 44810" width="8.371" height="24.451" fill="none"/>
    </clipPath>
    <clipPath id="clip-path-35">
      <rect id="Rectángulo_44811" data-name="Rectángulo 44811" width="18.048" height="10.768" fill="none"/>
    </clipPath>
    <clipPath id="clip-path-36">
      <rect id="Rectángulo_44812" data-name="Rectángulo 44812" width="5.719" height="14.13" fill="none"/>
    </clipPath>
    <clipPath id="clip-path-37">
      <path id="Trazado_195428" data-name="Trazado 195428" d="M262.8,433.109a2.418,2.418,0,0,0-2.419,2.419v5.857h71.072v-5.857a2.418,2.418,0,0,0-2.419-2.419Z" transform="translate(-260.386 -433.109)" fill="none"/>
    </clipPath>
    <clipPath id="clip-path-39">
      <rect id="Rectángulo_44817" data-name="Rectángulo 44817" width="70.127" height="66.542" fill="none"/>
    </clipPath>
    <clipPath id="clip-path-40">
      <rect id="Rectángulo_44818" data-name="Rectángulo 44818" width="20.156" height="40.445" fill="none"/>
    </clipPath>
    <clipPath id="clip-path-41">
      <rect id="Rectángulo_44819" data-name="Rectángulo 44819" width="45.013" height="42.465" fill="none"/>
    </clipPath>
    <clipPath id="clip-path-42">
      <rect id="Rectángulo_44820" data-name="Rectángulo 44820" width="17.487" height="25.477" fill="none"/>
    </clipPath>
    <clipPath id="clip-path-43">
      <rect id="Rectángulo_44821" data-name="Rectángulo 44821" width="6.107" height="6.736" fill="none"/>
    </clipPath>
    <clipPath id="clip-path-44">
      <rect id="Rectángulo_44824" data-name="Rectángulo 44824" width="332.616" height="4.498" fill="#f6f4d2"/>
    </clipPath>
    <clipPath id="clip-path-45">
      <path id="Trazado_195450" data-name="Trazado 195450" d="M79.875,374,61.43,383.791H394.123L400.707,374Z" transform="translate(-61.43 -374)" fill="url(#linear-gradient)"/>
    </clipPath>
    <linearGradient id="linear-gradient-8" x1="-1.368" y1="7.514" x2="-1.354" y2="7.514" xlink:href="#linear-gradient-2"/>
    <clipPath id="clip-path-49">
      <rect id="Rectángulo_44833" data-name="Rectángulo 44833" width="42.054" height="28.33" fill="none"/>
    </clipPath>
    <clipPath id="clip-path-50">
      <rect id="Rectángulo_44834" data-name="Rectángulo 44834" width="21.362" height="83.351" fill="none"/>
    </clipPath>
    <clipPath id="clip-path-51">
      <rect id="Rectángulo_44835" data-name="Rectángulo 44835" width="29.222" height="119.677" fill="none"/>
    </clipPath>
    <clipPath id="clip-path-52">
      <path id="Trazado_195464" data-name="Trazado 195464" d="M184.645,176.246a6.713,6.713,0,0,0-5.937,4.013,27.846,27.846,0,0,0-2.6,4.716c-1.677,4.271-.08,8.4-.578,12.719-.508,4.409-2.592,8.056-1.6,12.494a23.383,23.383,0,0,0,19.2,18.095,70.318,70.318,0,0,1-5.2-11.834,9.59,9.59,0,0,0,7,3.356,20.246,20.246,0,0,1-4.178-15.414,9.161,9.161,0,0,0,3.43,3.724,8.973,8.973,0,0,0,2.99,1.167,30.027,30.027,0,0,1-3.692-14.984c.042-2.379.687-4.6.917-6.91.282-2.826-.2-5.782-.1-8.629l-.9-2.527a11.64,11.64,0,0,0-3.632-.525,32.515,32.515,0,0,0-5.113.539" transform="translate(-173.667 -175.707)" fill="#c5a122"/>
    </clipPath>
    <clipPath id="clip-path-54">
      <rect id="Rectángulo_44838" data-name="Rectángulo 44838" width="30.082" height="27.124" fill="none"/>
    </clipPath>
    <clipPath id="clip-path-55">
      <path id="Trazado_195468" data-name="Trazado 195468" d="M113.968,180.775l-.063.038c-12.237,7.175-21.039,17-29.177,28.618L63.314,237.414c-2.561,19.588,19.454,28.4,35.863,22.769l6.608-22.11a13.443,13.443,0,0,1,5.792-7.573l3.641-4.335c2.823-1.751,6.034-2.092,7.724-4.747,3.809-5.986.241-12.792,1.574-21.227l-.582-3.57-3.605-18.594Z" transform="translate(-63.109 -178.027)" fill="none"/>
    </clipPath>
    <clipPath id="clip-path-57">
      <path id="Trazado_195473" data-name="Trazado 195473" d="M171.775,143.833c-4.388,1.576-7.35,6.913-8.45,11.146a59.659,59.659,0,0,0-1.639,9.268c2.083-.174,4.033.913,6.035,1.514a13.489,13.489,0,0,0,10.733-1.365c1.549-.939,2.947-2.211,4.438-3.241a9.5,9.5,0,0,1,3.767-1.7c1.892-.326,3.814.187,5.729.314s4.094-.276,5.167-1.867c1.209-1.794.436-4.329-1.023-5.925-5-5.467-11.252-7.558-18.458-8.387a27.981,27.981,0,0,0-3.178-.239,9.166,9.166,0,0,0-3.122.48" transform="translate(-161.686 -143.353)" fill="#c5a122"/>
    </clipPath>
    <clipPath id="clip-path-59">
      <rect id="Rectángulo_44843" data-name="Rectángulo 44843" width="5.104" height="7.361" fill="none"/>
    </clipPath>
    <clipPath id="clip-path-60">
      <rect id="Rectángulo_44844" data-name="Rectángulo 44844" width="12.546" height="19.784" fill="none"/>
    </clipPath>
    <clipPath id="clip-path-61">
      <rect id="Rectángulo_44845" data-name="Rectángulo 44845" width="28.045" height="73.218" fill="none"/>
    </clipPath>
    <clipPath id="clip-path-62">
      <rect id="Rectángulo_44846" data-name="Rectángulo 44846" width="14.481" height="85.21" fill="none"/>
    </clipPath>
    <clipPath id="clip-path-63">
      <path id="Rectángulo_44849" data-name="Rectángulo 44849" d="M13.538,0h2.374A13.537,13.537,0,0,1,29.449,13.537v2.374A13.538,13.538,0,0,1,15.911,29.449H13.538A13.538,13.538,0,0,1,0,15.911V13.538A13.538,13.538,0,0,1,13.538,0Z" fill="none"/>
    </clipPath>
  </defs>
  <g id="Grupo_137582" data-name="Grupo 137582" transform="translate(-177 -868)">
    <rect id="Rectángulo_43594" data-name="Rectángulo 43594" width="403" height="310" transform="translate(177 868)" fill="#f3f9ff"/>
    <g id="Grupo_137095" data-name="Grupo 137095" transform="translate(193 873)">
      <g id="Grupo_137094" data-name="Grupo 137094" clip-path="url(#clip-path)">
        <g id="Grupo_136938" data-name="Grupo 136938" transform="translate(218.611 21.321)">
          <g id="Grupo_136937" data-name="Grupo 136937" clip-path="url(#clip-path-2)">
            <rect id="Rectángulo_44726" data-name="Rectángulo 44726" width="36.21" height="39.799" transform="translate(0)" fill="url(#linear-gradient-2)"/>
          </g>
        </g>
        <g id="Grupo_136940" data-name="Grupo 136940">
          <g id="Grupo_136939" data-name="Grupo 136939" clip-path="url(#clip-path)">
            <path id="Trazado_195382" data-name="Trazado 195382" d="M458.7,47.206a9.342,9.342,0,1,0,9.342,9.342H458.7Z" transform="translate(-221.16 -23.234)" fill="#cde9af"/>
            <rect id="Rectángulo_44728" data-name="Rectángulo 44728" width="25.564" height="2.464" transform="translate(224.755 44.711)" fill="#d2ebb7"/>
            <rect id="Rectángulo_44729" data-name="Rectángulo 44729" width="25.564" height="2.464" transform="translate(224.755 49.639)" fill="#d2ebb7"/>
            <rect id="Rectángulo_44730" data-name="Rectángulo 44730" width="16.317" height="2.464" transform="translate(224.755 54.567)" fill="#d2ebb7"/>
          </g>
        </g>
        <g id="Grupo_136942" data-name="Grupo 136942" transform="translate(309.392 22.041)">
          <g id="Grupo_136941" data-name="Grupo 136941" clip-path="url(#clip-path-4)">
            <rect id="Rectángulo_44732" data-name="Rectángulo 44732" width="36.209" height="39.799" transform="translate(0 0)" fill="url(#linear-gradient-3)"/>
          </g>
        </g>
        <g id="Grupo_136944" data-name="Grupo 136944">
          <g id="Grupo_136943" data-name="Grupo 136943" clip-path="url(#clip-path)">
            <rect id="Rectángulo_44734" data-name="Rectángulo 44734" width="10.673" height="14.084" transform="translate(315.536 26.237)" fill="#cde9af"/>
            <rect id="Rectángulo_44735" data-name="Rectángulo 44735" width="25.564" height="2.464" transform="translate(315.536 43.667)" fill="#cde9af"/>
            <rect id="Rectángulo_44736" data-name="Rectángulo 44736" width="25.564" height="2.464" transform="translate(315.536 49.477)" fill="#cde9af"/>
            <rect id="Rectángulo_44737" data-name="Rectángulo 44737" width="16.317" height="2.464" transform="translate(315.536 55.287)" fill="#cde9af"/>
            <rect id="Rectángulo_44738" data-name="Rectángulo 44738" width="12.782" height="2.464" transform="translate(328.318 26.237)" fill="#cde9af"/>
            <rect id="Rectángulo_44739" data-name="Rectángulo 44739" width="12.782" height="2.464" transform="translate(328.318 32.047)" fill="#cde9af"/>
            <rect id="Rectángulo_44740" data-name="Rectángulo 44740" width="12.782" height="2.464" transform="translate(328.318 37.857)" fill="#cde9af"/>
          </g>
        </g>
        <g id="Grupo_136946" data-name="Grupo 136946" transform="translate(264.002 21.681)">
          <g id="Grupo_136945" data-name="Grupo 136945" clip-path="url(#clip-path-4)">
            <rect id="Rectángulo_44742" data-name="Rectángulo 44742" width="36.209" height="39.799" transform="translate(0 0)" fill="url(#linear-gradient-4)"/>
          </g>
        </g>
        <g id="Grupo_136948" data-name="Grupo 136948">
          <g id="Grupo_136947" data-name="Grupo 136947" clip-path="url(#clip-path)">
            <rect id="Rectángulo_44744" data-name="Rectángulo 44744" width="32.955" height="2.464" transform="translate(266.232 54.927)" fill="#cde9af"/>
            <rect id="Rectángulo_44745" data-name="Rectángulo 44745" width="4.363" height="8.273" transform="translate(267.567 45.063)" fill="#cde9af"/>
            <rect id="Rectángulo_44746" data-name="Rectángulo 44746" width="4.363" height="15.193" transform="translate(274.003 38.142)" fill="#cde9af"/>
            <rect id="Rectángulo_44747" data-name="Rectángulo 44747" width="4.363" height="24.743" transform="translate(280.439 28.593)" fill="#cde9af"/>
            <rect id="Rectángulo_44748" data-name="Rectángulo 44748" width="4.362" height="18.591" transform="translate(286.875 34.745)" fill="#cde9af"/>
            <rect id="Rectángulo_44749" data-name="Rectángulo 44749" width="4.362" height="24.743" transform="translate(293.311 28.593)" fill="#cde9af"/>
          </g>
        </g>
        <g id="Grupo_136950" data-name="Grupo 136950" transform="translate(135.385 91.808)">
          <g id="Grupo_136949" data-name="Grupo 136949" clip-path="url(#clip-path-8)">
            <rect id="Rectángulo_44751" data-name="Rectángulo 44751" width="147.254" height="77.178" transform="translate(0 0)" fill="url(#linear-gradient-5)"/>
          </g>
        </g>
        <g id="Grupo_136952" data-name="Grupo 136952">
          <g id="Grupo_136951" data-name="Grupo 136951" clip-path="url(#clip-path)">
            <rect id="Rectángulo_44754" data-name="Rectángulo 44754" width="65.784" height="4.343" transform="translate(207.591 105.015)" fill="#d2ebb7"/>
            <rect id="Rectángulo_44755" data-name="Rectángulo 44755" width="65.784" height="4.344" transform="translate(207.591 117.267)" fill="#d2ebb7"/>
            <rect id="Rectángulo_44756" data-name="Rectángulo 44756" width="65.784" height="4.344" transform="translate(207.591 129.519)" fill="#d2ebb7"/>
            <rect id="Rectángulo_44757" data-name="Rectángulo 44757" width="37.693" height="4.344" transform="translate(207.591 141.771)" fill="#d2ebb7"/>
            <rect id="Rectángulo_44758" data-name="Rectángulo 44758" width="8.561" height="4.344" transform="translate(142.756 110.051)" fill="#d1e1fc"/>
            <rect id="Rectángulo_44759" data-name="Rectángulo 44759" width="8.561" height="4.343" transform="translate(142.756 122.048)" fill="#d1e1fc"/>
            <rect id="Rectángulo_44760" data-name="Rectángulo 44760" width="8.561" height="4.343" transform="translate(142.756 134.045)" fill="#d1e1fc"/>
            <rect id="Rectángulo_44761" data-name="Rectángulo 44761" width="8.561" height="4.343" transform="translate(142.756 146.042)" fill="#d1e1fc"/>
            <rect id="Rectángulo_44762" data-name="Rectángulo 44762" width="8.561" height="4.343" transform="translate(142.756 158.038)" fill="#d1e1fc"/>
            <path id="Trazado_195383" data-name="Trazado 195383" d="M354.9,195.495v20.151l.011.01,14.218,14.257a20.083,20.083,0,0,0,5.919-14.208c0-.02,0-.04,0-.059A20.15,20.15,0,0,0,354.9,195.495" transform="translate(-174.674 -96.217)" fill="#d2ebb7"/>
            <path id="Trazado_195384" data-name="Trazado 195384" d="M319.221,201.379a20.083,20.083,0,0,0-5.92,14.229l20.148.049V195.495a20.085,20.085,0,0,0-14.228,5.884" transform="translate(-154.198 -96.217)" fill="#6836bf"/>
            <path id="Trazado_195385" data-name="Trazado 195385" d="M333.457,237.075h-.011l-20.148-.049c0,.013,0,.026,0,.039a20.15,20.15,0,0,0,34.379,14.267Z" transform="translate(-154.196 -116.658)" fill="#d2ebb7"/>
          </g>
        </g>
        <g id="Grupo_136954" data-name="Grupo 136954" transform="translate(101.915 19.9)">
          <g id="Grupo_136953" data-name="Grupo 136953" clip-path="url(#clip-path-10)">
            <rect id="Rectángulo_44764" data-name="Rectángulo 44764" width="105.962" height="62.485" transform="translate(0)" fill="url(#linear-gradient-6)"/>
          </g>
        </g>
        <g id="Grupo_136956" data-name="Grupo 136956">
          <g id="Grupo_136955" data-name="Grupo 136955" clip-path="url(#clip-path)">
            <rect id="Rectángulo_44766" data-name="Rectángulo 44766" width="105.962" height="13.928" transform="translate(101.915 19.9)" fill="#d2ebb7"/>
            <path id="Trazado_195386" data-name="Trazado 195386" d="M207.978,117.673H303.9c-.155,0,.241-22.782-.054-25.074-3.487,1.833-6.144,5.342-9.844,7.172a16.764,16.764,0,0,1-9.9,1.808c-3.121-.525-5.661-2.878-8.866-3.093-4.162-.279-6.98,3.11-9.952,5.438-4.173,3.266-9.466,7.228-14.841,8.047-3.468.529-6.267-1.023-8.422-3.633-2.793-3.381-4.219-6.453-8.954-7.1a14.833,14.833,0,0,0-10.782,2.716c-3.628,2.829-5.794,7.476-9.961,9.427-1.477.692-1.191.97-2.815.838-1.062-.087-.374-1.531-1.315-.707-.691.6-.217,3.239-.217,4.165" transform="translate(-102.283 -45.575)" fill="#d2ebb7"/>
          </g>
        </g>
        <g id="Grupo_136958" data-name="Grupo 136958" transform="translate(21.316 56.359)">
          <g id="Grupo_136957" data-name="Grupo 136957" clip-path="url(#clip-path-12)">
            <rect id="Rectángulo_44768" data-name="Rectángulo 44768" width="111.888" height="47.82" transform="translate(0)" fill="url(#linear-gradient-7)"/>
          </g>
        </g>
        <g id="Grupo_136972" data-name="Grupo 136972">
          <g id="Grupo_136971" data-name="Grupo 136971" clip-path="url(#clip-path)">
            <rect id="Rectángulo_44770" data-name="Rectángulo 44770" width="2.038" height="34.537" transform="translate(27.78 63.211)" fill="#ecf7e0"/>
            <rect id="Rectángulo_44771" data-name="Rectángulo 44771" width="2.038" height="34.537" transform="translate(33.01 63.001)" fill="#ecf7e0"/>
            <rect id="Rectángulo_44772" data-name="Rectángulo 44772" width="2.038" height="34.537" transform="translate(38.239 63.001)" fill="#ecf7e0"/>
            <rect id="Rectángulo_44773" data-name="Rectángulo 44773" width="2.037" height="34.537" transform="translate(43.468 63.001)" fill="#ecf7e0"/>
            <rect id="Rectángulo_44774" data-name="Rectángulo 44774" width="2.038" height="34.537" transform="translate(48.697 63.001)" fill="#ecf7e0"/>
            <rect id="Rectángulo_44775" data-name="Rectángulo 44775" width="2.037" height="34.537" transform="translate(53.927 63.001)" fill="#ecf7e0"/>
            <rect id="Rectángulo_44776" data-name="Rectángulo 44776" width="2.038" height="15.203" transform="translate(27.781 82.335)" fill="#d2ebb7"/>
            <rect id="Rectángulo_44777" data-name="Rectángulo 44777" width="2.038" height="21.518" transform="translate(33.01 76.02)" fill="#d2ebb7"/>
            <rect id="Rectángulo_44778" data-name="Rectángulo 44778" width="2.038" height="24.729" transform="translate(38.239 72.809)" fill="#d2ebb7"/>
            <rect id="Rectángulo_44779" data-name="Rectángulo 44779" width="2.037" height="21.518" transform="translate(43.468 76.02)" fill="#d2ebb7"/>
            <rect id="Rectángulo_44780" data-name="Rectángulo 44780" width="2.038" height="27.834" transform="translate(48.697 69.704)" fill="#d2ebb7"/>
            <rect id="Rectángulo_44781" data-name="Rectángulo 44781" width="2.037" height="31.258" transform="translate(53.927 66.28)" fill="#d2ebb7"/>
            <path id="Trazado_195387" data-name="Trazado 195387" d="M145.031,130.123a5.649,5.649,0,1,1-5.649-5.649,5.649,5.649,0,0,1,5.649,5.649" transform="translate(-65.82 -61.263)" fill="#cde9af"/>
            <rect id="Rectángulo_44782" data-name="Rectángulo 44782" width="45.682" height="1.521" transform="translate(82.253 64.104)" fill="#cde9af"/>
            <rect id="Rectángulo_44783" data-name="Rectángulo 44783" width="45.682" height="1.521" transform="translate(82.253 68.534)" fill="#cde9af"/>
            <rect id="Rectángulo_44784" data-name="Rectángulo 44784" width="19.136" height="1.521" transform="translate(82.253 72.964)" fill="#cde9af"/>
            <rect id="Rectángulo_44787" data-name="Rectángulo 44787" width="19.136" height="1.521" transform="translate(82.253 94.799)" fill="#b3cdfa"/>
            <path id="Trazado_195389" data-name="Trazado 195389" d="M608.166,531.956l3.609,5.357,6.862,3.93a4.263,4.263,0,0,1,2.144,3.7v.109H604.215l-10.105-2.394.367-13.08Z" transform="translate(-292.405 -260.642)" fill="#3a3c4e"/>
            <path id="Trazado_195390" data-name="Trazado 195390" d="M545.78,531.956l-3.609,5.357-6.862,3.93a4.263,4.263,0,0,0-2.143,3.7v.109h16.565l10.105-2.394-.367-13.08Z" transform="translate(-262.41 -260.642)" fill="#3a3c4e"/>
            <g id="Grupo_136961" data-name="Grupo 136961" transform="translate(270.756 268.933)" opacity="0.1">
              <g id="Grupo_136960" data-name="Grupo 136960">
                <g id="Grupo_136959" data-name="Grupo 136959" clip-path="url(#clip-path-14)">
                  <path id="Trazado_195391" data-name="Trazado 195391" d="M540.071,541.242l6.862-3.93,3.609-5.357,8.951-1.557-.023-.824-13.689,2.381-3.609,5.357-6.862,3.93a4.261,4.261,0,0,0-2.143,3.7v.109h4.761v-.109a4.262,4.262,0,0,1,2.144-3.7" transform="translate(-533.166 -529.575)" fill="#9496a4"/>
                </g>
              </g>
            </g>
            <g id="Grupo_136964" data-name="Grupo 136964" transform="translate(302.049 268.933)" opacity="0.1">
              <g id="Grupo_136963" data-name="Grupo 136963">
                <g id="Grupo_136962" data-name="Grupo 136962" clip-path="url(#clip-path-14)">
                  <path id="Trazado_195392" data-name="Trazado 195392" d="M614.209,541.242l-6.862-3.93-3.609-5.357-8.95-1.557.023-.824,13.689,2.381,3.609,5.357,6.862,3.93a4.263,4.263,0,0,1,2.144,3.7v.109h-4.761v-.109a4.262,4.262,0,0,0-2.144-3.7" transform="translate(-594.787 -529.575)" fill="#9496a4"/>
                </g>
              </g>
            </g>
            <path id="Trazado_195393" data-name="Trazado 195393" d="M581.424,224.013H538.863V161.8l17.591-18.466,24.97,4.979Z" transform="translate(-265.213 -70.545)" fill="#fff"/>
            <path id="Trazado_195394" data-name="Trazado 195394" d="M538.863,280.328l4.563,71.942,5.158,57.013h13.689l-2.129-55.946,2.129-49.2,6.757,52.074-2,53.074h13.94l2.367-53.074,1.257-75.881Z" transform="translate(-265.214 -137.97)" fill="#4d5068"/>
            <g id="Grupo_136967" data-name="Grupo 136967" transform="translate(273.782 142.358)" opacity="0.2">
              <g id="Grupo_136966" data-name="Grupo 136966">
                <g id="Grupo_136965" data-name="Grupo 136965" clip-path="url(#clip-path-16)">
                  <path id="Trazado_195395" data-name="Trazado 195395" d="M539.124,282.417l4.431,69.853,5.158,57.013h4.619a121.059,121.059,0,0,1-1.221-15.892c-.1-9.1.834-18.208.184-27.283-1.068-14.908-6.381-29.589-4.8-44.451.792-7.445,3.294-14.6,4.556-21.981,1.107-6.471,1.148-13.468-1.573-19.348h-6.689Z" transform="translate(-539.124 -280.328)" fill="#191c3c"/>
                </g>
              </g>
            </g>
            <g id="Grupo_136970" data-name="Grupo 136970" transform="translate(304.465 142.358)" opacity="0.2">
              <g id="Grupo_136969" data-name="Grupo 136969">
                <g id="Grupo_136968" data-name="Grupo 136968" clip-path="url(#clip-path-17)">
                  <path id="Trazado_195396" data-name="Trazado 195396" d="M613.207,356.209l1.257-75.881H603.17a31.007,31.007,0,0,0-3.626,14.527c.009,9.516,4.373,18.458,5.918,27.847,2.415,14.68-2.127,29.973,1.141,44.487a59.856,59.856,0,0,1,1.585,7.471,35.026,35.026,0,0,1-.1,5.837l-1.775,24.166a12.875,12.875,0,0,0,.255,4.619h4.275Z" transform="translate(-599.544 -280.328)" fill="#191c3c"/>
                </g>
              </g>
            </g>
            <path id="Trazado_195397" data-name="Trazado 195397" d="M647.661,317.164v3.525l1.492,1.454a3.443,3.443,0,0,1,1.041,2.467v5.43l-.233.523A2.414,2.414,0,0,1,647.756,332h-4.851a3.123,3.123,0,0,1-1.979-.706l-.512-.418a2.772,2.772,0,0,1-1.017-2.147v-3.035l-1.3-1.111v-3.456l1.3-.87,1.74-1.087.217-2Z" transform="translate(-314.052 -156.099)" fill="#ffcebd"/>
            <rect id="Rectángulo_44792" data-name="Rectángulo 44792" width="42.657" height="3.78" transform="translate(273.649 142.358)" fill="#3a3c4e"/>
          </g>
        </g>
        <g id="Grupo_136974" data-name="Grupo 136974" transform="translate(287.964 142.358)">
          <g id="Grupo_136973" data-name="Grupo 136973" clip-path="url(#clip-path-18)">
            <rect id="Rectángulo_44794" data-name="Rectángulo 44794" width="11.022" height="3.78" transform="translate(0 0)" fill="#f7ca2e"/>
          </g>
        </g>
        <g id="Grupo_136985" data-name="Grupo 136985">
          <g id="Grupo_136984" data-name="Grupo 136984" clip-path="url(#clip-path)">
            <path id="Trazado_195398" data-name="Trazado 195398" d="M588.646,137.68l-7.572,5.555L573.5,137.68V124.994h15.144Z" transform="translate(-282.262 -61.519)" fill="#ffcebd"/>
            <path id="Trazado_195399" data-name="Trazado 195399" d="M567.964,124.75c-.012-.016-.02-.035-.032-.051l-.135-.077Z" transform="translate(-279.454 -61.336)" fill="#ff5722"/>
            <path id="Trazado_195400" data-name="Trazado 195400" d="M586.471,85.215c-.19-1.521-.781-2.979-.886-4.509a6.314,6.314,0,0,0-.25-1.953c-.591-1.466-2.557-1.941-3.27-3.352a7.147,7.147,0,0,0-.449-.943,2.163,2.163,0,0,0-.968-.7,4.484,4.484,0,0,0-3.173-.079,4.192,4.192,0,0,1-1.2.355c-1,.041-1.757-.928-2.736-1.108-1.043-.191-2.032.543-3.089.633-1.27.107-2.619-.712-3.761-.148-1.068.529-1.82,1.728-2.885,2.366a3.852,3.852,0,0,0-1.912,2.117c-.456,1.045-1.41,1.98-1.415,3.146-.007,1.32.92,2.5.7,3.845-.106.66-.489,1.247-.615,1.9-.27,1.41.66,2.23,1.129,3.415a13.12,13.12,0,0,1,.4,2.982,12.907,12.907,0,0,0,2.239,6.051,18.951,18.951,0,0,0,5.62,2.492,19.4,19.4,0,0,0,4.933.153c2.076-.112,4.365-.317,5.805-1.816A8.32,8.32,0,0,0,582,98.025l1.474-2.891a11.913,11.913,0,0,0,1.481-4.283c.431-2.009,1.795-3.437,1.52-5.636" transform="translate(-275.851 -35.879)" fill="#2e2540"/>
            <path id="Trazado_195401" data-name="Trazado 195401" d="M604.409,105.494s2.233-1.334,2.233-.144a9.53,9.53,0,0,1-.136,3.393,4.017,4.017,0,0,1-2.548,2.717l-1.416-3.633Z" transform="translate(-296.555 -51.607)" fill="#ffcebd"/>
            <g id="Grupo_136977" data-name="Grupo 136977" transform="translate(291.241 63.475)" opacity="0.4">
              <g id="Grupo_136976" data-name="Grupo 136976">
                <g id="Grupo_136975" data-name="Grupo 136975" clip-path="url(#clip-path-20)">
                  <path id="Trazado_195402" data-name="Trazado 195402" d="M573.5,133.466a5.672,5.672,0,0,0,2.7.709h1.665a9.012,9.012,0,0,0,5.369-1.773l1.464-1.086a10.383,10.383,0,0,0,3.947-6.116v-.207H573.5Z" transform="translate(-573.503 -124.994)" fill="#a58877"/>
                </g>
              </g>
            </g>
            <path id="Trazado_195403" data-name="Trazado 195403" d="M564.85,93.078l.388,7.592a13.227,13.227,0,0,0,3.15,7.912,5.709,5.709,0,0,0,4.341,2h1.666a9.014,9.014,0,0,0,5.368-1.773l1.465-1.086a10.392,10.392,0,0,0,4.173-7.564l.507-6.7a10.5,10.5,0,0,0-4.309-9.352,10.956,10.956,0,0,0-7.187-2.182,10.536,10.536,0,0,0-9.561,11.155" transform="translate(-277.997 -40.309)" fill="#ffcebd"/>
            <path id="Trazado_195404" data-name="Trazado 195404" d="M562.72,88.089c.009,2.017-.347,4-.252,6.029a4.7,4.7,0,0,0,1.167,3.333c.337.308.923.5,1.211.145a.886.886,0,0,0,.148-.566,10.825,10.825,0,0,0-.551-2.586c-.461-1.837-.862-3.761.452-5.293a6.836,6.836,0,0,0,1.7-2.5,3.484,3.484,0,0,1,.3-.985c.435-.7,1.472-.658,2.252-.39a3.929,3.929,0,0,0,2.387.43c.5-.16,1-.587,1.493-.387a1.755,1.755,0,0,1,.536.453,2.652,2.652,0,0,0,2.921.529c.352-.163.668-.4,1.033-.535a2.7,2.7,0,0,1,2.552.669,4.74,4.74,0,0,1,1.652,3.673,2.588,2.588,0,0,0,.121,1.255c.416.812,1.714.779,2.181,1.563a1.806,1.806,0,0,1-.167,1.729c-.288.537-.991,1.366-.678,2.015.414.859,1.126.384,1.511-.277a4.7,4.7,0,0,0,.36-2.986,6.766,6.766,0,0,1-.087-2.995,11.477,11.477,0,0,0,.91-2.893,6.2,6.2,0,0,0-3.033-5.194,27.51,27.51,0,0,0-5.757-2.505,8.659,8.659,0,0,0-3.479-.852,7.735,7.735,0,0,0-3.161,1.158l-2.926,1.591a5.421,5.421,0,0,0-1.4.965c-.563.6-.84,1.437-1.462,1.973-.362.312-.82.5-1.164.833a3.5,3.5,0,0,0-.774,2.6" transform="translate(-276.824 -38.862)" fill="#291b41"/>
            <g id="Grupo_136980" data-name="Grupo 136980" transform="translate(273.649 72.788)" opacity="0.3">
              <g id="Grupo_136979" data-name="Grupo 136979">
                <g id="Grupo_136978" data-name="Grupo 136978" clip-path="url(#clip-path-21)">
                  <path id="Trazado_195405" data-name="Trazado 195405" d="M538.863,161.8v62.214h.7l.007.1,6.922-4.838a12.808,12.808,0,0,0,4.684-14.747c-4.523-13.039-7.231-34.69,5.822-59.233l-.085-1.871-.463-.092Z" transform="translate(-538.863 -143.333)" fill="#191c3c"/>
                </g>
              </g>
            </g>
            <path id="Trazado_195406" data-name="Trazado 195406" d="M511.782,143.333l-7.473,5.158-6.988,1.13a5.924,5.924,0,0,0-3.391,1.813l-19.158,20.59a4.677,4.677,0,0,1-5.656.923l-16.767-9.114-4.251,7.539,19.946,15.489a7.048,7.048,0,0,0,7.824.549l11.893-9.482,2.858,13.989-6.8,37.136,14.094-8.923a12.807,12.807,0,0,0,5.351-14.519c-3.923-13.231-5.642-34.983,8.516-58.906Z" transform="translate(-220.542 -70.545)" fill="#4d5068"/>
            <path id="Trazado_195407" data-name="Trazado 195407" d="M425.3,189.6l-3.048-2.327H410.612L404,185.821l-3.042-3.042a2.276,2.276,0,0,1,3.174-.529l1.852,1.322,8.515.7a2.613,2.613,0,0,0,1.419-.284,8.089,8.089,0,0,1,3.711-1l6.55,0,2.054,1.417Z" transform="translate(-197.34 -89.49)" fill="#ffcebd"/>
            <g id="Grupo_136983" data-name="Grupo 136983" transform="translate(301.516 76.085)" opacity="0.3">
              <g id="Grupo_136982" data-name="Grupo 136982">
                <g id="Grupo_136981" data-name="Grupo 136981" clip-path="url(#clip-path-22)">
                  <path id="Trazado_195408" data-name="Trazado 195408" d="M611.4,228.73l.209-12.632h-3.174V151.507l-8.439-1.682c-3.986,26.894-5.6,45.585-6.227,57.343a20.35,20.35,0,0,0,14.242,20.5Z" transform="translate(-593.738 -149.824)" fill="#191c3c"/>
                </g>
              </g>
            </g>
            <path id="Trazado_195409" data-name="Trazado 195409" d="M600.834,136.562l6.348,6.811L625.7,149.92l-10.184,35.492,11.374,38.707L614.1,221.141a20.349,20.349,0,0,1-15.74-19.373c-.284-12.838-.016-33.959,2.477-65.206" transform="translate(-294.45 -67.212)" fill="#4d5068"/>
          </g>
        </g>
        <g id="Grupo_136987" data-name="Grupo 136987" transform="translate(289.267 76.161)">
          <g id="Grupo_136986" data-name="Grupo 136986" clip-path="url(#clip-path-23)">
            <rect id="Rectángulo_44800" data-name="Rectángulo 44800" width="9.546" height="11.507" transform="translate(0 0)" fill="#cab8e9"/>
          </g>
        </g>
        <g id="Grupo_136989" data-name="Grupo 136989" transform="translate(298.812 76.565)">
          <g id="Grupo_136988" data-name="Grupo 136988" clip-path="url(#clip-path-24)">
            <rect id="Rectángulo_44801" data-name="Rectángulo 44801" width="7.022" height="11.104" transform="translate(0 0)" fill="#cab8e9"/>
          </g>
        </g>
        <g id="Grupo_137024" data-name="Grupo 137024">
          <g id="Grupo_137023" data-name="Grupo 137023" clip-path="url(#clip-path)">
            <path id="Trazado_195412" data-name="Trazado 195412" d="M583.788,160.914l-4.773,4.854h7.065Z" transform="translate(-284.975 -79.197)" fill="#6a2554"/>
            <path id="Trazado_195413" data-name="Trazado 195413" d="M573.9,170.471s-9.569,28.212-7.671,46l6.282,6.122,5.886-6.466s-8.049-22.359-.2-45.657Z" transform="translate(-278.56 -83.901)" fill="#6a2554"/>
            <g id="Grupo_136998" data-name="Grupo 136998" transform="translate(313.656 111.006)" opacity="0.55">
              <g id="Grupo_136997" data-name="Grupo 136997">
                <g id="Grupo_136996" data-name="Grupo 136996" clip-path="url(#clip-path-26)">
                  <g id="Grupo_136992" data-name="Grupo 136992" transform="translate(7.429)" opacity="0.3">
                    <g id="Grupo_136991" data-name="Grupo 136991">
                      <g id="Grupo_136990" data-name="Grupo 136990" clip-path="url(#clip-path-27)">
                        <path id="Trazado_195414" data-name="Trazado 195414" d="M634.183,218.591a7.152,7.152,0,0,0-1.726,6.477l1.784-6.215c-.02-.087-.038-.175-.058-.262" transform="translate(-632.272 -218.591)" fill="#272834"/>
                      </g>
                    </g>
                  </g>
                  <g id="Grupo_136995" data-name="Grupo 136995" transform="translate(0 6.675)" opacity="0.3">
                    <g id="Grupo_136994" data-name="Grupo 136994">
                      <g id="Grupo_136993" data-name="Grupo 136993" clip-path="url(#clip-path-28)">
                        <path id="Trazado_195415" data-name="Trazado 195415" d="M626.806,240.172a42.816,42.816,0,0,1,1.219,5.268,8.4,8.4,0,0,0,2.114,4.125l-5.087-17.311.149-.519a30,30,0,0,1-7.558,1.173,19.524,19.524,0,0,1,7.593,2.383l-1.783.416a10.033,10.033,0,0,1,3.353,4.465" transform="translate(-617.643 -231.735)" fill="#272834"/>
                      </g>
                    </g>
                  </g>
                </g>
              </g>
            </g>
            <g id="Grupo_137010" data-name="Grupo 137010" transform="translate(267.908 114.677)" opacity="0.55">
              <g id="Grupo_137009" data-name="Grupo 137009">
                <g id="Grupo_137008" data-name="Grupo 137008" clip-path="url(#clip-path-29)">
                  <g id="Grupo_137001" data-name="Grupo 137001" transform="translate(0.801)" opacity="0.3">
                    <g id="Grupo_137000" data-name="Grupo 137000">
                      <g id="Grupo_136999" data-name="Grupo 136999" clip-path="url(#clip-path-30)">
                        <path id="Trazado_195416" data-name="Trazado 195416" d="M531.612,229.114a6.439,6.439,0,0,1-2.476-3.295l1.369,6.7-.071.387,4.283-.636a2.02,2.02,0,0,0-.977-2.034c-.657-.46-1.445-.7-2.128-1.119" transform="translate(-529.136 -225.819)" fill="#272834"/>
                      </g>
                    </g>
                  </g>
                  <g id="Grupo_137004" data-name="Grupo 137004" transform="translate(0 11.143)" opacity="0.3">
                    <g id="Grupo_137003" data-name="Grupo 137003">
                      <g id="Grupo_137002" data-name="Grupo 137002" clip-path="url(#clip-path-31)">
                        <path id="Trazado_195417" data-name="Trazado 195417" d="M529.26,248.53a.86.86,0,0,1-.345-.769l-1.356,7.408a43.274,43.274,0,0,1,2.972-7.029.9.9,0,0,1-1.27.391" transform="translate(-527.558 -247.761)" fill="#272834"/>
                      </g>
                    </g>
                  </g>
                  <g id="Grupo_137007" data-name="Grupo 137007" transform="translate(1.408 7.158)" opacity="0.3">
                    <g id="Grupo_137006" data-name="Grupo 137006">
                      <g id="Grupo_137005" data-name="Grupo 137005" clip-path="url(#clip-path-32)">
                        <path id="Trazado_195418" data-name="Trazado 195418" d="M530.49,243.347a1.723,1.723,0,0,1,.586-.337L534.5,241.6a14.635,14.635,0,0,0-3.488-1.687l-.677,3.7a.761.761,0,0,1,.16-.27" transform="translate(-530.33 -239.915)" fill="#272834"/>
                      </g>
                    </g>
                  </g>
                </g>
              </g>
            </g>
            <path id="Trazado_195419" data-name="Trazado 195419" d="M598.357,201.768c.01.438.047.869.083,1.3l.113,1c.012.09.026.179.04.269l9.513-50.551-3.472-4.853,4.929-2.8-8.73-9.568c-2.493,31.246-2.761,52.367-2.477,65.206" transform="translate(-294.45 -67.212)" fill="#3a3c4e"/>
            <path id="Trazado_195420" data-name="Trazado 195420" d="M546.955,153.96s-9.39,17.855,3.322,51.652c-3.923-13.231-5.642-34.983,8.516-58.906v-3.372l-7.473,5.158,3.072,1.842Z" transform="translate(-267.553 -70.545)" fill="#3a3c4e"/>
            <g id="Grupo_137016" data-name="Grupo 137016" transform="translate(324.069 132.456)" opacity="0.3">
              <g id="Grupo_137015" data-name="Grupo 137015">
                <g id="Grupo_137014" data-name="Grupo 137014" clip-path="url(#clip-path-33)">
                  <g id="Grupo_137013" data-name="Grupo 137013" opacity="0.3">
                    <g id="Grupo_137012" data-name="Grupo 137012">
                      <g id="Grupo_137011" data-name="Grupo 137011" clip-path="url(#clip-path-33)">
                        <path id="Trazado_195421" data-name="Trazado 195421" d="M639.333,260.828l-1.186,22.5,8.371,1.949Z" transform="translate(-638.148 -260.828)" fill="#191c3c"/>
                      </g>
                    </g>
                  </g>
                </g>
              </g>
            </g>
            <path id="Trazado_195422" data-name="Trazado 195422" d="M643.7,162.867l8.994,42.059-5.423,36.852-8.729.139,1.984-37.652-5.687-20.5Z" transform="translate(-312.45 -80.159)" fill="#4d5068"/>
            <g id="Grupo_137019" data-name="Grupo 137019" transform="translate(240.866 96.447)" opacity="0.2">
              <g id="Grupo_137018" data-name="Grupo 137018">
                <g id="Grupo_137017" data-name="Grupo 137017" clip-path="url(#clip-path-35)">
                  <path id="Trazado_195423" data-name="Trazado 195423" d="M474.611,193.724c-.1.085-.208.159-.3.254.751.247,1.5.511,2.244.8Z" transform="translate(-474.307 -191.793)" fill="#272834"/>
                  <path id="Trazado_195424" data-name="Trazado 195424" d="M492.87,194.954a4.676,4.676,0,0,1-5.656.923l-2.344-1.274c.12.093.254.166.371.266.617.533,1.152,1.156,1.754,1.708a20.325,20.325,0,0,0,4.967,3.043,4.78,4.78,0,0,0-.34-2.072,15.273,15.273,0,0,0,1.728,3.142q.082-2.095.164-4.189.052.92.1,1.84a55.956,55.956,0,0,1,3.937-8.419Z" transform="translate(-479.506 -189.921)" fill="#272834"/>
                </g>
              </g>
            </g>
            <g id="Grupo_137022" data-name="Grupo 137022" transform="translate(326.566 118.669)" opacity="0.2">
              <g id="Grupo_137021" data-name="Grupo 137021">
                <g id="Grupo_137020" data-name="Grupo 137020" clip-path="url(#clip-path-36)">
                  <path id="Trazado_195425" data-name="Trazado 195425" d="M646.592,239.328c.68-.387,2.19-1.035,1.346-1.22-.235-.052-2.341.418-2.57.36.416-.409,2.31-1.69,1.721-2.086l-4.023-2.7.807,2.909.237.159c-.057.02-.117.046-.175.067l.639,2.3v.008c.079.029.158.063.237.093-.085.058-.169.134-.253.2l-.111,2.105c.12.026.235.036.354.062a1.688,1.688,0,0,0-.144.174,3.014,3.014,0,0,0-.247.465l-.292,5.541a.778.778,0,0,0,1.009-.454c.488-1.089.605-2.232,1-3.318.47-1.308,1.6-1.579,2.558-2.43.571-.506-1.379-2.107-2.09-2.233" transform="translate(-643.066 -233.679)" fill="#272834"/>
                </g>
              </g>
            </g>
            <rect id="Rectángulo_44813" data-name="Rectángulo 44813" width="8.568" height="14.366" transform="translate(228.384 265.726) rotate(-45.629)" fill="#ffcebd"/>
            <rect id="Rectángulo_44814" data-name="Rectángulo 44814" width="14.366" height="8.569" transform="translate(181.681 274.529) rotate(-72.94)" fill="#ffcebd"/>
            <path id="Trazado_195426" data-name="Trazado 195426" d="M265.6,447.7l-7.86,56.113,2.766.073,14.66-57.948h-9.4Z" transform="translate(-126.853 -219.478)" fill="#4d5068"/>
            <path id="Trazado_195427" data-name="Trazado 195427" d="M378.4,447.7l7.86,56.113-2.767.073-14.66-57.948h9.4Z" transform="translate(-181.528 -219.478)" fill="#4d5068"/>
          </g>
        </g>
        <g id="Grupo_137026" data-name="Grupo 137026" transform="translate(132.231 219.945)">
          <g id="Grupo_137025" data-name="Grupo 137025" clip-path="url(#clip-path-37)">
            <rect id="Rectángulo_44816" data-name="Rectángulo 44816" width="71.072" height="8.276" transform="translate(0)" fill="#e8e1f6"/>
          </g>
        </g>
        <g id="Grupo_137043" data-name="Grupo 137043">
          <g id="Grupo_137042" data-name="Grupo 137042" clip-path="url(#clip-path)">
            <path id="Trazado_195429" data-name="Trazado 195429" d="M266.185,392.57l53.222,24.5,45.652,41.1,8.537-8.49L334.312,405.85l-39.556-28.125Z" transform="translate(-131.009 -185.906)" fill="#532b98"/>
            <path id="Trazado_195430" data-name="Trazado 195430" d="M259.9,383.327v10.021a15.712,15.712,0,0,0,15.712,15.712h49.61c-8.907,10.763-14.011,45.47-14.011,45.47l11.174,3.052,19.728-50.492a14.239,14.239,0,0,0-13.305-19.31H293.3l.255-4.454Z" transform="translate(-127.915 -188.663)" fill="#553492"/>
            <path id="Trazado_195431" data-name="Trazado 195431" d="M352.047,535.592l-2.74,6.94v5.479h33.6V546.5a2.936,2.936,0,0,0-2.256-2.857l-5.414-1.289-11.323-6.758h-2.009L361,537.6h-5.844l-.548-2.009Z" transform="translate(-171.919 -263.604)" fill="#4d5068"/>
            <path id="Trazado_195432" data-name="Trazado 195432" d="M349.307,554.293v2.922h33.6V555.7a2.924,2.924,0,0,0-.36-1.406Z" transform="translate(-171.919 -272.808)" fill="#fff"/>
            <path id="Trazado_195433" data-name="Trazado 195433" d="M464.391,522.732l3.926,6.345,4.392,3.275,20.858-26.938-1.215-.906a2.936,2.936,0,0,0-3.639.1l-4.27,3.57-12.955,5.038-1.2,1.61,1.064,1.933-3.494,4.685-1.938-.762Z" transform="translate(-228.561 -248.018)" fill="#4d5068"/>
            <path id="Trazado_195434" data-name="Trazado 195434" d="M476.158,530.635l2.343,1.747,20.857-26.938-1.215-.907a2.927,2.927,0,0,0-1.343-.552Z" transform="translate(-234.352 -248.048)" fill="#fff"/>
            <g id="Grupo_137029" data-name="Grupo 137029" transform="translate(131.984 200.842)" opacity="0.5">
              <g id="Grupo_137028" data-name="Grupo 137028">
                <g id="Grupo_137027" data-name="Grupo 137027" clip-path="url(#clip-path-39)">
                  <path id="Trazado_195435" data-name="Trazado 195435" d="M329.556,412.643a10.726,10.726,0,0,0-4.8-5.162c-5.108-3.074-11.309-3.945-17.25-3.461-3.041.248-6.046.831-9.079,1.167a56.423,56.423,0,0,1-17.271-.754c-2.291-.459-5.071-1.7-4.984-4.038l-16.27-4.9v3.844a15.712,15.712,0,0,0,15.712,15.712h49.611c-8.908,10.763-14.011,45.47-14.011,45.47l5.554,1.517q.145-4.779.289-9.558a30.6,30.6,0,0,1,.634-6.333,35.188,35.188,0,0,1,3.69-8.2,117.342,117.342,0,0,0,7.289-16.347c1.031-2.886,1.948-6.08.891-8.957" transform="translate(-259.898 -395.492)" fill="#1c0c38"/>
                </g>
              </g>
            </g>
            <path id="Trazado_195436" data-name="Trazado 195436" d="M277.862,288.628l9.259,1.746a18.359,18.359,0,0,1,13.071,9.935l7.577,15.4-7.585,17.057-.771,7.668s-36.759,16.291-45.784,8.908l-.419-39.2,13.875-20.291Z" transform="translate(-124.623 -142.055)" fill="#fff"/>
            <g id="Grupo_137032" data-name="Grupo 137032" transform="translate(128.594 168.758)" opacity="0.3">
              <g id="Grupo_137031" data-name="Grupo 137031">
                <g id="Grupo_137030" data-name="Grupo 137030" clip-path="url(#clip-path-40)">
                  <path id="Trazado_195437" data-name="Trazado 195437" d="M253.636,370.839c3.571,2.922,11.485,2.135,19.744.119a8.66,8.66,0,0,0-1.7-3.482c-1.368-1.736-3.161-3.088-4.626-4.741a32.941,32.941,0,0,1-4.366-7,9.276,9.276,0,0,1-1.356-4.194,4.765,4.765,0,0,1,4-4.523c.445-.058.994-.117,1.16-.534.211-.528-.412-.992-.94-1.2-3.376-1.356-7.431-2.061-9.4-5.12-1.519-2.359-1.346-5.555-2.927-7.844Z" transform="translate(-253.224 -332.314)" fill="#6c98e3"/>
                </g>
              </g>
            </g>
            <path id="Trazado_195438" data-name="Trazado 195438" d="M276.42,266.275s2.935,13.19,2.317,20.861H289.5s-1.112-13.091,1.113-15.247Z" transform="translate(-136.046 -131.053)" fill="#ffcebd"/>
            <path id="Trazado_195439" data-name="Trazado 195439" d="M292.8,235.954a19.993,19.993,0,0,0-2.119-6.878l-.4.2a9.8,9.8,0,0,0-9.233-2.128,13.106,13.106,0,0,0-7.569,6.016,15.742,15.742,0,0,0-1.174,13.56,15.377,15.377,0,0,0,10.064,9.128c1.808.5,3.916.6,5.388-.566a7.4,7.4,0,0,0,1.457-1.736,14.513,14.513,0,0,0,2.545-5.209,33.2,33.2,0,0,0,.185-4.612c.13-2.608,1.006-5.164.859-7.77" transform="translate(-133.52 -111.617)" fill="#ffcebd"/>
            <path id="Trazado_195440" data-name="Trazado 195440" d="M283.517,220.674a30.3,30.3,0,0,0-3.983-2.907,14.759,14.759,0,0,0-3.627-1.245c-3.159-.726-5.289-.521-7.7,1.827a10.121,10.121,0,0,0-3.105,6.779,6.428,6.428,0,0,1-.167,1.724,6.238,6.238,0,0,1-1.076,1.727,11.543,11.543,0,0,0-1.338,10.638,7.714,7.714,0,0,0,2.929,4.139c1.175.674,4.224,1.186,4.8,2.6a14.584,14.584,0,0,1-1.007-6.824,3.664,3.664,0,0,1,.493-1.718,1.5,1.5,0,0,1,1.542-.7,3.287,3.287,0,0,1,1.072.7,3.63,3.63,0,0,0,2.156.738,1.507,1.507,0,0,0,.871-.21,1.606,1.606,0,0,0,.567-1.057c.385-1.973-.277-4.222-.916-6.077-.538-1.565-.641-3.612,1.442-3.479,1.872.118,3.787,1.265,5.786,1.375a16.717,16.717,0,0,0,11.407-3.584,23.735,23.735,0,0,1-10.145-4.452" transform="translate(-128.851 -106.384)" fill="#4d5068"/>
            <path id="Trazado_195441" data-name="Trazado 195441" d="M295.6,297.418l3.126-10.251,1.847.349,1.955,16.46Z" transform="translate(-145.486 -141.335)" fill="#4c771e"/>
            <path id="Trazado_195442" data-name="Trazado 195442" d="M249.179,288.628l-9.846,1.863a14.62,14.62,0,0,0-10.758,8.7l-11,26.159a5.622,5.622,0,0,0,5.182,7.8l39.334-1.965,1.815-5.569-4.33,1.472L234.958,325a2.6,2.6,0,0,1-1.883-4.108l16.482-22.755s2.956-8.131-.378-9.509" transform="translate(-106.866 -142.055)" fill="#ffcebd"/>
            <g id="Grupo_137035" data-name="Grupo 137035" transform="translate(110.266 148.629)" opacity="0.4">
              <g id="Grupo_137034" data-name="Grupo 137034">
                <g id="Grupo_137033" data-name="Grupo 137033" clip-path="url(#clip-path-41)">
                  <path id="Trazado_195443" data-name="Trazado 195443" d="M262.144,333.019a7.663,7.663,0,0,0-.766-.51c-2.691-1.542-5.926-1.73-9.028-1.784a148.879,148.879,0,0,0-18.451.828c-2.279.244-4.632.536-6.827-.126s-4.2-2.573-4.168-4.865c.025-1.8,1.239-3.33,2.068-4.93,1.926-3.712,1.912-8.275,4.223-11.76a25.989,25.989,0,0,1,2.494-2.969,27.794,27.794,0,0,0,5.745-9,17.124,17.124,0,0,0,1.029-5.227,14.618,14.618,0,0,0-9.89,8.506l-11,26.159a5.622,5.622,0,0,0,5.183,7.8l39.334-1.965Z" transform="translate(-217.132 -292.677)" fill="#a58877"/>
                </g>
              </g>
            </g>
            <path id="Trazado_195444" data-name="Trazado 195444" d="M252.908,288.628l-9.847,1.863a14.621,14.621,0,0,0-10.759,8.7l-7.6,16.144c5.939-.619,12.1,5.558,16.331,2.227l12.247-19.424s2.957-8.131-.377-9.509" transform="translate(-110.594 -142.055)" fill="#fff"/>
            <path id="Trazado_195445" data-name="Trazado 195445" d="M277.422,287.368l7.888,10.149-5.567,7.3-5.051-16.809Z" transform="translate(-135.195 -141.435)" fill="#4c771e"/>
            <g id="Grupo_137038" data-name="Grupo 137038" transform="translate(114.112 148.629)" opacity="0.3">
              <g id="Grupo_137037" data-name="Grupo 137037">
                <g id="Grupo_137036" data-name="Grupo 137036" clip-path="url(#clip-path-42)">
                  <path id="Trazado_195446" data-name="Trazado 195446" d="M230.014,318.153c.809-2.846,1.286-5.829,2.911-8.281a25.947,25.947,0,0,1,2.494-2.969,27.783,27.783,0,0,0,5.745-9,17.118,17.118,0,0,0,1.028-5.227,14.621,14.621,0,0,0-9.89,8.506l-7.6,16.144a12.658,12.658,0,0,1,5.308.826" transform="translate(-224.706 -292.676)" fill="#6c98e3"/>
                </g>
              </g>
            </g>
            <g id="Grupo_137041" data-name="Grupo 137041" transform="translate(147.471 141.893)" opacity="0.4">
              <g id="Grupo_137040" data-name="Grupo 137040">
                <g id="Grupo_137039" data-name="Grupo 137039" clip-path="url(#clip-path-43)">
                  <path id="Trazado_195447" data-name="Trazado 195447" d="M296.5,281.6s-2.492,2.114-6.107-2.185l4.915,6.736.853-2.8Z" transform="translate(-290.395 -279.412)" fill="#a58877"/>
                </g>
              </g>
            </g>
            <path id="Trazado_195448" data-name="Trazado 195448" d="M113.584,382.1,96.843,476.836h2.9L123.5,381.42Z" transform="translate(-47.664 -187.724)" fill="#4d5068"/>
            <path id="Trazado_195449" data-name="Trazado 195449" d="M638.109,382.1l16.741,94.739h-2.9L628.191,381.42Z" transform="translate(-309.179 -187.724)" fill="#4d5068"/>
          </g>
        </g>
        <g id="Grupo_137045" data-name="Grupo 137045" transform="translate(31.196 199.718)">
          <g id="Grupo_137044" data-name="Grupo 137044" clip-path="url(#clip-path-44)">
            <rect id="Rectángulo_44823" data-name="Rectángulo 44823" width="332.616" height="4.498" transform="translate(0 0)" fill="#f6f4d2"/>
          </g>
        </g>
        <g id="Grupo_137047" data-name="Grupo 137047" transform="translate(31.196 189.927)">
          <g id="Grupo_137046" data-name="Grupo 137046" clip-path="url(#clip-path-45)">
            <path id="Trazado_195484" data-name="Trazado 195484" d="M0,0H339.277V9.791H0Z" fill="#fef7dc"/>
          </g>
        </g>
        <g id="Grupo_137049" data-name="Grupo 137049">
          <g id="Grupo_137048" data-name="Grupo 137048" clip-path="url(#clip-path)">
            <path id="Trazado_195451" data-name="Trazado 195451" d="M716.409,388.288l6.661-9.393V374l-6.584,9.79Z" transform="translate(-352.597 -184.073)" fill="#f7f7f7"/>
            <rect id="Rectángulo_44826" data-name="Rectángulo 44826" width="22.867" height="2.999" transform="translate(121.913 195.899)" fill="#c5a122"/>
            <path id="Trazado_195452" data-name="Trazado 195452" d="M316.421,362.721H269.35L280.445,334a1.79,1.79,0,0,1,1.67-1.145h43.233a1.79,1.79,0,0,1,1.67,2.435Z" transform="translate(-132.567 -163.823)" fill="#f7ca2e"/>
            <path id="Trazado_195453" data-name="Trazado 195453" d="M327.144,359.417a2.934,2.934,0,1,1-2.934-2.934,2.934,2.934,0,0,1,2.934,2.934" transform="translate(-158.123 -175.451)" fill="#c5a122"/>
          </g>
        </g>
        <g id="Grupo_137051" data-name="Grupo 137051" transform="translate(49.537)">
          <g id="Grupo_137050" data-name="Grupo 137050" clip-path="url(#clip-path-2)">
            <rect id="Rectángulo_44828" data-name="Rectángulo 44828" width="36.21" height="39.799" fill="url(#linear-gradient-8)"/>
          </g>
        </g>
        <g id="Grupo_137062" data-name="Grupo 137062">
          <g id="Grupo_137061" data-name="Grupo 137061" clip-path="url(#clip-path)">
            <path id="Trazado_195454" data-name="Trazado 195454" d="M125.762,5.222a9.342,9.342,0,1,0,9.342,9.342h-9.342Z" transform="translate(-57.298 -2.57)" fill="#d2ebb7"/>
            <rect id="Rectángulo_44830" data-name="Rectángulo 44830" width="25.564" height="2.464" transform="translate(55.681 23.39)" fill="#cde9af"/>
            <rect id="Rectángulo_44831" data-name="Rectángulo 44831" width="25.564" height="2.464" transform="translate(55.681 28.318)" fill="#cde9af"/>
            <rect id="Rectángulo_44832" data-name="Rectángulo 44832" width="16.317" height="2.464" transform="translate(55.681 33.246)" fill="#cde9af"/>
            <path id="Trazado_195455" data-name="Trazado 195455" d="M176.467,219.931l15.186,21.382a8.581,8.581,0,0,0,.815.919l11.4,9.579,5.352-1.911a4.373,4.373,0,0,1,3.384.186l7.085,5.017-2.161.5-2.906,1.031.438.917,2.656-.152a2.223,2.223,0,0,1,2.278,1.655l.114.434-5.593.728c-2.242,1.088-4.8-.48-6.948-.77l-4.04-.294-1.016-.342-13.791-8.918a15.447,15.447,0,0,1-3.884-3.121l-11.659-11.442Z" transform="translate(-85.231 -108.244)" fill="#ffcebd"/>
            <g id="Grupo_137054" data-name="Grupo 137054" transform="translate(88.1 124.024)" opacity="0.4">
              <g id="Grupo_137053" data-name="Grupo 137053">
                <g id="Grupo_137052" data-name="Grupo 137052" clip-path="url(#clip-path-49)">
                  <path id="Trazado_195456" data-name="Trazado 195456" d="M214.665,272.175l.873-.114a8.229,8.229,0,0,0-1.955-.614l-5.478-1.135a19.7,19.7,0,0,1-5.457-1.7,25.789,25.789,0,0,1-4.959-4.082c-6.1-5.644-13.932-9.546-18.686-16.362-.909-1.3-1.691-2.7-2.669-3.947l-2.851,3.219,11.5,11.287a15.43,15.43,0,0,0,3.885,3.121l13.791,8.918,1.016.342,4.04.295c2.148.29,4.707,1.858,6.948.769" transform="translate(-173.484 -244.225)" fill="#a58877"/>
                </g>
              </g>
            </g>
            <path id="Trazado_195457" data-name="Trazado 195457" d="M20.464,526.682l1.156,16.471,7.407,2.116-1.2-14.819,6.035-8.664-7.5-4.188-2.4,4.269-.882.091Z" transform="translate(-10.072 -254.748)" fill="#ffcebd"/>
            <path id="Trazado_195458" data-name="Trazado 195458" d="M13.017,526.184a14.245,14.245,0,0,0-5.537,2.18,3.309,3.309,0,0,0-1.4,2.24l-.264,1.776A11.249,11.249,0,0,1,4.7,535.852L0,545.023l1.2.668L6.63,536.6a1.4,1.4,0,0,1,1.245,1.181l1.556,10.339a4.885,4.885,0,0,0,2.449,3.539l3.959,2.211a4.812,4.812,0,0,0,1.113.449l6.112,1.615a.768.768,0,0,0,.866-.368,1.145,1.145,0,0,0-.333-1.49l-2.326-1.667-2.182-3.5-2.214-.309a3.847,3.847,0,0,1-3.315-3.7Z" transform="translate(0 -258.973)" fill="#6b2f52"/>
            <path id="Trazado_195459" data-name="Trazado 195459" d="M74.856,358.635l-10.6,26.039-24.61,37.609-9.533-5.41L52.1,371.944l2.4-57.877Z" transform="translate(-14.821 -154.576)" fill="#4d5068"/>
            <path id="Trazado_195460" data-name="Trazado 195460" d="M99.393,544.133l9.04,13.817,7.5-1.764-8.269-12.355,1.045-10.507h-8.589l-.01,4.9-.725.509Z" transform="translate(-48.913 -262.487)" fill="#ffcebd"/>
            <g id="Grupo_137057" data-name="Grupo 137057" transform="translate(38.673 159.492)" opacity="0.5">
              <g id="Grupo_137056" data-name="Grupo 137056">
                <g id="Grupo_137055" data-name="Grupo 137055" clip-path="url(#clip-path-50)">
                  <path id="Trazado_195461" data-name="Trazado 195461" d="M76.154,338.412c.117.331.238.655.35.994l4.7,36.693-2.245,21.32,7.957-12.745,10.6-26.039L77.163,314.068Z" transform="translate(-76.154 -314.068)" fill="#3a3c4e"/>
                </g>
              </g>
            </g>
            <path id="Trazado_195462" data-name="Trazado 195462" d="M68.274,294.97l-3.5,8.873c0,10.332,5.17,16.362,8.438,26.164l8.728,34.859.423,51.147H92.823L98.9,364.119l-.77-56.5Z" transform="translate(-31.878 -145.176)" fill="#4d5068"/>
            <g id="Grupo_137060" data-name="Grupo 137060" transform="translate(37.796 151.16)" opacity="0.5">
              <g id="Grupo_137059" data-name="Grupo 137059">
                <g id="Grupo_137058" data-name="Grupo 137058" clip-path="url(#clip-path-51)">
                  <path id="Trazado_195463" data-name="Trazado 195463" d="M74.427,299.294a51.578,51.578,0,0,1,18.464,40.4c-.119,4.965-.965,9.956-.256,14.872.5,3.468,1.76,6.775,2.646,10.166,2.124,8.13,2.081,16.648,2.023,25.051-.057,8.375-.121,16.811-1.779,25.019-.169.835-.352,1.681-.528,2.532h2.578l6.073-51.893-.77-56.5L76.251,297.661Z" transform="translate(-74.427 -297.66)" fill="#3a3c4e"/>
                </g>
              </g>
            </g>
          </g>
        </g>
        <g id="Grupo_137064" data-name="Grupo 137064" transform="translate(88.193 89.229)">
          <g id="Grupo_137063" data-name="Grupo 137063" clip-path="url(#clip-path-52)">
            <rect id="Rectángulo_44837" data-name="Rectángulo 44837" width="24.225" height="52.576" transform="translate(-0.725)" fill="#c5a122"/>
          </g>
        </g>
        <g id="Grupo_137069" data-name="Grupo 137069">
          <g id="Grupo_137068" data-name="Grupo 137068" clip-path="url(#clip-path)">
            <path id="Trazado_195465" data-name="Trazado 195465" d="M202.54,250.278l-10.615-8.99a8.751,8.751,0,0,1-.84-.947l-15.956-21.66-3.4,15.881,12.023,11.8a15.919,15.919,0,0,0,4.006,3.219l14.221,9.2Z" transform="translate(-84.521 -107.629)" fill="#4d5068"/>
            <g id="Grupo_137067" data-name="Grupo 137067" transform="translate(87.545 124.024)" opacity="0.5">
              <g id="Grupo_137066" data-name="Grupo 137066">
                <g id="Grupo_137065" data-name="Grupo 137065" clip-path="url(#clip-path-54)">
                  <path id="Trazado_195466" data-name="Trazado 195466" d="M202.306,271.348l.168-2.551c-.121-.06-.244-.116-.364-.181a25.769,25.769,0,0,1-4.959-4.082c-6.1-5.644-13.932-9.546-18.686-16.362-.909-1.3-1.69-2.7-2.668-3.947l-3.406,3.238,11.687,11.47a15.918,15.918,0,0,0,4.006,3.219Z" transform="translate(-172.392 -244.224)" fill="#3a3c4e"/>
                </g>
              </g>
            </g>
            <path id="Trazado_195467" data-name="Trazado 195467" d="M188.687,187.2s-8.158,3.984-9.3,7.4l-3.605-12.9,11.384-7.779Z" transform="translate(-86.517 -85.598)" fill="#ffcebd"/>
          </g>
        </g>
        <g id="Grupo_137071" data-name="Grupo 137071" transform="translate(32.048 90.407)">
          <g id="Grupo_137070" data-name="Grupo 137070" clip-path="url(#clip-path-55)">
            <rect id="Rectángulo_44840" data-name="Rectángulo 44840" width="65.999" height="87.785" transform="translate(-2.357 0)" fill="#e4bbd7"/>
          </g>
        </g>
        <g id="Grupo_137073" data-name="Grupo 137073">
          <g id="Grupo_137072" data-name="Grupo 137072" clip-path="url(#clip-path)">
            <path id="Trazado_195469" data-name="Trazado 195469" d="M112.493,180.775H111.17c-12.237,7.175-21.524,16.941-29.663,28.559L60.244,238.78c-2.561,19.588,32.746,41.655,49.154,36.026l-2.815-32.39c.94-3.147.728-10.184,3.518-11.916,0,0,10.4-17.2,9.241-24.281l3.116-9.6-4.21-18.594Z" transform="translate(-29.585 -87.62)" fill="#4d5068"/>
            <path id="Trazado_195470" data-name="Trazado 195470" d="M112.493,180.775H111.17c-12.237,7.175-21.524,16.941-29.663,28.559L60.244,238.78c-2.561,19.588,32.746,41.655,49.154,36.026l-2.815-32.39c.94-3.147.728-10.184,3.518-11.916,0,0,10.4-17.2,9.241-24.281l3.116-9.6-4.21-18.594Z" transform="translate(-29.585 -87.62)" fill="#4d5068"/>
            <path id="Trazado_195471" data-name="Trazado 195471" d="M112.493,180.775H111.17c-12.237,7.175-21.524,16.941-29.663,28.559L60.244,238.78c-2.561,19.588,32.746,41.655,49.154,36.026l-2.815-32.39c.94-3.147.728-10.184,3.518-11.916,0,0,10.4-17.2,9.241-24.281l3.116-9.6-4.21-18.594Z" transform="translate(-29.585 -87.62)" fill="#4d5068"/>
            <path id="Trazado_195472" data-name="Trazado 195472" d="M192.447,164.555c3.281-2.648,11.65-4.176,14.739-.236,1.764,2.25,1.177,5.469-.151,8.532a9.187,9.187,0,0,0-.563,5.329c.081.352-2.526.154-2.715.443-.612.938-.59.83-1.074,1.494a8.589,8.589,0,0,1-3.972,3.435c-2.225.719-4.728-.367-6.284-2.112a15.353,15.353,0,0,1-2.965-6.288,14.675,14.675,0,0,1-.561-2.83,9.378,9.378,0,0,1,3.546-7.767" transform="translate(-92.962 -79.694)" fill="#ffcebd"/>
          </g>
        </g>
        <g id="Grupo_137075" data-name="Grupo 137075" transform="translate(82.109 72.799)">
          <g id="Grupo_137074" data-name="Grupo 137074" clip-path="url(#clip-path-57)">
            <rect id="Rectángulo_44842" data-name="Rectángulo 44842" width="37.078" height="23.478" fill="#c5a122"/>
          </g>
        </g>
        <g id="Grupo_137089" data-name="Grupo 137089">
          <g id="Grupo_137088" data-name="Grupo 137088" clip-path="url(#clip-path)">
            <g id="Grupo_137078" data-name="Grupo 137078" transform="translate(95.238 98.661)" opacity="0.4">
              <g id="Grupo_137077" data-name="Grupo 137077">
                <g id="Grupo_137076" data-name="Grupo 137076" clip-path="url(#clip-path-59)">
                  <path id="Trazado_195474" data-name="Trazado 195474" d="M192.645,198.194s-2.936-2.231-2.766-3.914l-2.338,7.361s4.128-3.224,5.1-3.447" transform="translate(-187.541 -194.28)" fill="#a58877"/>
                </g>
              </g>
            </g>
            <path id="Trazado_195475" data-name="Trazado 195475" d="M95.391,543.967a14.253,14.253,0,0,0-3.772,4.6,3.308,3.308,0,0,0-.133,2.64l.635,1.679a11.242,11.242,0,0,1,.721,3.575l.369,10.3h1.371l.311-10.588a1.4,1.4,0,0,1,1.662.424l6.4,8.269a4.885,4.885,0,0,0,3.864,1.9h4.534a4.787,4.787,0,0,0,1.192-.151l6.123-1.57a.768.768,0,0,0,.577-.744,1.146,1.146,0,0,0-1.017-1.139l-2.844-.321-3.612-1.993-2.083.811a3.847,3.847,0,0,1-4.7-1.613Z" transform="translate(-44.922 -267.726)" fill="#6a2554"/>
            <path id="Trazado_195476" data-name="Trazado 195476" d="M176.569,188.021s.1.577-2.236-.455l.737,17.208,5.247-3.982Z" transform="translate(-85.802 -92.315)" fill="#3a3c4e"/>
            <g id="Grupo_137081" data-name="Grupo 137081" transform="translate(53.762 146.918)" opacity="0.5">
              <g id="Grupo_137080" data-name="Grupo 137080">
                <g id="Grupo_137079" data-name="Grupo 137079" clip-path="url(#clip-path-60)">
                  <path id="Trazado_195477" data-name="Trazado 195477" d="M105.866,289.307l.026.792,11.153,5-5.985,12.587-4.57.784.02.62,5.63-.965,6.273-13.193Z" transform="translate(-105.866 -289.307)" fill="#3a3c4e"/>
                </g>
              </g>
            </g>
            <g id="Grupo_137084" data-name="Grupo 137084" transform="translate(56.434 114.861)" opacity="0.5">
              <g id="Grupo_137083" data-name="Grupo 137083">
                <g id="Grupo_137082" data-name="Grupo 137082" clip-path="url(#clip-path-61)">
                  <path id="Trazado_195478" data-name="Trazado 195478" d="M127.993,226.181c-3.876,7.1-3.78,15.7-2.494,23.687.4,2.511.759,5.508-1.138,7.2-.96.857-2.436,1.3-2.817,2.532-.362,1.166.512,2.352,1.468,3.111a8.161,8.161,0,0,1,2.631,2.493c.9,1.872-.394,3.99-.838,6.018-.489,2.229.08,4.553-.109,6.827-.253,3.041-1.833,5.789-3.376,8.421-1.069,1.825-2.254,3.758-4.181,4.629-1.457.659-3.206.636-4.512,1.56a4.155,4.155,0,0,0-1.5,2.111c8.456,4.067,17.24,5.838,23.378,3.732l-2.815-32.39c.94-3.147.728-10.184,3.519-11.916a66.22,66.22,0,0,1,3.963-13.425c-5.039-5.371-8.359-7.857-11.181-14.593" transform="translate(-111.129 -226.181)" fill="#3a3c4e"/>
                </g>
              </g>
            </g>
            <path id="Trazado_195479" data-name="Trazado 195479" d="M178.635,356.725l5.123,12.042-3.464.02-3.546-6.687Z" transform="translate(-86.991 -175.57)" fill="#ffcebd"/>
            <path id="Trazado_195480" data-name="Trazado 195480" d="M142.907,219.412v32.742a5.319,5.319,0,0,0,.1,1.026l10.972,30.434a6.662,6.662,0,0,1-.433,3.955l-3.149,7.2-.7,2a1.458,1.458,0,0,0,1.492,1.936l8.493-.677a2.078,2.078,0,0,0,1.876-1.685l1.554-8.215L151.79,251.8l6.4-31.231a7.684,7.684,0,1,0-15.28-1.161" transform="translate(-70.335 -104.207)" fill="#ffcebd"/>
            <g id="Grupo_137087" data-name="Grupo 137087" transform="translate(72.572 108.979)" opacity="0.4">
              <g id="Grupo_137086" data-name="Grupo 137086">
                <g id="Grupo_137085" data-name="Grupo 137085" clip-path="url(#clip-path-62)">
                  <path id="Trazado_195481" data-name="Trazado 195481" d="M155.3,277.876q-4.766-11.607-8.584-23.573a9.67,9.67,0,0,1-.566-2.574,16.9,16.9,0,0,1,.726-3.952c.734-3.547-.2-7.2-.46-10.81-.332-4.522.384-9.048.539-13.579a28.874,28.874,0,0,0-.866-8.789,7.675,7.675,0,0,0-3.183,6.226v32.742a5.318,5.318,0,0,0,.1,1.026l10.972,30.434a6.662,6.662,0,0,1-.433,3.955l-3.149,7.2-.7,2a1.454,1.454,0,0,0,.474,1.628c.058-.021.116-.04.173-.067a4.008,4.008,0,0,0,1.32-1.207c3.233-4.035,6.178-8.864,5.669-14.009a24.028,24.028,0,0,0-2.031-6.65" transform="translate(-142.907 -214.599)" fill="#a58877"/>
                </g>
              </g>
            </g>
            <path id="Trazado_195482" data-name="Trazado 195482" d="M160.952,281.979l-9.287-31.719,6.274-31.436c.755-4.939-3.425-9.919-8.416-9.692a7.918,7.918,0,0,0-7.558,7.91l-.323,33.7a8.576,8.576,0,0,0,.008,1.327L152.373,283.2Z" transform="translate(-69.7 -102.925)" fill="#4d5068"/>
          </g>
        </g>
        <g id="Grupo_137091" data-name="Grupo 137091" transform="translate(202.53 61.84)">
          <g id="Grupo_137090" data-name="Grupo 137090" clip-path="url(#clip-path-63)">
            <rect id="Rectángulo_44848" data-name="Rectángulo 44848" width="41.626" height="41.626" transform="translate(-14.694 15.674) rotate(-46.848)" fill="#6836bf"/>
          </g>
        </g>
        <g id="Grupo_137093" data-name="Grupo 137093">
          <g id="Grupo_137092" data-name="Grupo 137092" clip-path="url(#clip-path)">
            <path id="Trazado_195483" data-name="Trazado 195483" d="M425.659,144.924l1.762,0a.627.627,0,0,0,.645-.609l0-2.118a.628.628,0,0,0-.646-.608l-1.379,0a.543.543,0,0,1-.5-.34q-.072-.182-.158-.359a.49.49,0,0,1,.1-.578l.975-.92a.584.584,0,0,0,0-.861l-1.589-1.5a.673.673,0,0,0-.913,0l-.982.926a.557.557,0,0,1-.588.107c-.14-.057-.291-.114-.422-.162a.5.5,0,0,1-.337-.468v-1.313a.628.628,0,0,0-.646-.609h-2.247a.628.628,0,0,0-.645.609v1.3a.514.514,0,0,1-.361.475c-.135.048-.268.1-.4.157a.567.567,0,0,1-.613-.094l-.978-.917a.674.674,0,0,0-.913,0l-1.584,1.5a.585.585,0,0,0,0,.861l.986.924a.482.482,0,0,1,.114.554c-.059.133-.119.275-.17.4a.531.531,0,0,1-.5.319l-1.393,0a.628.628,0,0,0-.644.61l.006,2.118a.628.628,0,0,0,.647.607l1.379,0a.542.542,0,0,1,.505.339q.073.182.159.359a.49.49,0,0,1-.1.578l-.973.921a.585.585,0,0,0,0,.861l1.592,1.495a.674.674,0,0,0,.913,0l.981-.928a.557.557,0,0,1,.588-.108c.14.056.291.113.422.161a.5.5,0,0,1,.338.467l0,1.313a.629.629,0,0,0,.647.608l2.247,0a.628.628,0,0,0,.644-.61l0-1.3a.514.514,0,0,1,.36-.476q.193-.069.381-.15a.568.568,0,0,1,.613.094l.976.919a.674.674,0,0,0,.913,0l1.587-1.5a.585.585,0,0,0,0-.861l-.984-.925a.482.482,0,0,1-.113-.554c.143-.317.29-.694.3-.717m-8.94-2.2a3.207,3.207,0,0,1,4.28-2.258,3,3,0,0,1,1.983,3.339,3.206,3.206,0,0,1-4.28,2.258,3,3,0,0,1-1.983-3.339" transform="translate(-202.594 -66.697)" fill="#fff"/>
          </g>
        </g>
      </g>
    </g>
  </g>
</svg>
