<svg xmlns="http://www.w3.org/2000/svg" xmlns:xlink="http://www.w3.org/1999/xlink" width="108" height="108" viewBox="0 0 108 108">
  <defs>
    <filter id="Rectángulo_43781" x="0" y="0" width="108" height="108" filterUnits="userSpaceOnUse">
      <feOffset dy="3" input="SourceAlpha"/>
      <feGaussianBlur stdDeviation="3" result="blur"/>
      <feFlood flood-opacity="0.161"/>
      <feComposite operator="in" in2="blur"/>
      <feComposite in="SourceGraphic"/>
    </filter>
    <clipPath id="clip-path">
      <rect id="Rectángulo_45011" data-name="Rectángulo 45011" width="64" height="54" fill="#6836bf"/>
    </clipPath>
  </defs>
  <g id="Grupo_137446" data-name="Grupo 137446" transform="translate(-961 -6467)">
    <g transform="matrix(1, 0, 0, 1, 961, 6467)" filter="url(#Rectángulo_43781)">
      <path id="Rectángulo_43781-2" data-name="Rectángulo 43781" d="M10,0H80A10,10,0,0,1,90,10V90a0,0,0,0,1,0,0H10A10,10,0,0,1,0,80V10A10,10,0,0,1,10,0Z" transform="translate(9 6)" fill="#f6f6f6"/>
    </g>
    <g id="Grupo_137429" data-name="Grupo 137429" transform="translate(983 6491)">
      <g id="Grupo_137428" data-name="Grupo 137428" clip-path="url(#clip-path)">
        <path id="Trazado_195702" data-name="Trazado 195702" d="M61,26H3a3,3,0,0,0-3,3V39a3,3,0,0,0,3,3H61a3,3,0,0,0,3-3V29a3,3,0,0,0-3-3M14,40H3a1,1,0,0,1-1-1V29a1,1,0,0,1,1-1H14Zm48-1a1,1,0,0,1-1,1H16V28H61a1,1,0,0,1,1,1Z" fill="#6836bf"/>
        <path id="Trazado_195703" data-name="Trazado 195703" d="M7,37a3.947,3.947,0,0,0,2.019-.567l2.274,2.274a1,1,0,0,0,1.414-1.414l-2.274-2.274A3.947,3.947,0,0,0,11,33a4,4,0,1,0-4,4m0-6a2,2,0,1,1-2,2,2,2,0,0,1,2-2" fill="#6836bf"/>
        <path id="Trazado_195704" data-name="Trazado 195704" d="M60,44a1,1,0,0,0-1,1v3a4,4,0,0,1-4,4H9a4,4,0,0,1-4-4V45a1,1,0,0,0-2,0v3a6.006,6.006,0,0,0,6,6H55a6.006,6.006,0,0,0,6-6V45a1,1,0,0,0-1-1" fill="#6836bf"/>
        <path id="Trazado_195705" data-name="Trazado 195705" d="M4,24a1,1,0,0,0,1-1V16H24a7.011,7.011,0,0,0,6.929-6H59V23a1,1,0,0,0,2,0V6a6.006,6.006,0,0,0-6-6H9A6.006,6.006,0,0,0,3,6V23a1,1,0,0,0,1,1M5,6A4,4,0,0,1,9,2H55a4,4,0,0,1,4,4V8H30a1,1,0,0,0-1,1,5.006,5.006,0,0,1-5,5H5Z" fill="#6836bf"/>
        <path id="Trazado_195706" data-name="Trazado 195706" d="M10,6a3,3,0,1,0,3,3,3,3,0,0,0-3-3m0,4a1,1,0,1,1,1-1,1,1,0,0,1-1,1" fill="#6836bf"/>
        <path id="Trazado_195707" data-name="Trazado 195707" d="M17,6a3,3,0,1,0,3,3,3,3,0,0,0-3-3m0,4a1,1,0,1,1,1-1,1,1,0,0,1-1,1" fill="#6836bf"/>
        <path id="Trazado_195708" data-name="Trazado 195708" d="M27,9a3,3,0,1,0-3,3,3,3,0,0,0,3-3M23,9a1,1,0,1,1,1,1,1,1,0,0,1-1-1" fill="#6836bf"/>
        <path id="Trazado_195709" data-name="Trazado 195709" d="M38,6H55a1,1,0,0,0,0-2H38a1,1,0,0,0,0,2" fill="#6836bf"/>
        <path id="Trazado_195710" data-name="Trazado 195710" d="M21,33H19a1,1,0,0,0,0,2h2a1,1,0,0,0,0-2" fill="#6836bf"/>
        <path id="Trazado_195711" data-name="Trazado 195711" d="M27,33H25a1,1,0,0,0,0,2h2a1,1,0,0,0,0-2" fill="#6836bf"/>
        <path id="Trazado_195712" data-name="Trazado 195712" d="M33,33H31a1,1,0,0,0,0,2h2a1,1,0,0,0,0-2" fill="#6836bf"/>
        <path id="Trazado_195713" data-name="Trazado 195713" d="M39,33H37a1,1,0,0,0,0,2h2a1,1,0,0,0,0-2" fill="#6836bf"/>
        <path id="Trazado_195714" data-name="Trazado 195714" d="M45,33H43a1,1,0,0,0,0,2h2a1,1,0,0,0,0-2" fill="#6836bf"/>
      </g>
    </g>
  </g>
</svg>
