<svg xmlns="http://www.w3.org/2000/svg" xmlns:xlink="http://www.w3.org/1999/xlink" width="130.5" height="112" viewBox="0 0 130.5 112">
  <defs>
    <linearGradient id="linear-gradient" x1="0.5" x2="0.5" y2="1" gradientUnits="objectBoundingBox">
      <stop offset="0" stop-color="#f7ca2e" stop-opacity="0"/>
      <stop offset="0.091" stop-color="#f7ca2e" stop-opacity="0.129"/>
      <stop offset="0.283" stop-color="#f7ca2e" stop-opacity="0.388"/>
      <stop offset="0.465" stop-color="#f7ca2e" stop-opacity="0.612"/>
      <stop offset="0.633" stop-color="#f7ca2e" stop-opacity="0.78"/>
      <stop offset="0.784" stop-color="#f7ca2e" stop-opacity="0.902"/>
      <stop offset="0.911" stop-color="#f7ca2e" stop-opacity="0.969"/>
      <stop offset="1" stop-color="#f7ca2e"/>
    </linearGradient>
    <linearGradient id="linear-gradient-2" x1="0.5" x2="0.5" y2="1" gradientUnits="objectBoundingBox">
      <stop offset="0" stop-color="#b13e8d" stop-opacity="0"/>
      <stop offset="0.091" stop-color="#b13e8d" stop-opacity="0.129"/>
      <stop offset="0.283" stop-color="#b13e8d" stop-opacity="0.388"/>
      <stop offset="0.465" stop-color="#b13e8d" stop-opacity="0.612"/>
      <stop offset="0.633" stop-color="#b13e8d" stop-opacity="0.78"/>
      <stop offset="0.784" stop-color="#b13e8d"/>
      <stop offset="0.911" stop-color="#b13e8d" stop-opacity="0.969"/>
      <stop offset="1" stop-color="#b13e8d"/>
    </linearGradient>
    <filter id="Rectángulo_40720" x="11.5" y="4" width="108" height="108" filterUnits="userSpaceOnUse">
      <feOffset dy="3" input="SourceAlpha"/>
      <feGaussianBlur stdDeviation="3" result="blur"/>
      <feFlood flood-opacity="0.161"/>
      <feComposite operator="in" in2="blur"/>
      <feComposite in="SourceGraphic"/>
    </filter>
    <clipPath id="clip-path">
      <rect id="Rectángulo_45019" data-name="Rectángulo 45019" width="70" height="70" fill="#6836bf"/>
    </clipPath>
  </defs>
  <g id="Grupo_137465" data-name="Grupo 137465" transform="translate(-209.5 -2793)">
    <g id="Grupo_136927" data-name="Grupo 136927" transform="translate(0 1570)">
      <g id="Grupo_108405" data-name="Grupo 108405" transform="translate(209.5 1287)">
        <path id="Rectángulo_5242" data-name="Rectángulo 5242" d="M0,0H12a0,0,0,0,1,0,0V43.333a3,3,0,0,1-3,3H3a3,3,0,0,1-3-3V0A0,0,0,0,1,0,0Z" transform="translate(0 0)" fill="url(#linear-gradient)"/>
      </g>
      <g id="Grupo_108406" data-name="Grupo 108406" transform="translate(340 1275) rotate(180)">
        <path id="Rectángulo_5242-2" data-name="Rectángulo 5242" d="M0,0H12a0,0,0,0,1,0,0V49a3,3,0,0,1-3,3H3a3,3,0,0,1-3-3V0A0,0,0,0,1,0,0Z" transform="translate(0 0)" fill="url(#linear-gradient-2)"/>
      </g>
      <g id="Grupo_136283" data-name="Grupo 136283">
        <g transform="matrix(1, 0, 0, 1, 209.5, 1223)" filter="url(#Rectángulo_40720)">
          <path id="Rectángulo_40720-2" data-name="Rectángulo 40720" d="M10,0H80A10,10,0,0,1,90,10V90a0,0,0,0,1,0,0H10A10,10,0,0,1,0,80V10A10,10,0,0,1,10,0Z" transform="translate(20.5 10)" fill="#f6f6f6"/>
        </g>
      </g>
    </g>
    <g id="Grupo_137458" data-name="Grupo 137458" transform="translate(240 2813)">
      <g id="Grupo_137457" data-name="Grupo 137457" clip-path="url(#clip-path)">
        <path id="Trazado_195777" data-name="Trazado 195777" d="M66.281,55.5H63V41.281A3.285,3.285,0,0,0,59.719,38H35.656a3.285,3.285,0,0,0-3.281,3.281V55.5H29.094A1.093,1.093,0,0,0,28,56.594v5.469a4.379,4.379,0,0,0,4.375,4.375H63a4.379,4.379,0,0,0,4.375-4.375V56.594A1.093,1.093,0,0,0,66.281,55.5M34.563,41.281a1.094,1.094,0,0,1,1.094-1.094H59.719a1.094,1.094,0,0,1,1.094,1.094V55.5H56.438V48.938a1.2,1.2,0,0,0-.32-.773L50.648,42.7a1.189,1.189,0,0,0-.773-.32H40.031a1.093,1.093,0,0,0-1.094,1.094V55.5H34.563ZM56.44,59.875h-17.5V57.688h17.5ZM50.969,46.109,52.7,47.844H50.969Zm-1.094,3.922H54.25V55.5H41.125V44.563h7.656v4.375a1.093,1.093,0,0,0,1.094,1.094M65.188,62.063A2.19,2.19,0,0,1,63,64.25H32.375a2.19,2.19,0,0,1-2.187-2.187V57.688H36.75v2.188a2.19,2.19,0,0,0,2.188,2.188h17.5a2.19,2.19,0,0,0,2.188-2.187V57.688h6.563Z" transform="translate(2.625 3.563)" fill="#6836bf"/>
        <path id="Trazado_195778" data-name="Trazado 195778" d="M26.25,33.906a1.094,1.094,0,0,0,0-2.187H24.063V27.344h8.75a4.379,4.379,0,0,0,4.375-4.375V4.375A4.379,4.379,0,0,0,32.813,0H4.375A4.379,4.379,0,0,0,0,4.375V22.969a4.379,4.379,0,0,0,4.375,4.375h8.75v4.375H10.938a1.094,1.094,0,0,0,0,2.188ZM2.188,4.375A2.19,2.19,0,0,1,4.375,2.188H32.813A2.19,2.19,0,0,1,35,4.375V18.594H27.344V12.031a1.194,1.194,0,0,0-.32-.773L21.555,5.789a1.22,1.22,0,0,0-.773-.32H10.938A1.093,1.093,0,0,0,9.844,6.563V18.594H2.188ZM21.875,9.2l1.735,1.735H21.875Zm-1.094,3.922h4.375v5.469H12.031V7.656h7.656v4.375a1.093,1.093,0,0,0,1.094,1.094M2.188,22.969V20.781H35v2.188a2.19,2.19,0,0,1-2.187,2.188H4.375a2.19,2.19,0,0,1-2.187-2.187m13.125,4.375h6.563v4.375H15.313Z" fill="#6836bf"/>
        <path id="Trazado_195779" data-name="Trazado 195779" d="M16.094,22.188h2.187a1.094,1.094,0,0,0,0-2.187H16.094a1.094,1.094,0,0,0,0,2.188" transform="translate(1.406 1.875)" fill="#6836bf"/>
        <path id="Trazado_195780" data-name="Trazado 195780" d="M31.875,50.592A1.093,1.093,0,0,0,30.781,49.5H19.844a3.285,3.285,0,0,1-3.281-3.281V40.748a1.093,1.093,0,0,0-1.094-1.094h-2l4.185-4.882,4.185,4.882h-2a1.093,1.093,0,0,0-1.094,1.094v5.469a1.093,1.093,0,0,0,1.094,1.094H30.781a1.094,1.094,0,1,0,0-2.187H20.937V41.842h3.281a1.093,1.093,0,0,0,.83-1.8l-6.562-7.656a1.128,1.128,0,0,0-1.66,0l-6.563,7.656a1.093,1.093,0,0,0,.83,1.8h3.281v4.375a5.475,5.475,0,0,0,5.469,5.469H30.781a1.093,1.093,0,0,0,1.094-1.094" transform="translate(0.938 3.002)" fill="#6836bf"/>
        <path id="Trazado_195781" data-name="Trazado 195781" d="M45.844,29.969v-17.5a1.093,1.093,0,0,0-1.094-1.094H37.094a1.094,1.094,0,0,0,0,2.188h6.563V28.875H40.375a1.093,1.093,0,0,0-.83,1.8l6.563,7.656a1.092,1.092,0,0,0,1.66,0L54.33,30.68a1.093,1.093,0,0,0-.83-1.8H50.219V12.469A5.475,5.475,0,0,0,44.75,7H37.094a1.094,1.094,0,0,0,0,2.188H44.75a3.285,3.285,0,0,1,3.281,3.281v17.5a1.093,1.093,0,0,0,1.094,1.094h2l-4.185,4.883-4.185-4.883h2a1.093,1.093,0,0,0,1.094-1.094" transform="translate(3.375 0.656)" fill="#6836bf"/>
      </g>
    </g>
  </g>
</svg>
