<svg xmlns="http://www.w3.org/2000/svg" xmlns:xlink="http://www.w3.org/1999/xlink" width="86" height="86" viewBox="0 0 86 86">
  <defs>
    <filter id="Rectángulo_40821" x="0" y="0" width="86" height="86" filterUnits="userSpaceOnUse">
      <feOffset dy="3" input="SourceAlpha"/>
      <feGaussianBlur stdDeviation="3" result="blur"/>
      <feFlood flood-opacity="0.161"/>
      <feComposite operator="in" in2="blur"/>
      <feComposite in="SourceGraphic"/>
    </filter>
    <clipPath id="clip-path">
      <rect id="Rectángulo_45010" data-name="Rectángulo 45010" width="52" height="52" transform="translate(0.333 0.333)" fill="#12263f"/>
    </clipPath>
  </defs>
  <g id="Grupo_137647" data-name="Grupo 137647" transform="translate(13591 13215)">
    <g id="Grupo_137645" data-name="Grupo 137645" transform="translate(-14619.333 -13658)">
      <g id="Grupo_136270" data-name="Grupo 136270" transform="translate(1037.629 448.816)">
        <g transform="matrix(1, 0, 0, 1, -9.3, -5.82)" filter="url(#Rectángulo_40821)">
          <path id="Rectángulo_40821-2" data-name="Rectángulo 40821" d="M10,0H58A10,10,0,0,1,68,10V68a0,0,0,0,1,0,0H10A10,10,0,0,1,0,58V10A10,10,0,0,1,10,0Z" transform="translate(9 6)" fill="#7fc733"/>
        </g>
      </g>
      <g id="Grupo_137415" data-name="Grupo 137415" transform="translate(1045.333 457)">
        <g id="Grupo_137414" data-name="Grupo 137414" transform="translate(-0.333 -0.333)" clip-path="url(#clip-path)">
          <path id="Trazado_195697" data-name="Trazado 195697" d="M20.249,26H38.122a3.253,3.253,0,0,0,3.249-3.249V14.623a3.253,3.253,0,0,0-3.249-3.249V5.687a.885.885,0,0,0-.238-.574L33.009.238A.911.911,0,0,0,32.435,0H21.062a.812.812,0,0,0-.812.812v6.5A3.253,3.253,0,0,0,17,10.561V22.746A3.253,3.253,0,0,0,20.249,26m15.1-21.122h-2.1v-2.1ZM21.874,1.625h9.748V5.687a.812.812,0,0,0,.812.812H36.5v4.874H30.458L28.967,8.889a3.264,3.264,0,0,0-2.786-1.578H21.874Zm-3.249,8.936a1.626,1.626,0,0,1,1.625-1.625h5.93a1.647,1.647,0,0,1,1.392.793l1.617,2.686c.2.336.367.582.809.582h8.124a1.626,1.626,0,0,1,1.625,1.625v8.124a1.626,1.626,0,0,1-1.625,1.625H20.249a1.626,1.626,0,0,1-1.625-1.625Z" transform="translate(-2.852 0.337)" fill="#12263f"/>
          <path id="Trazado_195698" data-name="Trazado 195698" d="M35.81,49.249H32.25l-.951-1.9A2.423,2.423,0,0,0,29.12,46H24.437A2.44,2.44,0,0,0,22,48.437v9.748a2.44,2.44,0,0,0,2.437,2.437H35.81a2.44,2.44,0,0,0,2.437-2.437v-6.5a2.44,2.44,0,0,0-2.437-2.437m.812,8.936A.813.813,0,0,1,35.81,59H24.437a.813.813,0,0,1-.812-.812V48.437a.813.813,0,0,1,.812-.812H29.12a.808.808,0,0,1,.726.449l1.175,2.351a.813.813,0,0,0,.727.449H35.81a.813.813,0,0,1,.812.812Z" transform="translate(-3.791 -8.294)" fill="#12263f"/>
          <path id="Trazado_195699" data-name="Trazado 195699" d="M57.81,49.249H54.25l-.951-1.9A2.423,2.423,0,0,0,51.12,46H46.437A2.44,2.44,0,0,0,44,48.437v9.748a2.44,2.44,0,0,0,2.437,2.437H57.81a2.44,2.44,0,0,0,2.437-2.437v-6.5a2.44,2.44,0,0,0-2.437-2.437m.812,8.936A.813.813,0,0,1,57.81,59H46.437a.813.813,0,0,1-.812-.812V48.437a.813.813,0,0,1,.812-.812H51.12a.808.808,0,0,1,.726.449l1.175,2.351a.813.813,0,0,0,.727.449H57.81a.813.813,0,0,1,.812.812Z" transform="translate(-7.919 -8.294)" fill="#12263f"/>
          <path id="Trazado_195700" data-name="Trazado 195700" d="M13.81,49.249H10.25l-.951-1.9A2.423,2.423,0,0,0,7.12,46H2.437A2.44,2.44,0,0,0,0,48.437v9.748a2.44,2.44,0,0,0,2.437,2.437H13.81a2.44,2.44,0,0,0,2.437-2.437v-6.5a2.44,2.44,0,0,0-2.437-2.437m.812,8.936A.813.813,0,0,1,13.81,59H2.437a.813.813,0,0,1-.812-.812V48.437a.813.813,0,0,1,.812-.812H7.12a.808.808,0,0,1,.726.449l1.175,2.351a.813.813,0,0,0,.727.449H13.81a.813.813,0,0,1,.812.812Z" transform="translate(0.337 -8.294)" fill="#12263f"/>
          <path id="Trazado_195701" data-name="Trazado 195701" d="M9.812,42.124a.812.812,0,0,0,.812-.812V39.687a.813.813,0,0,1,.812-.812H26.872v2.437a.812.812,0,1,0,1.625,0V38.874H43.932a.813.813,0,0,1,.812.812v1.625a.812.812,0,1,0,1.625,0V39.687a2.44,2.44,0,0,0-2.437-2.437H28.5V34.812a.812.812,0,0,0-1.625,0v2.437H11.437A2.44,2.44,0,0,0,9,39.687v1.625a.812.812,0,0,0,.812.812" transform="translate(-1.351 -6.042)" fill="#12263f"/>
        </g>
      </g>
    </g>
  </g>
</svg>
