<svg xmlns="http://www.w3.org/2000/svg" xmlns:xlink="http://www.w3.org/1999/xlink" width="130.5" height="112" viewBox="0 0 130.5 112">
  <defs>
    <linearGradient id="linear-gradient" x1="0.5" x2="0.5" y2="1" gradientUnits="objectBoundingBox">
      <stop offset="0" stop-color="#f7ca2e" stop-opacity="0"/>
      <stop offset="0.091" stop-color="#f7ca2e" stop-opacity="0.129"/>
      <stop offset="0.283" stop-color="#f7ca2e" stop-opacity="0.388"/>
      <stop offset="0.465" stop-color="#f7ca2e" stop-opacity="0.612"/>
      <stop offset="0.633" stop-color="#f7ca2e" stop-opacity="0.78"/>
      <stop offset="0.784" stop-color="#f7ca2e" stop-opacity="0.902"/>
      <stop offset="0.911" stop-color="#f7ca2e" stop-opacity="0.969"/>
      <stop offset="1" stop-color="#f7ca2e"/>
    </linearGradient>
    <linearGradient id="linear-gradient-2" x1="0.5" x2="0.5" y2="1" gradientUnits="objectBoundingBox">
      <stop offset="0" stop-color="#b13e8d" stop-opacity="0"/>
      <stop offset="0.091" stop-color="#b13e8d" stop-opacity="0.129"/>
      <stop offset="0.283" stop-color="#b13e8d" stop-opacity="0.388"/>
      <stop offset="0.465" stop-color="#b13e8d" stop-opacity="0.612"/>
      <stop offset="0.633" stop-color="#b13e8d" stop-opacity="0.78"/>
      <stop offset="0.784" stop-color="#b13e8d"/>
      <stop offset="0.911" stop-color="#b13e8d" stop-opacity="0.969"/>
      <stop offset="1" stop-color="#b13e8d"/>
    </linearGradient>
    <filter id="Rectángulo_40720" x="11.5" y="4" width="108" height="108" filterUnits="userSpaceOnUse">
      <feOffset dy="3" input="SourceAlpha"/>
      <feGaussianBlur stdDeviation="3" result="blur"/>
      <feFlood flood-opacity="0.161"/>
      <feComposite operator="in" in2="blur"/>
      <feComposite in="SourceGraphic"/>
    </filter>
    <clipPath id="clip-path">
      <rect id="Rectángulo_45017" data-name="Rectángulo 45017" width="72" height="72" transform="translate(0.333 0.333)" fill="#6836bf"/>
    </clipPath>
  </defs>
  <g id="Grupo_137636" data-name="Grupo 137636" transform="translate(8137.5 9888.334)">
    <g id="Grupo_137634" data-name="Grupo 137634" transform="translate(-8347 -11305.334)">
      <g id="Grupo_108405" data-name="Grupo 108405" transform="translate(209.5 1481)">
        <path id="Rectángulo_5242" data-name="Rectángulo 5242" d="M0,0H12a0,0,0,0,1,0,0V43.333a3,3,0,0,1-3,3H3a3,3,0,0,1-3-3V0A0,0,0,0,1,0,0Z" transform="translate(0 0)" fill="url(#linear-gradient)"/>
      </g>
      <g id="Grupo_108406" data-name="Grupo 108406" transform="translate(340 1469) rotate(180)">
        <path id="Rectángulo_5242-2" data-name="Rectángulo 5242" d="M0,0H12a0,0,0,0,1,0,0V49a3,3,0,0,1-3,3H3a3,3,0,0,1-3-3V0A0,0,0,0,1,0,0Z" transform="translate(0 0)" fill="url(#linear-gradient-2)"/>
      </g>
      <g id="Grupo_136282" data-name="Grupo 136282">
        <g transform="matrix(1, 0, 0, 1, 209.5, 1417)" filter="url(#Rectángulo_40720)">
          <path id="Rectángulo_40720-2" data-name="Rectángulo 40720" d="M10,0H80A10,10,0,0,1,90,10V90a0,0,0,0,1,0,0H10A10,10,0,0,1,0,80V10A10,10,0,0,1,10,0Z" transform="translate(20.5 10)" fill="#f6f6f6"/>
        </g>
      </g>
    </g>
    <g id="Grupo_137635" data-name="Grupo 137635" transform="translate(-8108.333 -9869.668)">
      <g id="Grupo_137447" data-name="Grupo 137447" clip-path="url(#clip-path)">
        <path id="Trazado_195752" data-name="Trazado 195752" d="M25.135,41a1.135,1.135,0,1,0,1.135,1.135A1.136,1.136,0,0,0,25.135,41" transform="translate(3.25 5.552)" fill="#6836bf"/>
        <path id="Trazado_195753" data-name="Trazado 195753" d="M22.135,41a1.135,1.135,0,1,0,1.135,1.135A1.136,1.136,0,0,0,22.135,41" transform="translate(2.844 5.552)" fill="#6836bf"/>
        <path id="Trazado_195754" data-name="Trazado 195754" d="M28.135,41a1.135,1.135,0,1,0,1.135,1.135A1.136,1.136,0,0,0,28.135,41" transform="translate(3.656 5.552)" fill="#6836bf"/>
        <path id="Trazado_195755" data-name="Trazado 195755" d="M34.135,41a1.135,1.135,0,1,0,0,2.271h9.083a1.135,1.135,0,1,0,0-2.271Z" transform="translate(4.469 5.552)" fill="#6836bf"/>
        <path id="Trazado_195756" data-name="Trazado 195756" d="M25.135,31a1.135,1.135,0,1,0,1.135,1.135A1.136,1.136,0,0,0,25.135,31" transform="translate(3.25 4.198)" fill="#6836bf"/>
        <path id="Trazado_195757" data-name="Trazado 195757" d="M22.135,31a1.135,1.135,0,1,0,1.135,1.135A1.136,1.136,0,0,0,22.135,31" transform="translate(2.844 4.198)" fill="#6836bf"/>
        <path id="Trazado_195758" data-name="Trazado 195758" d="M28.135,31a1.135,1.135,0,1,0,1.135,1.135A1.136,1.136,0,0,0,28.135,31" transform="translate(3.656 4.198)" fill="#6836bf"/>
        <path id="Trazado_195759" data-name="Trazado 195759" d="M34.135,31a1.135,1.135,0,1,0,0,2.271h9.083a1.135,1.135,0,1,0,0-2.271Z" transform="translate(4.469 4.198)" fill="#6836bf"/>
        <path id="Trazado_195760" data-name="Trazado 195760" d="M25.135,23.271A1.135,1.135,0,1,0,24,22.135a1.136,1.136,0,0,0,1.135,1.135" transform="translate(3.25 2.844)" fill="#6836bf"/>
        <path id="Trazado_195761" data-name="Trazado 195761" d="M23.271,22.135a1.135,1.135,0,1,0-1.135,1.135,1.136,1.136,0,0,0,1.135-1.135" transform="translate(2.844 2.844)" fill="#6836bf"/>
        <path id="Trazado_195762" data-name="Trazado 195762" d="M28.135,23.271A1.135,1.135,0,1,0,27,22.135a1.136,1.136,0,0,0,1.135,1.135" transform="translate(3.656 2.844)" fill="#6836bf"/>
        <path id="Trazado_195763" data-name="Trazado 195763" d="M34.135,23.271h9.083a1.135,1.135,0,1,0,0-2.271H34.135a1.135,1.135,0,0,0,0,2.271" transform="translate(4.469 2.844)" fill="#6836bf"/>
        <path id="Trazado_195764" data-name="Trazado 195764" d="M47.521,27.083a2.273,2.273,0,0,0,2.271-2.271V20.271A2.273,2.273,0,0,0,47.521,18H20.271A2.273,2.273,0,0,0,18,20.271v4.542a2.273,2.273,0,0,0,2.271,2.271h1.135v2.271H20.271A2.273,2.273,0,0,0,18,31.625v4.542a2.273,2.273,0,0,0,2.271,2.271h1.135v2.271H20.271A2.273,2.273,0,0,0,18,42.979v4.542a2.273,2.273,0,0,0,2.271,2.271h27.25a2.273,2.273,0,0,0,2.271-2.271V42.979a2.273,2.273,0,0,0-2.271-2.271H46.386V38.438h1.135a2.273,2.273,0,0,0,2.271-2.271V31.625a2.273,2.273,0,0,0-2.271-2.271H46.386V27.083Zm-27.25-6.813h27.25v4.542H20.271Zm27.25,27.25H20.271V42.979h27.25Zm-3.406-6.813H23.677V38.438H44.115Zm3.406-4.542H20.271V31.625h27.25Zm-3.406-6.813H23.677V27.083H44.115Z" transform="translate(2.438 2.438)" fill="#6836bf"/>
        <path id="Trazado_195765" data-name="Trazado 195765" d="M53.813,35.3H57.38a4.542,4.542,0,1,0,0-2.271H53.813V21.677H57.38a4.542,4.542,0,1,0,0-2.271H53.813a2.273,2.273,0,0,0-2.271,2.271V33.031H48.135a1.135,1.135,0,0,0,0,2.271h3.406V46.656a2.273,2.273,0,0,0,2.271,2.271H57.38a4.542,4.542,0,1,0,0-2.271H53.813ZM61.76,31.9a2.271,2.271,0,1,1-2.271,2.271A2.273,2.273,0,0,1,61.76,31.9m0-13.625a2.271,2.271,0,1,1-2.271,2.271,2.273,2.273,0,0,1,2.271-2.271m0,27.25a2.271,2.271,0,1,1-2.271,2.271,2.273,2.273,0,0,1,2.271-2.271" transform="translate(6.365 2.167)" fill="#6836bf"/>
        <path id="Trazado_195766" data-name="Trazado 195766" d="M18.167,35.3a1.135,1.135,0,1,0,0-2.271H14.76V21.677a2.273,2.273,0,0,0-2.271-2.271H8.922a4.542,4.542,0,1,0,0,2.271H12.49V33.031H8.922a4.542,4.542,0,1,0,0,2.271H12.49V46.656H8.922a4.542,4.542,0,1,0,0,2.271H12.49a2.273,2.273,0,0,0,2.271-2.271V35.3ZM4.542,22.813a2.271,2.271,0,1,1,2.271-2.271,2.273,2.273,0,0,1-2.271,2.271m0,13.625a2.271,2.271,0,1,1,2.271-2.271,2.273,2.273,0,0,1-2.271,2.271m0,13.625a2.271,2.271,0,1,1,2.271-2.271,2.273,2.273,0,0,1-2.271,2.271" transform="translate(0 2.167)" fill="#6836bf"/>
        <path id="Trazado_195767" data-name="Trazado 195767" d="M48.927,57.38V53.813a2.273,2.273,0,0,0-2.271-2.271H35.3V48.135a1.135,1.135,0,0,0-2.271,0v3.406H21.677a2.273,2.273,0,0,0-2.271,2.271V57.38a4.542,4.542,0,1,0,2.271,0V53.813H33.031V57.38a4.542,4.542,0,1,0,2.271,0V53.813H46.656V57.38a4.542,4.542,0,1,0,2.271,0M22.813,61.76a2.271,2.271,0,1,1-2.271-2.271,2.273,2.273,0,0,1,2.271,2.271m13.625,0a2.271,2.271,0,1,1-2.271-2.271,2.273,2.273,0,0,1,2.271,2.271m11.354,2.271a2.271,2.271,0,1,1,2.271-2.271,2.273,2.273,0,0,1-2.271,2.271" transform="translate(2.167 6.365)" fill="#6836bf"/>
        <path id="Trazado_195768" data-name="Trazado 195768" d="M19.406,8.922V12.49a2.273,2.273,0,0,0,2.271,2.271H33.031v3.406a1.135,1.135,0,0,0,2.271,0V14.76H46.656a2.273,2.273,0,0,0,2.271-2.271V8.922a4.542,4.542,0,1,0-2.271,0V12.49H35.3V8.922a4.542,4.542,0,1,0-2.271,0V12.49H21.677V8.922a4.542,4.542,0,1,0-2.271,0m26.115-4.38a2.271,2.271,0,1,1,2.271,2.271,2.273,2.273,0,0,1-2.271-2.271m-13.625,0a2.271,2.271,0,1,1,2.271,2.271A2.273,2.273,0,0,1,31.9,4.542M20.542,2.271a2.271,2.271,0,1,1-2.271,2.271,2.273,2.273,0,0,1,2.271-2.271" transform="translate(2.167)" fill="#6836bf"/>
      </g>
    </g>
  </g>
</svg>
