<svg xmlns="http://www.w3.org/2000/svg" xmlns:xlink="http://www.w3.org/1999/xlink" width="86" height="85" viewBox="0 0 86 85">
  <defs>
    <filter id="Rectángulo_43666" x="0" y="0" width="86" height="85" filterUnits="userSpaceOnUse">
      <feOffset dy="3" input="SourceAlpha"/>
      <feGaussianBlur stdDeviation="3" result="blur"/>
      <feFlood flood-opacity="0.161"/>
      <feComposite operator="in" in2="blur"/>
      <feComposite in="SourceGraphic"/>
    </filter>
    <clipPath id="clip-path">
      <rect id="Rectángulo_45009" data-name="Rectángulo 45009" width="48" height="48" transform="translate(-0.333 -0.333)" fill="#fff"/>
    </clipPath>
  </defs>
  <g id="Grupo_137648" data-name="Grupo 137648" transform="translate(13491 13215)">
    <g id="Grupo_137644" data-name="Grupo 137644" transform="translate(-14441.333 -13498)">
      <g id="Grupo_136268" data-name="Grupo 136268" transform="translate(959.333 289.133)">
        <g id="Grupo_136267" data-name="Grupo 136267" transform="translate(0 0)">
          <g transform="matrix(1, 0, 0, 1, -9, -6.13)" filter="url(#Rectángulo_43666)">
            <path id="Rectángulo_43666-2" data-name="Rectángulo 43666" d="M10,0H58A10,10,0,0,1,68,10V67a0,0,0,0,1,0,0H10A10,10,0,0,1,0,57V10A10,10,0,0,1,10,0Z" transform="translate(9 6)" fill="#b83f8c"/>
          </g>
        </g>
      </g>
      <g id="Grupo_137413" data-name="Grupo 137413" transform="translate(969.666 299.333)">
        <g id="Grupo_137412" data-name="Grupo 137412" clip-path="url(#clip-path)">
          <path id="Trazado_195692" data-name="Trazado 195692" d="M43.636,0H3.7A3.7,3.7,0,0,0,0,3.7V36.24a3.7,3.7,0,0,0,3.7,3.7H17.75v5.917H14.792a.74.74,0,1,0,0,1.479h17.75a.74.74,0,1,0,0-1.479H29.584V39.938H43.636a3.7,3.7,0,0,0,3.7-3.7V3.7a3.7,3.7,0,0,0-3.7-3.7M1.479,3.7A2.221,2.221,0,0,1,3.7,1.479H43.636A2.221,2.221,0,0,1,45.855,3.7V32.542H1.479ZM28.1,45.855H19.229V39.938H28.1Zm17.75-9.615a2.221,2.221,0,0,1-2.219,2.219H3.7A2.221,2.221,0,0,1,1.479,36.24V34.021H45.855Z" fill="#fff"/>
          <path id="Trazado_195693" data-name="Trazado 195693" d="M44.678,4H4.74A.74.74,0,0,0,4,4.74V31.365a.74.74,0,0,0,.74.74H44.678a.739.739,0,0,0,.74-.74V4.74a.739.739,0,0,0-.74-.74m-.74,26.625H5.479V5.479H43.938Z" transform="translate(-1.042 -1.042)" fill="#fff"/>
          <path id="Trazado_195694" data-name="Trazado 195694" d="M20.9,25.75h2.342a.74.74,0,0,0,0-1.479H20.9a4,4,0,0,1-1.129-7.848.739.739,0,0,0,.53-.75,1.184,1.184,0,0,0-.018-.154,2.653,2.653,0,0,1,2.65-2.651,2.614,2.614,0,0,1,1.249.331.739.739,0,0,0,1.058-.431A4.685,4.685,0,0,1,34.4,14.163a4.746,4.746,0,0,1-.159,1.194.737.737,0,0,0,.638.924,4.006,4.006,0,0,1-.417,7.991H32.119a.74.74,0,0,0,0,1.479h2.342a5.486,5.486,0,0,0,1.363-10.8,5.9,5.9,0,0,0,.054-.787,6.165,6.165,0,0,0-11.758-2.591,3.953,3.953,0,0,0-1.185-.183,4.135,4.135,0,0,0-4.117,3.8A5.484,5.484,0,0,0,20.9,25.75" transform="translate(-4.015 -2.083)" fill="#fff"/>
          <path id="Trazado_195695" data-name="Trazado 195695" d="M35.286,24.23a.741.741,0,0,0-.11-.791l-4.438-5.177a.764.764,0,0,0-1.123,0L25.178,23.44a.739.739,0,0,0,.561,1.221h2.219v7.4a.74.74,0,1,0,1.479,0V23.921a.74.74,0,0,0-.74-.74h-1.35l2.83-3.3,2.83,3.3H31.656a.739.739,0,0,0-.74.74v8.136a.74.74,0,1,0,1.479,0v-7.4h2.219a.74.74,0,0,0,.672-.43" transform="translate(-6.51 -4.692)" fill="#fff"/>
          <path id="Trazado_195696" data-name="Trazado 195696" d="M27.74,49.479h5.917a.74.74,0,0,0,0-1.479H27.74a.74.74,0,1,0,0,1.479" transform="translate(-7.031 -12.5)" fill="#fff"/>
        </g>
      </g>
    </g>
  </g>
</svg>
