<svg id="Grupo_137567" data-name="Grupo 137567" xmlns="http://www.w3.org/2000/svg" xmlns:xlink="http://www.w3.org/1999/xlink" width="70" height="70" viewBox="0 0 70 70">
  <defs>
    <clipPath id="clip-path">
      <rect id="Rectángulo_45091" data-name="Rectángulo 45091" width="70" height="70" fill="#b13e8d" stroke="#b13e8d" stroke-width="1"/>
    </clipPath>
  </defs>
  <g id="Grupo_137566" data-name="Grupo 137566" clip-path="url(#clip-path)">
    <path id="Trazado_195894" data-name="Trazado 195894" d="M63.809,0H20.292A6.2,6.2,0,0,0,14.1,6.191V7.843H6.053A6.06,6.06,0,0,0,0,13.9v37.43a6.06,6.06,0,0,0,6.053,6.053h19.66v3.831l-7.478,3.64a.789.789,0,0,0-.444.71v3.65a.789.789,0,0,0,.789.789H44.668a.789.789,0,0,0,.789-.789V65.56a.789.789,0,0,0-.444-.71l-7.478-3.64V57.379H57.2a6.06,6.06,0,0,0,6.053-6.053V39.356h.561A6.2,6.2,0,0,0,70,33.165V6.191A6.2,6.2,0,0,0,63.809,0M20.292,39.356h2.444l3.064,6.58a.789.789,0,0,0,1.431,0l3.064-6.58H55.908V50.038H7.341V15.184H14.1V33.165a6.2,6.2,0,0,0,6.192,6.191M36.4,62.414l7.478,3.64v2.366H19.37V66.055l7.479-3.64a.789.789,0,0,0,.444-.71V57.379h8.664V61.7a.788.788,0,0,0,.444.71M61.67,51.326A4.479,4.479,0,0,1,57.2,55.8H6.053a4.479,4.479,0,0,1-4.474-4.474V13.9A4.479,4.479,0,0,1,6.053,9.422H14.1V13.6H6.551a.79.79,0,0,0-.789.79V50.828a.789.789,0,0,0,.789.789H56.7a.789.789,0,0,0,.789-.789V39.356H61.67Zm6.752-18.161a4.617,4.617,0,0,1-4.612,4.613H29.791a.789.789,0,0,0-.716.456l-2.56,5.5-2.56-5.5a.789.789,0,0,0-.716-.456H20.292a4.618,4.618,0,0,1-4.613-4.613V6.191a4.618,4.618,0,0,1,4.613-4.612H63.809a4.617,4.617,0,0,1,4.612,4.612Z" transform="translate(0)" fill="#b13e8d" stroke="#b13e8d" stroke-width="1"/>
    <path id="Trazado_195895" data-name="Trazado 195895" d="M76.417,25.921a7.984,7.984,0,1,0-13.762,0,11.635,11.635,0,0,0-6.384,10.372.79.79,0,0,0,.789.79H82.012a.79.79,0,0,0,.789-.79,11.635,11.635,0,0,0-6.384-10.372M69.536,15.474a6.4,6.4,0,1,1-6.405,6.4,6.412,6.412,0,0,1,6.405-6.4M57.881,35.5a10.059,10.059,0,0,1,5.725-8.286,7.971,7.971,0,0,0,11.861,0A10.059,10.059,0,0,1,81.191,35.5Z" transform="translate(-27.486 -6.787)" fill="#b13e8d" stroke="#b13e8d" stroke-width="1"/>
  </g>
</svg>
