<svg id="Grupo_137565" data-name="Grupo 137565" xmlns="http://www.w3.org/2000/svg" xmlns:xlink="http://www.w3.org/1999/xlink" width="70" height="70" viewBox="0 0 70 70">
  <defs>
    <clipPath id="clip-path">
      <rect id="Rectángulo_45090" data-name="Rectángulo 45090" width="70" height="70" fill="#b13e8d"/>
    </clipPath>
  </defs>
  <g id="Grupo_137564" data-name="Grupo 137564" clip-path="url(#clip-path)">
    <path id="Trazado_195885" data-name="Trazado 195885" d="M28.094,10.938h3.281v4.375a1.094,1.094,0,0,0,2.188,0V10.938h3.281a1.093,1.093,0,0,0,1.094-1.094V1.094A1.093,1.093,0,0,0,36.844,0h-8.75A1.093,1.093,0,0,0,27,1.094v8.75a1.093,1.093,0,0,0,1.094,1.094m1.094-8.75H35.75V8.75H29.188Z" transform="translate(2.531)" fill="#b13e8d"/>
    <path id="Trazado_195886" data-name="Trazado 195886" d="M36.844,54.469H33.563V50.094a1.094,1.094,0,0,0-2.187,0v4.375H28.094A1.093,1.093,0,0,0,27,55.563v8.75a1.093,1.093,0,0,0,1.094,1.094h8.75a1.093,1.093,0,0,0,1.094-1.094v-8.75a1.093,1.093,0,0,0-1.094-1.094m-1.094,8.75H29.188V56.656H35.75Z" transform="translate(2.531 4.594)" fill="#b13e8d"/>
    <path id="Trazado_195887" data-name="Trazado 195887" d="M64.875,0H51.75a1.093,1.093,0,0,0-1.094,1.094V13.766L43.32,21.1a1.094,1.094,0,0,0,1.547,1.547L52.2,15.313H64.875a1.093,1.093,0,0,0,1.094-1.094V1.094A1.093,1.093,0,0,0,64.875,0M63.781,13.125H52.844V2.188H63.781Z" transform="translate(4.031)" fill="#b13e8d"/>
    <path id="Trazado_195888" data-name="Trazado 195888" d="M32.667,17.149,19.542,24.805A1.134,1.134,0,0,0,19,25.75V41.063a1.091,1.091,0,0,0,.542.944l13.125,7.656a1.089,1.089,0,0,0,1.1,0L46.9,42.006a1.091,1.091,0,0,0,.542-.944V25.75a1.133,1.133,0,0,0-.542-.945L33.77,17.149a1.092,1.092,0,0,0-1.1,0M21.188,27.654l10.938,6.38v12.78L21.188,40.434Zm13.125,19.16V34.034l10.938-6.38V40.434ZM33.219,32.14,22.264,25.75l10.955-6.391L44.174,25.75Z" transform="translate(1.781 1.594)" fill="#b13e8d"/>
    <path id="Trazado_195889" data-name="Trazado 195889" d="M64.5,27H55.75a1.093,1.093,0,0,0-1.094,1.094v3.281H48.094a1.094,1.094,0,0,0,0,2.188h6.563v3.281a1.093,1.093,0,0,0,1.094,1.094H64.5a1.093,1.093,0,0,0,1.094-1.094v-8.75A1.093,1.093,0,0,0,64.5,27m-1.094,8.75H56.844V29.188h6.563Z" transform="translate(4.406 2.531)" fill="#b13e8d"/>
    <path id="Trazado_195890" data-name="Trazado 195890" d="M1.094,37.938h8.75a1.093,1.093,0,0,0,1.094-1.094V33.563H17.5a1.094,1.094,0,0,0,0-2.187H10.938V28.094A1.093,1.093,0,0,0,9.844,27H1.094A1.093,1.093,0,0,0,0,28.094v8.75a1.093,1.093,0,0,0,1.094,1.094m1.094-8.75H8.75V35.75H2.188Z" transform="translate(0 2.531)" fill="#b13e8d"/>
    <path id="Trazado_195891" data-name="Trazado 195891" d="M1.094,15.313H13.766L21.1,22.648A1.094,1.094,0,0,0,22.648,21.1l-7.336-7.336V1.094A1.093,1.093,0,0,0,14.219,0H1.094A1.093,1.093,0,0,0,0,1.094V14.219a1.093,1.093,0,0,0,1.094,1.094M2.188,2.188H13.125V13.125H2.188Z" fill="#b13e8d"/>
    <path id="Trazado_195892" data-name="Trazado 195892" d="M64.875,50.656H52.2L44.867,43.32a1.094,1.094,0,0,0-1.547,1.547L50.656,52.2V64.875a1.093,1.093,0,0,0,1.094,1.094H64.875a1.093,1.093,0,0,0,1.094-1.094V51.75a1.093,1.093,0,0,0-1.094-1.094M63.781,63.781H52.844V52.844H63.781Z" transform="translate(4.031 4.031)" fill="#b13e8d"/>
    <path id="Trazado_195893" data-name="Trazado 195893" d="M21.1,43.32l-7.336,7.336H1.094A1.093,1.093,0,0,0,0,51.75V64.875a1.093,1.093,0,0,0,1.094,1.094H14.219a1.093,1.093,0,0,0,1.094-1.094V52.2l7.336-7.336A1.094,1.094,0,0,0,21.1,43.32M13.125,63.781H2.188V52.844H13.125Z" transform="translate(0 4.031)" fill="#b13e8d"/>
  </g>
</svg>
