<svg xmlns="http://www.w3.org/2000/svg" xmlns:xlink="http://www.w3.org/1999/xlink" width="75" height="47.059" viewBox="0 0 75 47.059">
  <defs>
    <clipPath id="clip-path">
      <rect id="Rectángulo_45092" data-name="Rectángulo 45092" width="75" height="47.059" fill="#b13e8d"/>
    </clipPath>
  </defs>
  <g id="Grupo_137569" data-name="Grupo 137569" transform="translate(0 0.16)">
    <g id="Grupo_137568" data-name="Grupo 137568" transform="translate(0 -0.16)" clip-path="url(#clip-path)">
      <path id="Trazado_195896" data-name="Trazado 195896" d="M74.955,29.279a3.518,3.518,0,0,0-3.514-3.514H67.928V23.423H69.1a1.171,1.171,0,1,0,0-2.342H67.928V18.739H69.1a1.171,1.171,0,1,0,0-2.342H67.928a4.689,4.689,0,0,0-4.685-4.685,4.636,4.636,0,0,0-2.342.651V5.856A5.862,5.862,0,0,0,55.045,0H51.531a1.171,1.171,0,0,0,0,2.342h3.514a3.518,3.518,0,0,1,3.514,3.514V37.477H7.027V5.856a3.518,3.518,0,0,1,3.514-3.514H46.847a1.171,1.171,0,1,0,0-2.342H10.541A5.862,5.862,0,0,0,4.685,5.856V37.477H1.171A1.172,1.172,0,0,0,0,38.649a8.207,8.207,0,0,0,8.2,8.2H69.1a3.518,3.518,0,0,0,3.514-3.514V32.577a3.509,3.509,0,0,0,2.342-3.3M63.243,14.054A2.345,2.345,0,0,1,65.585,16.4H64.414a1.171,1.171,0,0,0,0,2.342h1.171v2.342H64.414a1.171,1.171,0,0,0,0,2.342h1.171v2.342H60.9V16.4a2.345,2.345,0,0,1,2.342-2.342M2.461,39.82H63.125A5.865,5.865,0,0,1,57.387,44.5H8.2A5.865,5.865,0,0,1,2.461,39.82M71.441,30.45H64.414a1.171,1.171,0,0,0,0,2.342H70.27V43.333A1.173,1.173,0,0,1,69.1,44.5H63.114a8.171,8.171,0,0,0,2.471-5.856,1.172,1.172,0,0,0-1.171-1.171H60.9V28.108H71.441a1.171,1.171,0,1,1,0,2.342" transform="translate(0.023 0.106)" fill="#b13e8d"/>
      <path id="Trazado_195897" data-name="Trazado 195897" d="M29.514,35H27.171a1.171,1.171,0,1,0,0,2.342h2.342a1.171,1.171,0,1,0,0-2.342" transform="translate(4.473 6.097)" fill="#b13e8d"/>
      <path id="Trazado_195898" data-name="Trazado 195898" d="M26.739,7.514A3.518,3.518,0,0,0,23.225,4H11.514A3.518,3.518,0,0,0,8,7.514v9.369a1.171,1.171,0,0,0,2,.828l4-4a1.166,1.166,0,0,1,.829-.343h8.4a3.518,3.518,0,0,0,3.514-3.514ZM24.4,9.856a1.173,1.173,0,0,1-1.171,1.171h-8.4a3.488,3.488,0,0,0-2.485,1.029l-2,2V7.514a1.173,1.173,0,0,1,1.171-1.171H23.225A1.173,1.173,0,0,1,24.4,7.514Z" transform="translate(1.392 0.791)" fill="#b13e8d"/>
      <path id="Trazado_195899" data-name="Trazado 195899" d="M23.225,18H11.514A3.518,3.518,0,0,0,8,21.514v9.369a1.171,1.171,0,0,0,2,.828l4-4a1.166,1.166,0,0,1,.829-.343h8.4a3.518,3.518,0,0,0,3.514-3.514V21.514A3.518,3.518,0,0,0,23.225,18M24.4,23.856a1.173,1.173,0,0,1-1.171,1.171h-8.4a3.488,3.488,0,0,0-2.485,1.029l-2,2V21.514a1.173,1.173,0,0,1,1.171-1.171H23.225A1.173,1.173,0,0,1,24.4,21.514Z" transform="translate(1.392 3.187)" fill="#b13e8d"/>
      <path id="Trazado_195900" data-name="Trazado 195900" d="M32,14.514v2.342a3.518,3.518,0,0,0,3.514,3.514h8.4a1.166,1.166,0,0,1,.829.343l4,4a1.171,1.171,0,0,0,2-.828V14.514A3.518,3.518,0,0,0,47.225,11H35.514A3.518,3.518,0,0,0,32,14.514m16.4,0v6.542l-2-2a3.488,3.488,0,0,0-2.485-1.029h-8.4a1.173,1.173,0,0,1-1.171-1.171V14.514a1.173,1.173,0,0,1,1.171-1.171H47.225A1.173,1.173,0,0,1,48.4,14.514" transform="translate(5.5 1.989)" fill="#b13e8d"/>
    </g>
  </g>
</svg>
