<svg xmlns="http://www.w3.org/2000/svg" xmlns:xlink="http://www.w3.org/1999/xlink" width="108" height="108" viewBox="0 0 108 108">
  <defs>
    <filter id="Rectángulo_43778" x="0" y="0" width="108" height="108" filterUnits="userSpaceOnUse">
      <feOffset dy="3" input="SourceAlpha"/>
      <feGaussianBlur stdDeviation="3" result="blur"/>
      <feFlood flood-opacity="0.161"/>
      <feComposite operator="in" in2="blur"/>
      <feComposite in="SourceGraphic"/>
    </filter>
    <clipPath id="clip-path">
      <rect id="Rectángulo_45013" data-name="Rectángulo 45013" width="64" height="62" fill="#6836bf"/>
    </clipPath>
  </defs>
  <g id="Grupo_137443" data-name="Grupo 137443" transform="translate(-539 -6003)">
    <g transform="matrix(1, 0, 0, 1, 539, 6003)" filter="url(#Rectángulo_43778)">
      <path id="Rectángulo_43778-2" data-name="Rectángulo 43778" d="M10,0H80A10,10,0,0,1,90,10V90a0,0,0,0,1,0,0H10A10,10,0,0,1,0,80V10A10,10,0,0,1,10,0Z" transform="translate(9 6)" fill="#f6f6f6"/>
    </g>
    <g id="Grupo_137433" data-name="Grupo 137433" transform="translate(561 6023)">
      <g id="Grupo_137432" data-name="Grupo 137432" clip-path="url(#clip-path)">
        <path id="Trazado_195720" data-name="Trazado 195720" d="M20,29H44a2,2,0,0,0,2-2V23a2,2,0,0,0-2-2H43V19h1a2,2,0,0,0,2-2V13a2,2,0,0,0-2-2H43V9h1a2,2,0,0,0,2-2V3a2,2,0,0,0-2-2H20a2,2,0,0,0-2,2V7a2,2,0,0,0,2,2h1v2H20a2,2,0,0,0-2,2v4a2,2,0,0,0,2,2h1v2H20a2,2,0,0,0-2,2v4a2,2,0,0,0,2,2M20,3H44V7H20Zm3,6H41v2H23Zm-3,4H44v4H20Zm3,6H41v2H23Zm-3,4H44v4H20Z" fill="#6836bf"/>
        <path id="Trazado_195721" data-name="Trazado 195721" d="M25,24a1,1,0,1,0,1,1,1,1,0,0,0-1-1" fill="#6836bf"/>
        <path id="Trazado_195722" data-name="Trazado 195722" d="M22,24a1,1,0,1,0,1,1,1,1,0,0,0-1-1" fill="#6836bf"/>
        <path id="Trazado_195723" data-name="Trazado 195723" d="M28,24a1,1,0,1,0,1,1,1,1,0,0,0-1-1" fill="#6836bf"/>
        <path id="Trazado_195724" data-name="Trazado 195724" d="M42,24H34a1,1,0,0,0,0,2h8a1,1,0,0,0,0-2" fill="#6836bf"/>
        <path id="Trazado_195725" data-name="Trazado 195725" d="M25,16a1,1,0,1,0-1-1,1,1,0,0,0,1,1" fill="#6836bf"/>
        <path id="Trazado_195726" data-name="Trazado 195726" d="M23,15a1,1,0,1,0-1,1,1,1,0,0,0,1-1" fill="#6836bf"/>
        <path id="Trazado_195727" data-name="Trazado 195727" d="M28,16a1,1,0,1,0-1-1,1,1,0,0,0,1,1" fill="#6836bf"/>
        <path id="Trazado_195728" data-name="Trazado 195728" d="M34,16h8a1,1,0,0,0,0-2H34a1,1,0,0,0,0,2" fill="#6836bf"/>
        <path id="Trazado_195729" data-name="Trazado 195729" d="M25,6a1,1,0,1,0-1-1,1,1,0,0,0,1,1" fill="#6836bf"/>
        <path id="Trazado_195730" data-name="Trazado 195730" d="M23,5a1,1,0,1,0-1,1,1,1,0,0,0,1-1" fill="#6836bf"/>
        <path id="Trazado_195731" data-name="Trazado 195731" d="M28,6a1,1,0,1,0-1-1,1,1,0,0,0,1,1" fill="#6836bf"/>
        <path id="Trazado_195732" data-name="Trazado 195732" d="M34,6h8a1,1,0,0,0,0-2H34a1,1,0,0,0,0,2" fill="#6836bf"/>
        <path id="Trazado_195733" data-name="Trazado 195733" d="M59.5,0A4.505,4.505,0,0,0,55,4.5V14.762A4.5,4.5,0,0,0,48,18.5V29.586l-9.657,9.657A7.948,7.948,0,0,0,36,44.9V54H34a1,1,0,0,0-1,1v6a1,1,0,0,0,1,1H58a1,1,0,0,0,1-1V55a1,1,0,0,0-1-1H56V50.414l5.95-5.949A6.956,6.956,0,0,0,64,39.515V4.5A4.505,4.505,0,0,0,59.5,0m-7,16A2.5,2.5,0,0,1,55,18.5v8.657a5.252,5.252,0,0,0-5,.559V18.5A2.5,2.5,0,0,1,52.5,16M57,60H35V56H57Zm5-20.485a4.971,4.971,0,0,1-1.464,3.536l-6.243,6.242A1,1,0,0,0,54,50v4H38V44.9a5.961,5.961,0,0,1,1.757-4.243l10.95-10.95a3.249,3.249,0,0,1,4.586,0h0a3.246,3.246,0,0,1,0,4.585l-7,7a1,1,0,0,0,1.414,1.414l7-7A5.232,5.232,0,0,0,57,28.652V4.5a2.5,2.5,0,0,1,5,0Z" fill="#6836bf"/>
        <path id="Trazado_195734" data-name="Trazado 195734" d="M30,54H28V44.9a7.945,7.945,0,0,0-2.343-5.656L16,29.586V18.5a4.5,4.5,0,0,0-7-3.738V4.5a4.5,4.5,0,0,0-9,0V39.515a6.954,6.954,0,0,0,2.05,4.949L8,50.414V54H6a1,1,0,0,0-1,1v6a1,1,0,0,0,1,1H30a1,1,0,0,0,1-1V55a1,1,0,0,0-1-1M11.5,16A2.5,2.5,0,0,1,14,18.5v9.216a5.247,5.247,0,0,0-5-.559V18.5A2.5,2.5,0,0,1,11.5,16M9.707,49.293,3.464,43.05A4.967,4.967,0,0,1,2,39.515V4.5a2.5,2.5,0,0,1,5,0V28.652a5.232,5.232,0,0,0,.293,7.055l7,7a1,1,0,0,0,1.414-1.414l-7-7a3.243,3.243,0,0,1,4.586-4.586l10.95,10.95A5.961,5.961,0,0,1,26,44.9V54H10V50a1,1,0,0,0-.293-.707M29,60H7V56H29Z" fill="#6836bf"/>
      </g>
    </g>
  </g>
</svg>
