<svg xmlns="http://www.w3.org/2000/svg" xmlns:xlink="http://www.w3.org/1999/xlink" width="108" height="108" viewBox="0 0 108 108">
  <defs>
    <filter id="Rectángulo_43780" x="0" y="0" width="108" height="108" filterUnits="userSpaceOnUse">
      <feOffset dy="3" input="SourceAlpha"/>
      <feGaussianBlur stdDeviation="3" result="blur"/>
      <feFlood flood-opacity="0.161"/>
      <feComposite operator="in" in2="blur"/>
      <feComposite in="SourceGraphic"/>
    </filter>
    <clipPath id="clip-path">
      <rect id="Rectángulo_45014" data-name="Rectángulo 45014" width="64" height="64" fill="#6836bf"/>
    </clipPath>
  </defs>
  <g id="Grupo_137445" data-name="Grupo 137445" transform="translate(-539 -6312)">
    <g transform="matrix(1, 0, 0, 1, 539, 6312)" filter="url(#Rectángulo_43780)">
      <path id="Rectángulo_43780-2" data-name="Rectángulo 43780" d="M10,0H80A10,10,0,0,1,90,10V90a0,0,0,0,1,0,0H10A10,10,0,0,1,0,80V10A10,10,0,0,1,10,0Z" transform="translate(9 6)" fill="#f6f6f6"/>
    </g>
    <g id="Grupo_137435" data-name="Grupo 137435" transform="translate(561 6331)">
      <g id="Grupo_137434" data-name="Grupo 137434" clip-path="url(#clip-path)">
        <path id="Trazado_195735" data-name="Trazado 195735" d="M17.883,36H28a1,1,0,0,0,0-2H17.883a8.919,8.919,0,0,1-2.5-17.469,1,1,0,0,0,.716-1.015c0-.088-.016-.173-.039-.349a6.079,6.079,0,0,1,6.058-6.084,5.939,5.939,0,0,1,2.856.755,1,1,0,0,0,1.432-.582,10.291,10.291,0,0,1,20.124,3.077,10.409,10.409,0,0,1-.351,2.634,1,1,0,0,0,.864,1.249A8.918,8.918,0,0,1,46.117,34H36a1,1,0,0,0,0,2H46.117a10.921,10.921,0,0,0,2.231-21.6,12.012,12.012,0,0,0,.181-2.063A12.291,12.291,0,0,0,24.879,7.6a7.732,7.732,0,0,0-2.762-.514,8.079,8.079,0,0,0-8.052,7.782A10.919,10.919,0,0,0,17.883,36" fill="#6836bf"/>
        <path id="Trazado_195736" data-name="Trazado 195736" d="M28,53a4,4,0,1,0,4-4,4,4,0,0,0-4,4m6,0a2,2,0,1,1-2-2,2,2,0,0,1,2,2" fill="#6836bf"/>
        <path id="Trazado_195737" data-name="Trazado 195737" d="M5,53a4,4,0,1,0,4-4,4,4,0,0,0-4,4m6,0a2,2,0,1,1-2-2,2,2,0,0,1,2,2" fill="#6836bf"/>
        <path id="Trazado_195738" data-name="Trazado 195738" d="M55,57a4,4,0,1,0-4-4,4,4,0,0,0,4,4m0-6a2,2,0,1,1-2,2,2,2,0,0,1,2-2" fill="#6836bf"/>
        <path id="Trazado_195739" data-name="Trazado 195739" d="M64,55a9.011,9.011,0,0,0-8-8.941V43a3,3,0,0,0-3-3H33V31h6a1,1,0,0,0,1-1V19a1.1,1.1,0,0,0-.292-.707l-5-5A1.128,1.128,0,0,0,34,13H25a1,1,0,0,0-1,1V30a1,1,0,0,0,1,1h6v9H11a3,3,0,0,0-3,3v3.059a9,9,0,1,0,2,0V43a1,1,0,0,1,1-1H31v4.059a9,9,0,1,0,2,0V42H53a1,1,0,0,1,1,1v3.059A9,9,0,1,0,64,55M36.585,18H35V16.414ZM26,15h7v4a1,1,0,0,0,1,1h4v9H26ZM4.817,60.6A14.4,14.4,0,0,1,9,60a14.4,14.4,0,0,1,4.184.6,6.947,6.947,0,0,1-8.367,0M16,55a6.948,6.948,0,0,1-1.285,4.028A15.85,15.85,0,0,0,9,58a15.849,15.849,0,0,0-5.714,1.028A7,7,0,1,1,16,55m11.817,5.6a14.905,14.905,0,0,1,8.366,0,6.945,6.945,0,0,1-8.366,0M39,55a6.955,6.955,0,0,1-1.285,4.028,16.4,16.4,0,0,0-11.429,0A7,7,0,1,1,39,55m16-7a6.989,6.989,0,0,1,5.715,11.028,16.4,16.4,0,0,0-11.43,0A6.989,6.989,0,0,1,55,48M50.817,60.6a14.905,14.905,0,0,1,8.366,0,6.945,6.945,0,0,1-8.366,0" fill="#6836bf"/>
        <path id="Trazado_195740" data-name="Trazado 195740" d="M28,19h3a1,1,0,0,0,0-2H28a1,1,0,0,0,0,2" fill="#6836bf"/>
        <path id="Trazado_195741" data-name="Trazado 195741" d="M28,23h8a1,1,0,0,0,0-2H28a1,1,0,0,0,0,2" fill="#6836bf"/>
        <path id="Trazado_195742" data-name="Trazado 195742" d="M37,26a1,1,0,0,0-1-1H28a1,1,0,0,0,0,2h8a1,1,0,0,0,1-1" fill="#6836bf"/>
      </g>
    </g>
  </g>
</svg>
