<svg xmlns="http://www.w3.org/2000/svg" xmlns:xlink="http://www.w3.org/1999/xlink" width="120" height="120" viewBox="0 0 120 120">
  <defs>
    <clipPath id="clip-path">
      <rect id="Rectángulo_45007" data-name="Rectángulo 45007" width="66.418" height="65.099" fill="rgba(0,0,0,0)" stroke="rgba(0,0,0,0)" stroke-width="2"/>
    </clipPath>
  </defs>
  <g id="Grupo_137409" data-name="Grupo 137409" transform="translate(-382 -2225)">
    <g id="Grupo_136727" data-name="Grupo 136727" transform="translate(-796 1324)">
      <circle id="Elipse_5412" data-name="Elipse 5412" cx="60" cy="60" r="60" transform="translate(1178 901)" fill="#b13e8d"/>
    </g>
    <g id="Grupo_137396" data-name="Grupo 137396" transform="translate(409 2252)">
      <g id="Grupo_137395" data-name="Grupo 137395" transform="translate(0 0)" clip-path="url(#clip-path)">
        <path id="Trazado_195688" data-name="Trazado 195688" d="M56.144.5H10.128A9.628,9.628,0,0,0,.5,10.128v35.34A9.628,9.628,0,0,0,10.128,55.1H25.29l-1.554,6.687a2.173,2.173,0,0,0,3.305,2.309l13.754-9H56.144a9.628,9.628,0,0,0,9.628-9.628V10.128A9.628,9.628,0,0,0,56.144.5Z" transform="translate(0.073 0.073)" fill="rgba(0,0,0,0)"/>
        <path id="Trazado_195688_-_Contorno" data-name="Trazado 195688 - Contorno" d="M10.128-.5H56.144A10.628,10.628,0,0,1,66.772,10.128v35.34A10.64,10.64,0,0,1,56.144,56.1H41.093l-13.5,8.833a3.16,3.16,0,0,1-1.731.524,3.226,3.226,0,0,1-2.5-1.217,3.14,3.14,0,0,1-.594-2.679L24.031,56.1h-13.9A10.64,10.64,0,0,1-.5,45.468V10.128A10.628,10.628,0,0,1,10.128-.5ZM56.144,54.1a8.638,8.638,0,0,0,8.628-8.628V10.128A8.638,8.638,0,0,0,56.144,1.5H10.128A8.638,8.638,0,0,0,1.5,10.128v35.34A8.638,8.638,0,0,0,10.128,54.1H26.549L24.71,62.009a1.119,1.119,0,0,0,.212.983,1.21,1.21,0,0,0,.935.462,1.151,1.151,0,0,0,.637-.2l14-9.16Z" transform="translate(0.073 0.073)" fill="#fff"/>
        <path id="Trazado_195689" data-name="Trazado 195689" d="M20.318,16.283a4.184,4.184,0,0,1-1.483-6.3c1.921-2.457,5.353-5,11.283-4.944,7.571.072,14.286,5.084,14.217,12.2-.048,4.946-3.762,7.938-8.626,9.96-1.724.74-1.788,2.153-1.8,3.819a2.826,2.826,0,0,1-2.854,2.8l-2.675-.025a2.827,2.827,0,0,1-2.8-2.855l.025-2.675c.022-2.22.141-4.035,2.426-5.477,3.1-1.938,5.976-2.062,6.01-5.645a4.02,4.02,0,0,0-4.048-4.177,5.55,5.55,0,0,0-4.518,2.165,4.219,4.219,0,0,1-5.155,1.16m15.09,26.2a5.779,5.779,0,1,1-5.747-5.861,5.762,5.762,0,0,1,5.747,5.861" transform="translate(2.624 0.735)" fill="#fff"/>
        <path id="Trazado_195689_-_Contorno" data-name="Trazado 195689 - Contorno" d="M29.606,49.183h-.068a6.786,6.786,0,0,1-4.688-11.6,6.691,6.691,0,0,1,4.82-1.962,6.775,6.775,0,0,1,6.738,6.87,6.693,6.693,0,0,1-2.01,4.737A6.787,6.787,0,0,1,29.606,49.183Zm0-11.559a4.779,4.779,0,0,0-.045,9.558h.048a4.779,4.779,0,1,0,.044-9.558Zm1.475-2.812h-.037l-2.675-.025a3.831,3.831,0,0,1-3.789-3.865l.025-2.674a10.409,10.409,0,0,1,.42-3.35,5.662,5.662,0,0,1,2.472-2.963,24.385,24.385,0,0,1,2.436-1.3c2.141-1.031,3.089-1.569,3.107-3.512a3.15,3.15,0,0,0-.874-2.276,3.081,3.081,0,0,0-2.184-.892h-.056a4.54,4.54,0,0,0-3.674,1.793,5.236,5.236,0,0,1-4.087,1.965,5.12,5.12,0,0,1-2.29-.537A5.209,5.209,0,0,1,17.1,13.651a5.1,5.1,0,0,1,.951-4.288c1.921-2.458,5.581-5.392,12.08-5.328a17.906,17.906,0,0,1,5.745.992,15.8,15.8,0,0,1,4.854,2.694,12.054,12.054,0,0,1,4.608,9.523A9.665,9.665,0,0,1,42.551,24,18.575,18.575,0,0,1,36.1,28.116c-1.07.461-1.177,1.165-1.194,2.908A3.838,3.838,0,0,1,31.078,34.813ZM29.925,11.957H30a5.068,5.068,0,0,1,3.586,1.485,5.134,5.134,0,0,1,1.452,3.7,4.747,4.747,0,0,1-1.368,3.524A10.43,10.43,0,0,1,30.8,22.44a22.442,22.442,0,0,0-2.24,1.188c-1.83,1.155-1.936,2.515-1.957,4.639l-.025,2.675a1.829,1.829,0,0,0,1.809,1.845l2.692.025A1.832,1.832,0,0,0,32.9,31a7.85,7.85,0,0,1,.32-2.583,3.572,3.572,0,0,1,2.089-2.145l.011,0c5.427-2.257,7.972-5.132,8.01-9.047a10.091,10.091,0,0,0-3.879-7.959,15.138,15.138,0,0,0-9.348-3.231h-.19c-4.466,0-7.929,1.535-10.3,4.561a3.1,3.1,0,0,0-.577,2.613,3.217,3.217,0,0,0,1.715,2.179,3.136,3.136,0,0,0,1.4.329,3.245,3.245,0,0,0,2.531-1.221A6.537,6.537,0,0,1,29.925,11.957Z" transform="translate(2.624 0.735)" fill="rgba(0,0,0,0)"/>
      </g>
    </g>
  </g>
</svg>
