<svg xmlns="http://www.w3.org/2000/svg" xmlns:xlink="http://www.w3.org/1999/xlink" width="1328" height="658" viewBox="0 0 1328 658">
  <defs>
    <clipPath id="clip-path">
      <path id="Rectángulo_40612" data-name="Rectángulo 40612" d="M0,0H1328a0,0,0,0,1,0,0V638a20,20,0,0,1-20,20H20A20,20,0,0,1,0,638V0A0,0,0,0,1,0,0Z" transform="translate(136 2100)" fill="#7fc733"/>
    </clipPath>
    <linearGradient id="linear-gradient" x1="0.073" y1="0.062" x2="0.981" y2="-0.029" gradientUnits="objectBoundingBox">
      <stop offset="0" stop-color="#6836bc"/>
      <stop offset="0.256" stop-color="#6d3dc3"/>
      <stop offset="0.637" stop-color="#7e51d6"/>
      <stop offset="1" stop-color="#936bef" stop-opacity="0.506"/>
    </linearGradient>
    <linearGradient id="linear-gradient-2" x1="0.666" y1="-0.309" x2="0.346" y2="1.251" gradientUnits="objectBoundingBox">
      <stop offset="0" stop-color="#ffc431"/>
      <stop offset="1" stop-color="#ff8300"/>
    </linearGradient>
    <linearGradient id="linear-gradient-4" x1="0.666" y1="-0.309" x2="0.346" y2="1.251" gradientUnits="objectBoundingBox">
      <stop offset="0" stop-color="#7fc533"/>
      <stop offset="1" stop-color="#52a333"/>
    </linearGradient>
  </defs>
  <g id="Enmascarar_grupo_119" data-name="Enmascarar grupo 119" transform="translate(-136 -2100)" opacity="0.15" clip-path="url(#clip-path)">
    <g id="Grupo_128158" data-name="Grupo 128158" transform="translate(0 -60.95)">
      <path id="Trazado_188010" data-name="Trazado 188010" d="M-8240-9490s246.887-93.2,381.8,100.761,309.462,423.527,575.507,404.616,348.841-166.766,348.841-166.766,31.007-79.134,66.208-43.933,0,311.437,0,311.437H-8258.862v-593Z" transform="translate(8376 11700)" fill="url(#linear-gradient)"/>
      <path id="Unión_14" data-name="Unión 14" d="M221.706,693.717a345.053,345.053,0,0,1-70.1-21.4,294.121,294.121,0,0,1-63.733-36.836c-20.1-15.432-36.786-32.97-49.594-52.119A180.925,180.925,0,0,1,10.593,516.1a224.545,224.545,0,0,1-3.019-63.9,188.11,188.11,0,0,1,16.339-61.006c1.015-2.19,2.115-4.416,3.373-6.81C39.1,361.934,56.2,342.625,78.129,326.985a200.587,200.587,0,0,1,33.731-19.3,229.336,229.336,0,0,1,37.273-13.069c21.776-5.627,44.525-8.2,69.571-7.867,35.991.48,71.243,6.77,108.567,13.428l.057.017,2.764.488c25.648,4.577,46.592,6.821,65.909,7.079,19.647.263,36.958-1.566,52.912-5.594a146.2,146.2,0,0,0,24.829-8.636,130.01,130.01,0,0,0,23.112-13.516A158.842,158.842,0,0,0,522.8,256.05a216.168,216.168,0,0,0,20.707-28.228c12.469-19.953,22.778-42.184,32.748-63.678l.03-.062c8.966-19.315,18.233-39.289,29.063-57.65A250.412,250.412,0,0,1,623.1,80.01,179.737,179.737,0,0,1,644.7,56.556c33.2-30.027,78.519-46.9,124.347-46.293l.584.008a197.232,197.232,0,0,1,39.9,4.9,202.369,202.369,0,0,1,40.138,13.485c28.15,12.965,49.416,31.28,61.521,52.962a88.338,88.338,0,0,1,8.251,20.228,99.209,99.209,0,0,1,3.187,20.095c.813,13.356-.642,26.927-2.062,40.042v.044c-1.944,18-3.947,36.629-.238,55.356a93.39,93.39,0,0,0,6.372,20.2A88.774,88.774,0,0,0,936.76,254.6c7.375,9.775,16.867,18.379,29.041,26.292,22.573,14.676,50.864,24.543,78.218,34.082l.053.021c14.732,5.138,29.96,10.446,43.808,16.376,15.515,6.639,27.757,13.434,37.429,20.759q3.847,2.915,7.562,6.141l233.156,3.112,1.687,122.655s10.1,137.865-183,89.858c-.064-.015-.126-.029-.187-.046l-.519-.126c-6.741-1.687-13.656-3.578-20.661-5.655a762.821,762.821,0,0,0-104.3-22.67c-.19-.029-.36-.056-.55-.083l-1.129-.167q-18.565-2.725-36.986-4.673c-.031,0-.063-.007-.093-.012-.439-.046-.906-.093-1.348-.14-.308-.034-.6-.068-.905-.1l-.354-.034c-25.105-2.6-51.184-4.361-77.95-5.244-33.551-1.1-65.57-.742-94.8.422l-.723.029c-.455.017-.923.035-1.381.055-.705.033-1.412.061-2.12.09l-.115.006q-5.407.233-10.813.509c-12.425.635-24.857,1.429-37.209,2.38-19.885,1.533-37.549,3.317-52.354,5.034q-5.681.658-11.244,1.358l-.068,0c-24.492,3.067-38.669,5.6-38.669,5.6l-.091-.01a355.022,355.022,0,0,0-51.288,15.684c-31.889,12.258-61.956,28.1-84.583,40.543-42.187,23.186-87.253,47.28-133.493,64.835a453.432,453.432,0,0,1-70.062,20.74,358.476,358.476,0,0,1-36.193,5.563,328.155,328.155,0,0,1-37.1,1.64A317.97,317.97,0,0,1,221.706,693.717Z" transform="translate(763.345 2187.618) rotate(69)" fill="#912bd7" stroke="rgba(0,0,0,0)" stroke-miterlimit="10" stroke-width="1" opacity="0.15" style="mix-blend-mode: color-burn;isolation: isolate"/>
      <path id="Unión_15" data-name="Unión 15" d="M121.018,405.942A188.28,188.28,0,0,1,81.2,393.913a160.853,160.853,0,0,1-36.062-21.147A123.341,123.341,0,0,1,17.26,342.524,105.193,105.193,0,0,1,1.994,303.217,135.44,135.44,0,0,1,.773,265.686a115.518,115.518,0,0,1,9.8-35.981c.6-1.294,1.24-2.611,1.977-4.027A99.6,99.6,0,0,1,42,191.548a117.89,117.89,0,0,1,19.391-11.606,131.769,131.769,0,0,1,21.363-7.973A145.979,145.979,0,0,1,122.5,166.8c20.525,0,40.584,3.419,61.82,7.039l.033.009,1.572.266c14.594,2.488,26.521,3.644,37.537,3.644a113.646,113.646,0,0,0,30.225-3.7,83.921,83.921,0,0,0,14.23-5.269,76.33,76.33,0,0,0,13.289-8.125,95.553,95.553,0,0,0,14.988-14.286,132.027,132.027,0,0,0,12.033-16.753c7.268-11.822,13.322-24.968,19.178-37.678l.018-.038c5.266-11.421,10.709-23.23,17.029-34.106a153.589,153.589,0,0,1,10.334-15.668,108.957,108.957,0,0,1,12.5-13.952A105.555,105.555,0,0,1,438.574,0h.334a108.247,108.247,0,0,1,22.719,2.565,110.328,110.328,0,0,1,22.789,7.61c15.955,7.4,27.941,18,34.676,30.643a51.416,51.416,0,0,1,4.547,11.822,59.277,59.277,0,0,1,1.66,11.784c.359,7.843-.578,15.828-1.49,23.548V88c-1.25,10.6-2.539,21.558-.57,32.534a54.762,54.762,0,0,0,3.477,11.818,50.6,50.6,0,0,0,5.607,9.922A61.953,61.953,0,0,0,548.68,157.5c12.76,8.447,28.82,14.024,44.348,19.416l.029.013c8.363,2.9,17.008,5.9,24.859,9.279,8.8,3.78,15.727,7.677,21.186,11.906q2.171,1.683,4.266,3.55H776.332v72.067s4.678,80.94-105.084,54.244l-.105-.026-.295-.07c-3.832-.938-7.762-2-11.74-3.161a417.087,417.087,0,0,0-59.312-12.5l-.312-.044-.643-.089q-10.567-1.456-21.061-2.456l-.053-.007-.768-.071-.516-.05-.2-.019c-14.3-1.334-29.16-2.162-44.42-2.47-19.129-.383-37.4.077-54.078.991l-.412.022c-.26.014-.527.028-.787.044l-1.211.069-.066,0q-3.085.179-6.172.384c-7.092.47-14.189,1.034-21.242,1.689-11.354,1.058-21.443,2.245-29.9,3.37q-3.243.431-6.424.887l-.039,0c-13.994,1.994-22.1,3.6-22.1,3.6l-.053,0a202.79,202.79,0,0,0-29.377,9.619c-18.285,7.453-35.559,17-48.562,24.489-24.246,13.956-50.139,28.47-76.652,39.148a258.767,258.767,0,0,1-40.125,12.739,201.936,201.936,0,0,1-20.687,3.554,182.5,182.5,0,0,1-21.174,1.254A174.774,174.774,0,0,1,121.018,405.942Z" transform="translate(1068.919 2622.698) rotate(-2)" fill="#912bd7" stroke="rgba(0,0,0,0)" stroke-miterlimit="10" stroke-width="1" opacity="0.15" style="mix-blend-mode: color-burn;isolation: isolate"/>
      <circle id="Elipse_4785" data-name="Elipse 4785" cx="84.426" cy="84.426" r="84.426" transform="translate(229.698 2718.341) rotate(75)" fill="url(#linear-gradient-2)"/>
      <circle id="Elipse_4786" data-name="Elipse 4786" cx="27.926" cy="27.926" r="27.926" transform="translate(337.247 2743.594) rotate(75)" fill="url(#linear-gradient-2)"/>
      <circle id="Elipse_4787" data-name="Elipse 4787" cx="62.34" cy="62.34" r="62.34" transform="translate(1381.062 2766.016) rotate(-80.839)" fill="url(#linear-gradient-4)"/>
    </g>
  </g>
</svg>
