<svg xmlns="http://www.w3.org/2000/svg" xmlns:xlink="http://www.w3.org/1999/xlink" width="400" height="475" viewBox="0 0 400 475">
  <defs>
    <clipPath id="clip-path">
      <rect id="Rectángulo_44897" data-name="Rectángulo 44897" width="373.464" height="421.882" fill="none"/>
    </clipPath>
    <clipPath id="clip-path-2">
      <path id="Trazado_195485" data-name="Trazado 195485" d="M281.96,188.231a42.032,42.032,0,0,0,19.073,35.226V243.2h46.01V223.458a42.076,42.076,0,1,0-65.083-35.227" transform="translate(-281.96 -146.153)" fill="#f7ca2e"/>
    </clipPath>
    <clipPath id="clip-path-4">
      <path id="Trazado_195491" data-name="Trazado 195491" d="M31.832,780.034a25.96,25.96,0,1,0,0,51.92H140.169v-51.92Z" transform="translate(-5.872 -780.034)" fill="#eff2f3"/>
    </clipPath>
    <clipPath id="clip-path-5">
      <path id="Trazado_195492" data-name="Trazado 195492" d="M274.163,780.025a70.2,70.2,0,0,0,0,51.931H476.482a70.2,70.2,0,0,1,0-51.931Z" transform="translate(-269.185 -780.025)" fill="#dfdbec"/>
    </clipPath>
    <clipPath id="clip-path-7">
      <path id="Trazado_195494" data-name="Trazado 195494" d="M91.978,616.774a35.182,35.182,0,1,0,0,70.365H201.586V616.774Z" transform="translate(-56.796 -616.774)" fill="#eff2f3"/>
    </clipPath>
    <clipPath id="clip-path-8">
      <path id="Trazado_195495" data-name="Trazado 195495" d="M283.825,616.761a95.138,95.138,0,0,0,0,70.379h171a95.132,95.132,0,0,1,0-70.379Z" transform="translate(-277.078 -616.761)" fill="#dfdbec"/>
    </clipPath>
    <clipPath id="clip-path-10">
      <path id="Trazado_195497" data-name="Trazado 195497" d="M185.324,681.336v30.4l15.819-7.02,15.82,7.02v-30.4Z" transform="translate(-185.324 -681.336)" fill="none"/>
    </clipPath>
    <clipPath id="clip-path-11">
      <path id="Trazado_195498" data-name="Trazado 195498" d="M118.019,491.283a25.96,25.96,0,1,0,0,51.92H226.356v-51.92Z" transform="translate(-92.059 -491.283)" fill="#f7f4ff"/>
    </clipPath>
    <clipPath id="clip-path-12">
      <path id="Trazado_195499" data-name="Trazado 195499" d="M360.35,491.273a70.2,70.2,0,0,0,0,51.931H481.537a70.2,70.2,0,0,1,0-51.931Z" transform="translate(-355.372 -491.273)" fill="#e5dcf8"/>
    </clipPath>
    <clipPath id="clip-path-14">
      <rect id="Rectángulo_44869" data-name="Rectángulo 44869" width="59.906" height="16.969" fill="none"/>
    </clipPath>
    <clipPath id="clip-path-15">
      <rect id="Rectángulo_44870" data-name="Rectángulo 44870" width="95.072" height="28.088" fill="none"/>
    </clipPath>
    <clipPath id="clip-path-16">
      <rect id="Rectángulo_44871" data-name="Rectángulo 44871" width="50.26" height="12.244" fill="none"/>
    </clipPath>
    <clipPath id="clip-path-17">
      <rect id="Rectángulo_44872" data-name="Rectángulo 44872" width="3.593" height="6.099" fill="none"/>
    </clipPath>
    <clipPath id="clip-path-18">
      <rect id="Rectángulo_44875" data-name="Rectángulo 44875" width="30.25" height="61.298" fill="none"/>
    </clipPath>
    <clipPath id="clip-path-19">
      <rect id="Rectángulo_44873" data-name="Rectángulo 44873" width="0.384" height="2.213" fill="none"/>
    </clipPath>
    <clipPath id="clip-path-20">
      <rect id="Rectángulo_44874" data-name="Rectángulo 44874" width="30.065" height="59.085" fill="none"/>
    </clipPath>
    <clipPath id="clip-path-21">
      <rect id="Rectángulo_44876" data-name="Rectángulo 44876" width="39.593" height="42.036" fill="none"/>
    </clipPath>
    <clipPath id="clip-path-22">
      <rect id="Rectángulo_44878" data-name="Rectángulo 44878" width="19.476" height="53.489" fill="none"/>
    </clipPath>
    <clipPath id="clip-path-24">
      <path id="Rectángulo_44882" data-name="Rectángulo 44882" d="M11.59,0h.188A11.591,11.591,0,0,1,23.369,11.591v.187A11.591,11.591,0,0,1,11.778,23.369H11.59A11.59,11.59,0,0,1,0,11.779V11.59A11.59,11.59,0,0,1,11.59,0Z" fill="#6836bf"/>
    </clipPath>
    <clipPath id="clip-path-26">
      <path id="Rectángulo_44885" data-name="Rectángulo 44885" d="M16.41,0h.265A16.409,16.409,0,0,1,33.084,16.409v.266A16.409,16.409,0,0,1,16.675,33.084h-.267A16.408,16.408,0,0,1,0,16.676V16.41A16.41,16.41,0,0,1,16.41,0Z" fill="#f7ca2e"/>
    </clipPath>
    <clipPath id="clip-path-28">
      <path id="Rectángulo_44888" data-name="Rectángulo 44888" d="M16.409,0h.266A16.409,16.409,0,0,1,33.084,16.409v.265a16.41,16.41,0,0,1-16.41,16.41h-.265A16.409,16.409,0,0,1,0,16.675v-.266A16.409,16.409,0,0,1,16.409,0Z" fill="#efca2e"/>
    </clipPath>
    <clipPath id="clip-path-30">
      <path id="Rectángulo_44891" data-name="Rectángulo 44891" d="M14.383,0h.233A14.382,14.382,0,0,1,29,14.382v.233A14.383,14.383,0,0,1,14.615,29h-.232A14.383,14.383,0,0,1,0,14.615v-.232A14.383,14.383,0,0,1,14.383,0Z" fill="#6836bf"/>
    </clipPath>
    <clipPath id="clip-path-32">
      <rect id="Rectángulo_44895" data-name="Rectángulo 44895" width="22.866" height="22.866" rx="11.341" fill="#7fc733"/>
    </clipPath>
    <clipPath id="clip-path-33">
      <rect id="Rectángulo_44896" data-name="Rectángulo 44896" width="373.464" height="421.882" transform="translate(-1)" fill="none"/>
    </clipPath>
  </defs>
  <g id="Grupo_137599" data-name="Grupo 137599" transform="translate(-180 -773)">
    <rect id="Rectángulo_43594" data-name="Rectángulo 43594" width="400" height="475" transform="translate(180 773)" fill="#f3f9ff"/>
    <g id="Grupo_137171" data-name="Grupo 137171" transform="translate(196.268 798.559)">
      <g id="Grupo_137170" data-name="Grupo 137170" clip-path="url(#clip-path)">
        <g id="Grupo_137097" data-name="Grupo 137097" transform="translate(132.712 68.791)">
          <g id="Grupo_137096" data-name="Grupo 137096" clip-path="url(#clip-path-2)">
            <rect id="Rectángulo_44852" data-name="Rectángulo 44852" width="84.157" height="97.046" transform="translate(0 0)" fill="#f7ca2e"/>
          </g>
        </g>
        <g id="Grupo_137099" data-name="Grupo 137099">
          <g id="Grupo_137098" data-name="Grupo 137098" clip-path="url(#clip-path)">
            <path id="Trazado_195486" data-name="Trazado 195486" d="M368.122,337.072l-15.3,12.795H330.05l-13.9-12.795v-20.1h51.974Z" transform="translate(-167.345 -167.78)" fill="#3a3c4e"/>
            <path id="Trazado_195487" data-name="Trazado 195487" d="M367.47,324.728H311.6a.256.256,0,0,1-.256-.256v-3.346a.256.256,0,0,1,.256-.255H367.47a.256.256,0,0,1,.256.255v3.346a.256.256,0,0,1-.256.256" transform="translate(-164.802 -169.845)" fill="#4d5068"/>
            <path id="Trazado_195488" data-name="Trazado 195488" d="M367.47,338.413H311.6a.256.256,0,0,1-.255-.256v-3.346a.256.256,0,0,1,.255-.256H367.47a.256.256,0,0,1,.255.256v3.346a.256.256,0,0,1-.255.255" transform="translate(-164.802 -177.089)" fill="#4d5068"/>
            <path id="Trazado_195489" data-name="Trazado 195489" d="M367.47,352.1H311.6a.256.256,0,0,1-.255-.256V348.5a.256.256,0,0,1,.255-.256H367.47a.256.256,0,0,1,.255.256v3.346a.256.256,0,0,1-.255.256" transform="translate(-164.802 -184.332)" fill="#4d5068"/>
            <path id="Trazado_195490" data-name="Trazado 195490" d="M366.9,393.143H345.3a1,1,0,0,1-1-1v-6.556h23.608v6.556a1,1,0,0,1-1,1" transform="translate(-182.245 -204.1)" fill="#4d5068"/>
          </g>
        </g>
        <g id="Grupo_137101" data-name="Grupo 137101" transform="translate(2.764 367.143)">
          <g id="Grupo_137100" data-name="Grupo 137100" clip-path="url(#clip-path-4)">
            <rect id="Rectángulo_44854" data-name="Rectángulo 44854" width="134.297" height="51.92" fill="#eff2f3"/>
          </g>
        </g>
        <g id="Grupo_137103" data-name="Grupo 137103" transform="translate(126.699 367.138)">
          <g id="Grupo_137102" data-name="Grupo 137102" clip-path="url(#clip-path-5)">
            <rect id="Rectángulo_44855" data-name="Rectángulo 44855" width="207.769" height="53.848" transform="translate(-0.481 0.004) rotate(-0.53)" fill="#dfdbec"/>
          </g>
        </g>
        <g id="Grupo_137105" data-name="Grupo 137105">
          <g id="Grupo_137104" data-name="Grupo 137104" clip-path="url(#clip-path)">
            <rect id="Rectángulo_44856" data-name="Rectángulo 44856" width="237.315" height="5.526" transform="translate(104.689 364.38)" fill="#532b98"/>
            <rect id="Rectángulo_44857" data-name="Rectángulo 44857" width="237.315" height="5.526" transform="translate(104.689 416.3)" fill="#532b98"/>
            <path id="Trazado_195493" data-name="Trazado 195493" d="M149.542,831.611H28.724a28.723,28.723,0,1,1,0-57.446H149.542v5.526H28.724a23.2,23.2,0,1,0,0,46.394H149.542Z" transform="translate(0 -409.785)" fill="#6836bf"/>
          </g>
        </g>
        <g id="Grupo_137107" data-name="Grupo 137107" transform="translate(26.732 290.3)">
          <g id="Grupo_137106" data-name="Grupo 137106" clip-path="url(#clip-path-7)">
            <rect id="Rectángulo_44859" data-name="Rectángulo 44859" width="144.79" height="70.365" transform="translate(0 0)" fill="#eff2f3"/>
          </g>
        </g>
        <g id="Grupo_137109" data-name="Grupo 137109" transform="translate(130.414 290.294)">
          <g id="Grupo_137108" data-name="Grupo 137108" clip-path="url(#clip-path-8)">
            <rect id="Rectángulo_44860" data-name="Rectángulo 44860" width="178.394" height="72.021" transform="matrix(1, -0.009, 0.009, 1, -0.652, 0.006)" fill="#dfdbec"/>
          </g>
        </g>
        <g id="Grupo_137111" data-name="Grupo 137111">
          <g id="Grupo_137110" data-name="Grupo 137110" clip-path="url(#clip-path)">
            <path id="Trazado_195496" data-name="Trazado 195496" d="M197.373,686.674H87.767a38.927,38.927,0,1,1,0-77.853H197.373v7.489H87.767a31.438,31.438,0,1,0,0,62.875H197.373Z" transform="translate(-25.852 -322.264)" fill="#4c771e"/>
            <rect id="Rectángulo_44861" data-name="Rectángulo 44861" width="154.151" height="7.489" transform="translate(164.866 286.557)" fill="#355117"/>
            <rect id="Rectángulo_44862" data-name="Rectángulo 44862" width="154.151" height="7.489" transform="translate(164.866 356.921)" fill="#355117"/>
          </g>
        </g>
        <g id="Grupo_137113" data-name="Grupo 137113" transform="translate(87.227 320.688)">
          <g id="Grupo_137112" data-name="Grupo 137112" clip-path="url(#clip-path-10)">
            <rect id="Rectángulo_44864" data-name="Rectángulo 44864" width="31.639" height="30.404" transform="translate(0)" fill="#f7ca2e"/>
          </g>
        </g>
        <g id="Grupo_137115" data-name="Grupo 137115" transform="translate(43.33 231.235)">
          <g id="Grupo_137114" data-name="Grupo 137114" clip-path="url(#clip-path-11)">
            <rect id="Rectángulo_44865" data-name="Rectángulo 44865" width="134.297" height="51.92" transform="translate(0 0)" fill="#f7f4ff"/>
          </g>
        </g>
        <g id="Grupo_137117" data-name="Grupo 137117" transform="translate(167.265 231.23)">
          <g id="Grupo_137116" data-name="Grupo 137116" clip-path="url(#clip-path-12)">
            <rect id="Rectángulo_44866" data-name="Rectángulo 44866" width="126.64" height="53.097" transform="translate(-0.481 0.004) rotate(-0.531)" fill="#e5dcf8"/>
          </g>
        </g>
        <g id="Grupo_137149" data-name="Grupo 137149">
          <g id="Grupo_137148" data-name="Grupo 137148" clip-path="url(#clip-path)">
            <rect id="Rectángulo_44867" data-name="Rectángulo 44867" width="156.183" height="5.526" transform="translate(145.256 228.472)" fill="#6a2554"/>
            <rect id="Rectángulo_44868" data-name="Rectángulo 44868" width="156.183" height="5.526" transform="translate(145.256 280.392)" fill="#6a2554"/>
            <path id="Trazado_195500" data-name="Trazado 195500" d="M235.729,542.86H114.911a28.723,28.723,0,1,1,0-57.446H235.729v5.526H114.911a23.2,23.2,0,1,0,0,46.394H235.729Z" transform="translate(-45.621 -256.942)" fill="#b13e8d"/>
            <path id="Trazado_195501" data-name="Trazado 195501" d="M576.878,630.57,550.753,627.8l-9.9-28.468,8.069-3.18,18.283.315,11.972,2.864Z" transform="translate(-286.288 -315.556)" fill="#ffcebd"/>
            <path id="Trazado_195502" data-name="Trazado 195502" d="M595.774,819.786h-60.41V783.381l55.667-.373Z" transform="translate(-283.381 -414.465)" fill="#2f1b58"/>
            <path id="Trazado_195503" data-name="Trazado 195503" d="M560.047,597.095s11.158,2.459,14.941,3.972c0,0,12.1,1.134,15.887,17.4l9.33,42.113,19.669,21.435-7.565,5.8-25.247-17.14a7.151,7.151,0,0,1-2.911-4.143l-6.97-27.386,1.513,17.962s7.873,21.067,12.286,35.246l-62.9-3.278,1.765-31.522-6.809-30.512,4.035-26.226,12.419-4.665,1.04,2.29a14.035,14.035,0,0,0,15.274,8.126c3.928-.748,6.721-3.182,4.239-9.47" transform="translate(-276.859 -315.556)" fill="#e8e1f6"/>
            <path id="Trazado_195504" data-name="Trazado 195504" d="M485.544,811.485s-10.254-7.375-18.293-14.234c-6.1-5.2-8.658-12.672-7.711-20.627l.075-.292s3.486-9.006,8.529-9.006c0,0,31.06,8.041,53.734,30.12l38.2,12.5-70.749,9.078Z" transform="translate(-243.145 -406.164)" fill="#2b105a"/>
            <g id="Grupo_137120" data-name="Grupo 137120" transform="translate(257.026 394.496)" opacity="0.3">
              <g id="Grupo_137119" data-name="Grupo 137119">
                <g id="Grupo_137118" data-name="Grupo 137118" clip-path="url(#clip-path-14)">
                  <path id="Trazado_195505" data-name="Trazado 195505" d="M546.079,852.726v2.391l59.905-7.687-18-5.89-11.949-3.392Z" transform="translate(-546.079 -838.148)" fill="#191c3c"/>
                </g>
              </g>
            </g>
            <path id="Trazado_195506" data-name="Trazado 195506" d="M641.428,826.387s14.878,3.218,16.139,8.514c0,0,8.2,18.345-17.148,24.208h-76.66V846.5l36.49-9.835Z" transform="translate(-298.412 -437.427)" fill="#2f1b58"/>
            <g id="Grupo_137123" data-name="Grupo 137123" transform="translate(265.347 393.594)" opacity="0.3">
              <g id="Grupo_137122" data-name="Grupo 137122">
                <g id="Grupo_137121" data-name="Grupo 137121" clip-path="url(#clip-path-15)">
                  <path id="Trazado_195507" data-name="Trazado 195507" d="M657.567,840.113c-.359-1.508-2.45-3.885-4-3.88.013,1.754,1.054,3.344,1.019,5.17a10.119,10.119,0,0,1-2.722,6.4c-2.361,2.6-5.639,4.144-8.827,5.621l-5.767,2.672a30.033,30.033,0,0,1-5.42,2.1c-6.237,1.526-12.814-.4-19.109.735-3.878.7-7.814,1.023-11.738,1.349-3.074.254-37.248,2.428-37.248,1.771v2.269h76.66c25.343-5.863,17.148-24.208,17.148-24.208" transform="translate(-563.759 -836.233)" fill="#191c3c"/>
                </g>
              </g>
            </g>
            <path id="Trazado_195508" data-name="Trazado 195508" d="M512.761,863.764,507.4,859.7a8.536,8.536,0,0,0-6.107-1.682l-26.467,2.963a7.411,7.411,0,0,0-7.411,7.391v.223a7.412,7.412,0,0,0,7.411,7.43h37.936Z" transform="translate(-247.414 -454.14)" fill="#947917"/>
            <path id="Trazado_195509" data-name="Trazado 195509" d="M467.52,877.571a7.407,7.407,0,0,0,7.305,6.208h37.936V886.4H474.825a7.411,7.411,0,0,1-7.411-7.429v-.223a7.418,7.418,0,0,1,.105-1.179" transform="translate(-247.414 -464.52)" fill="#0c4da4"/>
            <path id="Trazado_195510" data-name="Trazado 195510" d="M501.292,860.375l-26.467,2.963a7.407,7.407,0,0,0-7.326,6.342,7.541,7.541,0,0,1-.086-1.088v-.223a7.411,7.411,0,0,1,7.411-7.391l26.467-2.963A8.536,8.536,0,0,1,507.4,859.7l5.361,4.067v2.36l-5.361-4.067a8.536,8.536,0,0,0-6.107-1.682" transform="translate(-247.413 -454.14)" fill="#fff"/>
            <path id="Trazado_195511" data-name="Trazado 195511" d="M569.117,811.15l48.669-12.482L634.9,814.052l-31.818,7.942Z" transform="translate(-301.248 -422.755)" fill="#f5f7f9"/>
            <path id="Trazado_195512" data-name="Trazado 195512" d="M585.621,812.143l44.809-11.6,13.208,13.722-25.848,6.452Z" transform="translate(-309.984 -423.747)" fill="#dfe2ec"/>
            <path id="Trazado_195513" data-name="Trazado 195513" d="M603.985,834.449l-34.869-9.261v.673a2.162,2.162,0,0,0,1.527,2.067l29.815,9.174a2.032,2.032,0,0,0,2.283-.807Z" transform="translate(-301.247 -436.793)" fill="#947917"/>
            <g id="Grupo_137126" data-name="Grupo 137126" transform="translate(237.506 365.458)" opacity="0.3">
              <g id="Grupo_137125" data-name="Grupo 137125">
                <g id="Grupo_137124" data-name="Grupo 137124" clip-path="url(#clip-path-16)">
                  <path id="Trazado_195514" data-name="Trazado 195514" d="M519.084,783.162a148.206,148.206,0,0,0-14.476-6.705c.144.252.285.516.436.745,7.987,12.1,47.361,11.493,47.361,11.493l2.463-5.392-3.269-3.39H519.084Z" transform="translate(-504.608 -776.457)" fill="#191c3c"/>
                </g>
              </g>
            </g>
            <path id="Trazado_195515" data-name="Trazado 195515" d="M580.827,595.833l-14.956-3.278V580.477h14.956Z" transform="translate(-299.53 -307.261)" fill="#ffcebd"/>
            <path id="Trazado_195516" data-name="Trazado 195516" d="M597.516,516.564q-.012-.231-.028-.464a34.135,34.135,0,0,0-.659-4.346c-.2-1-.277-3.427-.973-4.164-.66-.7-3.017-.776-3.929-.892a23.157,23.157,0,0,0-4.521-.135,43.566,43.566,0,0,0-6.8,1.172c-2.083.48-4.163.979-6.207,1.6a27.056,27.056,0,0,0-9.9,5.026,13.814,13.814,0,0,0-5.055,9.623c-.13,3.288-1.834,7.79-1.5,9.239.5,2.124,2.52,7.278,3.706,8.1,1.043.722,7.883.053,8.785.907a31.582,31.582,0,0,0,6.844,4.5c2.973,1.614,5.971,2.993,8.631.256a38.494,38.494,0,0,0,9.434-17.479c1.1-4.253,2.395-8.5,2.169-12.945" transform="translate(-295.312 -268.108)" fill="#ffcebd"/>
            <g id="Grupo_137129" data-name="Grupo 137129" transform="translate(277.704 276.143)" opacity="0.4">
              <g id="Grupo_137128" data-name="Grupo 137128">
                <g id="Grupo_137127" data-name="Grupo 137127" clip-path="url(#clip-path-17)">
                  <path id="Trazado_195517" data-name="Trazado 195517" d="M593.605,588.81l-3.593-2.114,3.593,6.1Z" transform="translate(-590.013 -586.695)" fill="#a58877"/>
                </g>
              </g>
            </g>
            <g id="Grupo_137138" data-name="Grupo 137138" transform="translate(247.914 313.606)" opacity="0.49">
              <g id="Grupo_137137" data-name="Grupo 137137">
                <g id="Grupo_137136" data-name="Grupo 137136" clip-path="url(#clip-path-18)">
                  <g id="Grupo_137132" data-name="Grupo 137132" opacity="0.3">
                    <g id="Grupo_137131" data-name="Grupo 137131">
                      <g id="Grupo_137130" data-name="Grupo 137130" clip-path="url(#clip-path-19)">
                        <path id="Trazado_195518" data-name="Trazado 195518" d="M527,666.289a2.083,2.083,0,0,0,.1,2.213c.079-.737-.561-1.51-.1-2.213" transform="translate(-526.72 -666.289)" fill="#6c98e3"/>
                      </g>
                    </g>
                  </g>
                  <g id="Grupo_137135" data-name="Grupo 137135" transform="translate(0.185 2.213)" opacity="0.3">
                    <g id="Grupo_137134" data-name="Grupo 137134">
                      <g id="Grupo_137133" data-name="Grupo 137133" clip-path="url(#clip-path-20)">
                        <path id="Trazado_195519" data-name="Trazado 195519" d="M555.84,730.076c1.527-2.326,1.582-5.464.98-8.239a13.62,13.62,0,0,0-4.29-7.747c-2.111-1.737-4.834-2.512-7.225-3.837s-4.636-3.623-4.469-6.352c.09-1.464.871-2.939.416-4.334-.515-1.578-2.312-2.248-3.7-3.154-2.542-1.653-3.427-4.413-4.552-7.036a44.86,44.86,0,0,1-3.036-10.154,28.157,28.157,0,0,0-1.188-5.794c-.3-.727-1.019-1.573-1.467-2.439a1.008,1.008,0,0,1-.136.434s-.023,1.566-.056,3.818L532,697.168l-1.766,31.522Z" transform="translate(-527.112 -670.991)" fill="#6c98e3"/>
                      </g>
                    </g>
                  </g>
                </g>
              </g>
            </g>
            <path id="Trazado_195520" data-name="Trazado 195520" d="M605.455,783.8l12.245,2.858a3.55,3.55,0,0,1,1.315.61l6.151,4.578a6.617,6.617,0,0,1,2.173,2.8l1.939,3.325.883,6.442a1.764,1.764,0,0,1-2.863-1.226l-.29-3.439c-.531-1.087-3.16-3.719-4.35-3.94l-3.419-.738,2.8,4.741a1.845,1.845,0,0,1-1.508,2.783l-6.856-8.3-12.009-4.823Z" transform="translate(-318.476 -414.885)" fill="#ffcebd"/>
            <path id="Trazado_195521" data-name="Trazado 195521" d="M517.562,600.967s-15.041,5.668-16.974,6.685c-.706.371-6.809,2.521-7.061,9.583s-2.611,51.947,5.377,64.051S546.484,694.9,546.484,694.9l4.287-8.574-37.88-16.637-4.232-39.345Z" transform="translate(-260.963 -318.107)" fill="#e1e0eb"/>
            <path id="Trazado_195522" data-name="Trazado 195522" d="M647.144,810.871l-.513-5.065,2.527-.256.769,7.592a2.54,2.54,0,0,1-2.783-2.271" transform="translate(-342.278 -426.398)" fill="#ffcebd"/>
            <path id="Trazado_195523" data-name="Trazado 195523" d="M641.349,794.77l17.705-31.1a.481.481,0,0,1,.289-.225L712.3,749.1a.482.482,0,0,1,.539.717l-22.094,33.322a.484.484,0,0,1-.293.214l-48.567,12.123a.482.482,0,0,1-.535-.706" transform="translate(-339.448 -396.507)" fill="#f7ca2e"/>
            <path id="Trazado_195524" data-name="Trazado 195524" d="M754.274,800.4l-6.108-2.041a1.964,1.964,0,0,1,1.244-3.726l6.108,2.041a1.964,1.964,0,0,1-1.245,3.726" transform="translate(-395.313 -420.564)" fill="#ffcebd"/>
            <path id="Trazado_195525" data-name="Trazado 195525" d="M751.8,806.722l-7.037-2.351a1.964,1.964,0,0,1,1.244-3.726L753.048,803a1.964,1.964,0,1,1-1.245,3.726" transform="translate(-393.513 -423.747)" fill="#ffcebd"/>
            <path id="Trazado_195526" data-name="Trazado 195526" d="M750.372,813.449l-5.607-1.873a1.964,1.964,0,0,1,1.245-3.726l5.607,1.873a1.964,1.964,0,1,1-1.245,3.726" transform="translate(-393.513 -427.561)" fill="#ffcebd"/>
            <path id="Trazado_195527" data-name="Trazado 195527" d="M748.756,818.388l-3.512-1.173a1.964,1.964,0,1,1,1.245-3.726L750,814.662a1.964,1.964,0,0,1-1.245,3.726" transform="translate(-393.766 -430.546)" fill="#ffcebd"/>
            <path id="Trazado_195528" data-name="Trazado 195528" d="M718.534,796.134c-.929,2.17-3,3.924-4.635,3.919s-2.2-1.767-1.274-3.938,3-3.924,4.635-3.919,2.2,1.768,1.274,3.937" transform="translate(-376.974 -419.33)" fill="#947917"/>
            <g id="Grupo_137141" data-name="Grupo 137141" transform="translate(262.636 238.402)" opacity="0.2">
              <g id="Grupo_137140" data-name="Grupo 137140">
                <g id="Grupo_137139" data-name="Grupo 137139" clip-path="url(#clip-path-21)">
                  <path id="Trazado_195529" data-name="Trazado 195529" d="M559.331,525.593c.057-.386.1-.766.132-1.134.014-.166.026-.325.032-.472a11.091,11.091,0,0,1,.279-2.062q.078-.337.176-.67a12.52,12.52,0,0,1,.465-1.308,15.108,15.108,0,0,1,3.615-5.115q.256-.24.521-.468a27.06,27.06,0,0,1,9.9-5.025c1.533-.468,3.087-.866,4.646-1.238q.779-.186,1.561-.365c1.4-.323,2.811-.64,4.231-.869.852-.137,1.708-.244,2.57-.3q.565-.039,1.132-.049,1.132-.021,2.263.068.565.044,1.126.117c.114.015.251.029.4.043,1.071.1,2.948.238,3.525.849a2.147,2.147,0,0,1,.417.82c.054.174.1.361.143.557q.031.147.059.3c.166.911.24,1.925.354,2.488q.109.538.211,1.079c.067.36.131.722.188,1.083.115.724.207,1.452.259,2.183q.017.233.028.464.021.414.025.825c-3.148,1.461-6.92,1.052-10.223-.089a12.212,12.212,0,0,0-3.12-.847c-5.887-.391-8.019,7.055-7.121,11.474.059.29.124.585.179.88a10.352,10.352,0,0,1,.625,3.755,6.751,6.751,0,0,0,1.157,4.051c2.469,2.969,5.621-1.322,8.252-1.573a6.621,6.621,0,0,1,4.891,1.556,5.594,5.594,0,0,1,.481.472,35.612,35.612,0,0,1-6.749,9.921c-2.66,2.737-5.658,1.357-8.631-.256-1.432-.778-2.895-1.568-4.266-2.481a5.314,5.314,0,0,0-2.638-2.185,3.36,3.36,0,0,0-.793-.141,17.525,17.525,0,0,0-2.32-.174c-.338-1.2.772-2.7,2.043-3.271,1.508-.683,3.335-.855,4.459-2.071,1.27-1.374,1.095-3.429.654-5.315a15.756,15.756,0,0,0-.762-2.6c-.837-1.368-3.036-1.15-4.189-.035-3.011,2.912-2.807,8.387-5.337,11.6a2.794,2.794,0,0,1-2.411,1.3.752.752,0,0,1-.07-.039c-1.186-.821-3.21-5.975-3.705-8.1.358-2.393,1.021-5.434,1.332-7.633" transform="translate(-557.999 -506.51)" fill="#a58877"/>
                </g>
              </g>
            </g>
            <path id="Trazado_195530" data-name="Trazado 195530" d="M580.167,505.69a16.67,16.67,0,0,0-3.395.218,15.72,15.72,0,0,0-5.634,2.5c-4.3,2.83-6.945,6.867-9.2,11.4a10.269,10.269,0,0,1-1.8,2.85,4.5,4.5,0,0,1-3.055,1.334c-1.61-.071-1.329-.236-1.482-1.75-.294-2.895-.138-5.911-.206-8.821a25.476,25.476,0,0,1,1.966-10.5,26.757,26.757,0,0,1,3.493-6.335,12.861,12.861,0,0,1,5.713-4.315,20.357,20.357,0,0,1,7.616-.647c5.782.241,11.545.643,17.322.84,2.316.079,4.642-.409,6.813.743a7.15,7.15,0,0,1,3.43,4.895,7.6,7.6,0,0,1-.378,4.542,5.7,5.7,0,0,1-3.233,3.132,7.571,7.571,0,0,1-4.152.043,8.07,8.07,0,0,0-3.286-.093,58.108,58.108,0,0,1-8.64.017c-.627-.017-1.257-.042-1.885-.053" transform="translate(-293.978 -260.192)" fill="#20123d"/>
            <g id="Grupo_137147" data-name="Grupo 137147" transform="translate(294.646 323.307)" opacity="0.5">
              <g id="Grupo_137146" data-name="Grupo 137146">
                <g id="Grupo_137145" data-name="Grupo 137145" clip-path="url(#clip-path-22)">
                  <g id="Grupo_137144" data-name="Grupo 137144" opacity="0.3">
                    <g id="Grupo_137143" data-name="Grupo 137143">
                      <g id="Grupo_137142" data-name="Grupo 137142" clip-path="url(#clip-path-22)">
                        <path id="Trazado_195531" data-name="Trazado 195531" d="M628.179,722.62c-.034-4.112,1.261-8.135,1.384-12.245a29.765,29.765,0,0,0-2.129-11.2,16.882,16.882,0,0,1-1.421-5.148,7.364,7.364,0,0,1,5.146-7.132c.236,1.635.545,3.258.913,4.869l1.127,13.374s7.872,21.066,12.286,35.246l-15.392-.8c.666-5.412-1.866-11.289-1.913-16.967" transform="translate(-626.008 -686.9)" fill="#6c98e3"/>
                      </g>
                    </g>
                  </g>
                </g>
              </g>
            </g>
            <rect id="Rectángulo_44879" data-name="Rectángulo 44879" width="33.927" height="33.927" rx="16.827" transform="translate(32.593 104.89)" fill="#e8ca2e"/>
            <path id="Trazado_195532" data-name="Trazado 195532" d="M103.908,250.8l-12.064,6.966a1,1,0,0,1-1.507-.87V242.96a1,1,0,0,1,1.507-.87l12.064,6.965a1,1,0,0,1,0,1.741l-12.064,6.966a1,1,0,0,1-1.507-.87V242.96a1,1,0,0,1,1.507-.87l12.064,6.965a1,1,0,0,1,0,1.741" transform="translate(-47.818 -128.072)" fill="#f7fcf3"/>
          </g>
        </g>
        <g id="Grupo_137151" data-name="Grupo 137151" transform="translate(86.742 130.998)">
          <g id="Grupo_137150" data-name="Grupo 137150" clip-path="url(#clip-path-24)">
            <rect id="Rectángulo_44881" data-name="Rectángulo 44881" width="33.031" height="33.031" transform="translate(-11.66 12.437) rotate(-46.848)" fill="#6836bf"/>
          </g>
        </g>
        <g id="Grupo_137153" data-name="Grupo 137153">
          <g id="Grupo_137152" data-name="Grupo 137152" clip-path="url(#clip-path)">
            <path id="Trazado_195533" data-name="Trazado 195533" d="M206.394,297.551h1.4a.5.5,0,0,0,.512-.483v-1.681a.5.5,0,0,0-.513-.482H206.7a.428.428,0,0,1-.4-.27q-.059-.145-.126-.285a.388.388,0,0,1,.081-.458l.773-.73a.464.464,0,0,0,0-.683l-1.261-1.188a.534.534,0,0,0-.724,0l-.779.735a.441.441,0,0,1-.466.084c-.111-.045-.231-.09-.335-.128a.4.4,0,0,1-.268-.371v-1.042a.5.5,0,0,0-.512-.483h-1.782a.5.5,0,0,0-.513.483V291.6a.409.409,0,0,1-.286.377c-.107.038-.212.08-.317.125a.451.451,0,0,1-.487-.074l-.776-.728a.534.534,0,0,0-.724,0l-1.257,1.192a.464.464,0,0,0,0,.683l.782.733a.382.382,0,0,1,.091.44c-.048.1-.1.218-.135.316a.422.422,0,0,1-.393.254l-1.105,0a.5.5,0,0,0-.511.484l0,1.681a.5.5,0,0,0,.513.482l1.094,0a.429.429,0,0,1,.4.27c.039.1.08.191.126.284a.39.39,0,0,1-.079.459l-.772.731a.464.464,0,0,0,0,.683l1.263,1.186a.536.536,0,0,0,.725,0l.778-.737a.442.442,0,0,1,.466-.085c.111.045.232.09.335.128a.4.4,0,0,1,.268.371l0,1.042a.5.5,0,0,0,.513.482l1.782,0a.5.5,0,0,0,.512-.484v-1.031a.408.408,0,0,1,.286-.378q.153-.055.3-.119a.45.45,0,0,1,.486.075l.775.729a.534.534,0,0,0,.724,0l1.259-1.19a.463.463,0,0,0,0-.683l-.78-.734a.383.383,0,0,1-.09-.44c.114-.251.231-.551.236-.568M199.3,295.8a2.544,2.544,0,0,1,3.4-1.792,2.382,2.382,0,0,1,1.573,2.65,2.545,2.545,0,0,1-3.4,1.792,2.382,2.382,0,0,1-1.573-2.65" transform="translate(-103.358 -153.549)" fill="#fff"/>
          </g>
        </g>
        <g id="Grupo_137155" data-name="Grupo 137155" transform="translate(66.52 37.091)">
          <g id="Grupo_137154" data-name="Grupo 137154" clip-path="url(#clip-path-26)">
            <rect id="Rectángulo_44884" data-name="Rectángulo 44884" width="46.764" height="46.764" transform="translate(-16.508 17.608) rotate(-46.848)" fill="#f7ca2e"/>
          </g>
        </g>
        <g id="Grupo_137157" data-name="Grupo 137157">
          <g id="Grupo_137156" data-name="Grupo 137156" clip-path="url(#clip-path)">
            <path id="Trazado_195534" data-name="Trazado 195534" d="M171.273,106.512q.687,0,1.208-1.092a6.393,6.393,0,0,0,.521-2.746,8.683,8.683,0,0,0-2.059-5.936,6.967,6.967,0,0,0-5.517-2.351,7.749,7.749,0,0,0-5.821,2.465,8.242,8.242,0,0,0-2.364,5.911,7.893,7.893,0,0,0,2.224,5.733,7.371,7.371,0,0,0,5.5,2.287,6.338,6.338,0,0,0,4.526-1.88l1.043,1.805a7.766,7.766,0,0,1-2.593,1.436,9.119,9.119,0,0,1-2.975.547,9.693,9.693,0,0,1-7.105-2.835A9.578,9.578,0,0,1,155,102.763a10.286,10.286,0,0,1,10.27-10.283,9.54,9.54,0,0,1,7.093,2.9,9.891,9.891,0,0,1,2.847,7.22,7.816,7.816,0,0,1-1.157,4.486,3.531,3.531,0,0,1-3.039,1.69,2.918,2.918,0,0,1-1.766-.585,2.992,2.992,0,0,1-1.106-1.475,4.3,4.3,0,0,1-3.547,1.8,5.054,5.054,0,0,1-3.737-1.626,5.67,5.67,0,0,1-1.589-4.131,6.357,6.357,0,0,1,1.436-4.221,4.684,4.684,0,0,1,3.775-1.715,3.406,3.406,0,0,1,1.5.342,3.451,3.451,0,0,1,1.017.674l.331.331V97.132h3.177v8.11q0,1.271.762,1.27m-3.914-3.839a3.258,3.258,0,0,0-.674-2.109,2.156,2.156,0,0,0-1.766-.839,2.088,2.088,0,0,0-1.742.839,3.283,3.283,0,0,0-.649,2.071,3.616,3.616,0,0,0,.649,2.148,2.051,2.051,0,0,0,1.767.915,2.081,2.081,0,0,0,1.766-.877,3.512,3.512,0,0,0,.649-2.148" transform="translate(-82.047 -48.952)" fill="#fff"/>
          </g>
        </g>
        <g id="Grupo_137159" data-name="Grupo 137159" transform="translate(287.399 89.373)">
          <g id="Grupo_137158" data-name="Grupo 137158" clip-path="url(#clip-path-28)">
            <rect id="Rectángulo_44887" data-name="Rectángulo 44887" width="46.764" height="46.764" transform="translate(-16.508 17.608) rotate(-46.848)" fill="#efca2e"/>
          </g>
        </g>
        <g id="Grupo_137161" data-name="Grupo 137161">
          <g id="Grupo_137160" data-name="Grupo 137160" clip-path="url(#clip-path)">
            <path id="Trazado_195535" data-name="Trazado 195535" d="M640.556,217.591q.688,0,1.208-1.092a6.386,6.386,0,0,0,.522-2.746,8.683,8.683,0,0,0-2.06-5.936,6.968,6.968,0,0,0-5.517-2.351,7.749,7.749,0,0,0-5.821,2.465,8.242,8.242,0,0,0-2.364,5.911,7.893,7.893,0,0,0,2.224,5.733,7.371,7.371,0,0,0,5.5,2.287,6.338,6.338,0,0,0,4.526-1.88l1.043,1.805a7.766,7.766,0,0,1-2.593,1.436,9.119,9.119,0,0,1-2.975.547,9.694,9.694,0,0,1-7.105-2.835,9.577,9.577,0,0,1-2.859-7.092,10.286,10.286,0,0,1,10.27-10.283,9.54,9.54,0,0,1,7.093,2.9,9.891,9.891,0,0,1,2.848,7.22,7.816,7.816,0,0,1-1.157,4.486,3.531,3.531,0,0,1-3.039,1.69,2.919,2.919,0,0,1-1.766-.585,2.992,2.992,0,0,1-1.106-1.475,4.3,4.3,0,0,1-3.547,1.8,5.054,5.054,0,0,1-3.737-1.626,5.67,5.67,0,0,1-1.589-4.131,6.358,6.358,0,0,1,1.436-4.221,4.685,4.685,0,0,1,3.775-1.715,3.4,3.4,0,0,1,1.5.342,3.45,3.45,0,0,1,1.017.674l.331.331v-1.043h3.177v8.11q0,1.271.763,1.27m-3.914-3.839a3.26,3.26,0,0,0-.674-2.11,2.156,2.156,0,0,0-1.766-.839,2.089,2.089,0,0,0-1.742.839,3.285,3.285,0,0,0-.649,2.072,3.616,3.616,0,0,0,.649,2.148,2.051,2.051,0,0,0,1.767.915,2.08,2.08,0,0,0,1.766-.877,3.512,3.512,0,0,0,.649-2.148" transform="translate(-330.451 -107.749)" fill="#fff"/>
          </g>
        </g>
        <g id="Grupo_137163" data-name="Grupo 137163" transform="translate(102.74 190.8)">
          <g id="Grupo_137162" data-name="Grupo 137162" clip-path="url(#clip-path-30)">
            <rect id="Rectángulo_44890" data-name="Rectángulo 44890" width="28.998" height="28.998" transform="translate(0 0)" fill="#6836bf"/>
          </g>
        </g>
        <g id="Grupo_137165" data-name="Grupo 137165">
          <g id="Grupo_137164" data-name="Grupo 137164" clip-path="url(#clip-path)">
            <path id="Trazado_195536" data-name="Trazado 195536" d="M241.1,435.911l-4.132-4.132,2.36-2.361,1.772,1.772,4.917-4.919,2.36,2.361Z" transform="translate(-125.432 -225.636)" fill="#fff"/>
            <path id="Trazado_195537" data-name="Trazado 195537" d="M611.019,317.778H593.38a7.747,7.747,0,0,0-7.724,7.724v17.639a7.747,7.747,0,0,0,7.724,7.724h17.639a7.747,7.747,0,0,0,7.724-7.724V325.5a7.747,7.747,0,0,0-7.724-7.724" transform="translate(-310.002 -168.208)" fill="#8c3a6c"/>
            <path id="Trazado_195538" data-name="Trazado 195538" d="M613.77,332.608a6.255,6.255,0,0,0-6.255,6.255c0,3.455,6.255,12.872,6.255,12.872s6.255-9.418,6.255-12.872a6.255,6.255,0,0,0-6.255-6.255m0,8.892a2.636,2.636,0,1,1,2.636-2.636,2.636,2.636,0,0,1-2.636,2.636" transform="translate(-321.573 -176.058)" fill="#f7fcf3"/>
            <path id="Trazado_195539" data-name="Trazado 195539" d="M438.776,0H421.137a7.747,7.747,0,0,0-7.724,7.724V25.363a7.747,7.747,0,0,0,7.724,7.724h17.639a7.747,7.747,0,0,0,7.724-7.724V7.724A7.747,7.747,0,0,0,438.776,0" transform="translate(-218.83)" fill="#8d3170"/>
            <path id="Trazado_195540" data-name="Trazado 195540" d="M441.527,14.83a6.255,6.255,0,0,0-6.255,6.255c0,3.454,6.255,12.872,6.255,12.872s6.255-9.418,6.255-12.872a6.255,6.255,0,0,0-6.255-6.255m0,8.892a2.636,2.636,0,1,1,2.636-2.636,2.636,2.636,0,0,1-2.636,2.636" transform="translate(-230.4 -7.85)" fill="#fff"/>
            <path id="Trazado_195541" data-name="Trazado 195541" d="M482.39,395.933h-13.6a5.975,5.975,0,0,0-5.958,5.957v13.6a5.975,5.975,0,0,0,5.958,5.957h13.6a5.975,5.975,0,0,0,5.957-5.957v-13.6a5.975,5.975,0,0,0-5.957-5.957" transform="translate(-244.986 -209.577)" fill="#7fc733"/>
            <path id="Trazado_195542" data-name="Trazado 195542" d="M486.791,415.838h0a2.8,2.8,0,0,1-2.8-2.8v-4.066a2.8,2.8,0,0,1,5.6,0v4.066a2.8,2.8,0,0,1-2.8,2.8" transform="translate(-256.189 -214.999)" fill="#fff"/>
            <path id="Trazado_195543" data-name="Trazado 195543" d="M485.009,422.783a4.388,4.388,0,0,1-4.383-4.382v-1.84a.4.4,0,1,1,.791,0v1.84a3.592,3.592,0,0,0,7.184,0v-1.84a.4.4,0,1,1,.791,0v1.84a4.388,4.388,0,0,1-4.383,4.382" transform="translate(-254.407 -220.286)" fill="#fff"/>
            <rect id="Rectángulo_44892" data-name="Rectángulo 44892" width="0.791" height="4.558" transform="translate(230.206 202.101)" fill="#fff"/>
            <path id="Trazado_195544" data-name="Trazado 195544" d="M489.177,439.021h-5.071a.4.4,0,1,1,0-.791h5.071a.4.4,0,0,1,0,.791" transform="translate(-256.04 -231.966)" fill="#fff"/>
            <path id="Trazado_195545" data-name="Trazado 195545" d="M79.457,341.526H63.994a6.791,6.791,0,0,0-6.772,6.772v15.464a6.791,6.791,0,0,0,6.772,6.772H79.457a6.791,6.791,0,0,0,6.772-6.772V348.3a6.791,6.791,0,0,0-6.772-6.772" transform="translate(-30.289 -180.778)" fill="#8c3a6c"/>
            <path id="Trazado_195546" data-name="Trazado 195546" d="M63.344,370.475a2.88,2.88,0,0,0,1.075-.176,2.249,2.249,0,0,0,.435-.7q.565-1.2,1.445-3.345l3.28-8.032h1.362l4.188,9.95a12.145,12.145,0,0,0,1,2.063,2.389,2.389,0,0,0,1.172.243v.843q-1.509-.065-2.852-.065-1.6,0-3.047.065v-.843a5.927,5.927,0,0,0,1.274-.122.278.278,0,0,0,.171-.276,6.17,6.17,0,0,0-.389-1.177l-.611-1.547q-1.15-.028-2.569-.028-1.233,0-2.245.028l-.407,1.041q-.167.425-.408,1.267a1.252,1.252,0,0,0-.056.344.3.3,0,0,0,.181.294,6.18,6.18,0,0,0,1.3.177v.843q-.908-.065-2.259-.065-1.286,0-2.046.065Zm6.078-8.989-1.956,4.764q.853.047,1.882.047,1.075,0,2.058-.047Z" transform="translate(-33.53 -189.614)" fill="#f7fcf3"/>
            <path id="Trazado_195547" data-name="Trazado 195547" d="M103.278,375.153v.76l-.715-.028q-.567-.028-1.133-.028-.873,0-1.653.056l-.093-.1.093-1.27-1.933,1.447a4.139,4.139,0,0,1-.915.12,1.955,1.955,0,0,1-1.516-.584,2.435,2.435,0,0,1-.537-1.7,2.316,2.316,0,0,1,.73-1.945,10.819,10.819,0,0,1,4.17-1.325,2.818,2.818,0,0,0-.379-1.59,1.833,1.833,0,0,0-1.571-.679,2.3,2.3,0,0,0-.513.06,2.512,2.512,0,0,0-.531.19l-.416.991-.639-.157.018-.417-.009-.408-.009-.37a12.817,12.817,0,0,1,2.038-1.1,3.771,3.771,0,0,1,1.26-.167,4.121,4.121,0,0,1,1.779.33,2.178,2.178,0,0,1,1,.9,3.472,3.472,0,0,1,.315,1.653q0,.455-.037,1.625-.037,1.207-.037,1.941a8.414,8.414,0,0,0,.065,1.412.364.364,0,0,0,.181.232,3.815,3.815,0,0,0,.987.167m-3.5-3.808a5.445,5.445,0,0,0-2.114.767,1.379,1.379,0,0,0-.49,1.11,1.229,1.229,0,0,0,.314.892,1.056,1.056,0,0,0,.794.325,2.125,2.125,0,0,0,1.5-.827Z" transform="translate(-50.22 -194.208)" fill="#f7fcf3"/>
          </g>
        </g>
        <g id="Grupo_137167" data-name="Grupo 137167" transform="translate(243.562 30.767)">
          <g id="Grupo_137166" data-name="Grupo 137166" clip-path="url(#clip-path-32)">
            <rect id="Rectángulo_44894" data-name="Rectángulo 44894" width="22.866" height="22.866" transform="translate(0)" fill="#7fc733"/>
          </g>
        </g>
        <g id="Grupo_137169" data-name="Grupo 137169">
          <g id="Grupo_137168" data-name="Grupo 137168" clip-path="url(#clip-path-33)">
            <path id="Trazado_195548" data-name="Trazado 195548" d="M537.326,81.341q.548.089,1.23.249a4.494,4.494,0,0,1,1.281.516,3.081,3.081,0,0,1,1.007.982,2.963,2.963,0,0,1,.408,1.645A2.745,2.745,0,0,1,540.7,86.4a3.524,3.524,0,0,1-1.53,1.154,4.067,4.067,0,0,1-.88.268v1.045H536V87.754a4.68,4.68,0,0,1-1.116-.433,4.567,4.567,0,0,1-1.013-.753l-.8-.816,1.619-1.619.816.8a1.985,1.985,0,0,0,.644.453,2.742,2.742,0,0,0,.739.21,2.908,2.908,0,0,0,.746.006,2.377,2.377,0,0,0,.663-.172,1.175,1.175,0,0,0,.191-.089,1.489,1.489,0,0,0,.216-.146.838.838,0,0,0,.179-.2.481.481,0,0,0,.076-.261,1.218,1.218,0,0,0-.057-.4.581.581,0,0,0-.267-.293,2.348,2.348,0,0,0-.606-.229q-.4-.1-1.083-.217-.37-.064-.8-.153a7.335,7.335,0,0,1-.861-.236,4.6,4.6,0,0,1-.841-.383,2.89,2.89,0,0,1-.721-.586,2.638,2.638,0,0,1-.5-.848,3.359,3.359,0,0,1-.185-1.173,2.648,2.648,0,0,1,.491-1.555,3.255,3.255,0,0,1,1.371-1.1,3.917,3.917,0,0,1,1.1-.331V76.088h2.295v1.237a5.541,5.541,0,0,1,1.077.4,4.46,4.46,0,0,1,.988.669l.867.752-1.5,1.721-.867-.752a2.669,2.669,0,0,0-.727-.44,3.227,3.227,0,0,0-.8-.21,3.083,3.083,0,0,0-.79,0,2.745,2.745,0,0,0-.689.178,1.916,1.916,0,0,0-.344.223.43.43,0,0,0-.166.351,1.161,1.161,0,0,0,.057.389.565.565,0,0,0,.262.28,2.506,2.506,0,0,0,.6.23q.395.109,1.071.223" transform="translate(-282.152 -40.275)" fill="#fff"/>
            <path id="Trazado_195549" data-name="Trazado 195549" d="M314.048,50.029H300.971a5.743,5.743,0,0,0-5.727,5.727V68.833a5.743,5.743,0,0,0,5.727,5.727h13.077a5.743,5.743,0,0,0,5.727-5.727V55.756a5.743,5.743,0,0,0-5.727-5.727" transform="translate(-156.28 -26.482)" fill="#7fc733"/>
            <path id="Trazado_195550" data-name="Trazado 195550" d="M320.5,68.5a.222.222,0,0,0-.128-.377l-3.714-.49a.251.251,0,0,1-.169-.12l-1.008-1.977-.693-1.36a.222.222,0,0,0-.4.005l-1.614,3.38a.224.224,0,0,1-.166.124l-3.7.586a.222.222,0,0,0-.118.381l1.832,1.74.884.839a.224.224,0,0,1,.067.2l-.22,1.39-.188,1.191-.177,1.119a.222.222,0,0,0,.326.23l3.292-1.786a.221.221,0,0,1,.207,0l3.338,1.7a.222.222,0,0,0,.319-.239l-.681-3.683a.223.223,0,0,1,.062-.2Z" transform="translate(-163.414 -33.904)" fill="#fff"/>
            <path id="Trazado_195551" data-name="Trazado 195551" d="M507.442,168.791H494.71a5.591,5.591,0,0,0-5.575,5.575V187.1a5.592,5.592,0,0,0,5.575,5.576h12.732a5.592,5.592,0,0,0,5.575-5.576V174.366a5.591,5.591,0,0,0-5.575-5.575" transform="translate(-256.911 -62.345)" fill="#6836bf"/>
            <path id="Trazado_195552" data-name="Trazado 195552" d="M513.844,187a356.735,356.735,0,0,1-7.522-3.1,3.1,3.1,0,0,0-2.232,5.247l4.431,4.408,4.543-4.5c.049-.057.177-.22.177-.22a3.083,3.083,0,0,0,.6-1.831" transform="translate(-264.368 -70.345)" fill="#fff"/>
          </g>
        </g>
      </g>
    </g>
  </g>
</svg>
