<svg xmlns="http://www.w3.org/2000/svg" xmlns:xlink="http://www.w3.org/1999/xlink" width="120" height="120" viewBox="0 0 120 120">
  <defs>
    <clipPath id="clip-path">
      <rect id="Rectángulo_45025" data-name="Rectángulo 45025" width="84" height="73" transform="translate(0 0.25)" fill="#fff"/>
    </clipPath>
  </defs>
  <g id="Grupo_137596" data-name="Grupo 137596" transform="translate(-591 -3213)">
    <g id="Grupo_137592" data-name="Grupo 137592" transform="translate(216 1008)">
      <g id="Grupo_136727" data-name="Grupo 136727" transform="translate(-803 1304)">
        <circle id="Elipse_5412" data-name="Elipse 5412" cx="60" cy="60" r="60" transform="translate(1178 901)" fill="#b13e8d"/>
      </g>
    </g>
    <g id="Grupo_137482" data-name="Grupo 137482" transform="translate(613 3236.25)">
      <g id="Grupo_137481" data-name="Grupo 137481" transform="translate(0 0.5)" clip-path="url(#clip-path)">
        <path id="Trazado_195821" data-name="Trazado 195821" d="M7,36.313A1.312,1.312,0,1,0,8.312,35,1.313,1.313,0,0,0,7,36.313" transform="translate(2.187 10.354)" fill="#fff"/>
        <path id="Trazado_195822" data-name="Trazado 195822" d="M4,36.313A1.312,1.312,0,1,0,5.312,35,1.313,1.313,0,0,0,4,36.313" transform="translate(1.25 10.354)" fill="#fff"/>
        <path id="Trazado_195823" data-name="Trazado 195823" d="M10,36.313A1.312,1.312,0,1,0,11.312,35,1.313,1.313,0,0,0,10,36.313" transform="translate(3.125 10.354)" fill="#fff"/>
        <path id="Trazado_195824" data-name="Trazado 195824" d="M21.313,35a1.313,1.313,0,0,0,0,2.625h10.92a1.313,1.313,0,0,0,0-2.625Z" transform="translate(6.25 10.354)" fill="#fff"/>
        <path id="Trazado_195825" data-name="Trazado 195825" d="M40.031,52.5H3.937a1.314,1.314,0,0,1-1.312-1.312V43.312A1.314,1.314,0,0,1,3.937,42H38.062a1.313,1.313,0,0,0,0-2.625H9.187V35.437H38.062a1.312,1.312,0,0,0,0-2.625H3.937A1.314,1.314,0,0,1,2.625,31.5V23.625a1.314,1.314,0,0,1,1.312-1.312H59.062a1.307,1.307,0,0,1,1.138.663,1.313,1.313,0,0,0,2.267-1.326,3.912,3.912,0,0,0-3.4-1.962H56.437V15.75h2.625A3.942,3.942,0,0,0,63,11.812V3.937A3.942,3.942,0,0,0,59.062,0H3.937A3.942,3.942,0,0,0,0,3.937v7.875A3.942,3.942,0,0,0,3.937,15.75H6.562v3.937H3.937A3.942,3.942,0,0,0,0,23.625V31.5a3.942,3.942,0,0,0,3.937,3.937H6.562v3.937H3.937A3.942,3.942,0,0,0,0,43.312v7.875a3.942,3.942,0,0,0,3.937,3.937H40.031a1.313,1.313,0,0,0,0-2.625M2.625,11.812V3.937A1.314,1.314,0,0,1,3.937,2.625H59.062a1.313,1.313,0,0,1,1.313,1.312v7.875a1.313,1.313,0,0,1-1.312,1.312H3.937a1.314,1.314,0,0,1-1.312-1.312M9.187,15.75H53.812v3.937H9.187Z" transform="translate(0 -0.583)" fill="#fff"/>
        <path id="Trazado_195826" data-name="Trazado 195826" d="M7,21.313A1.312,1.312,0,1,0,8.312,20,1.313,1.313,0,0,0,7,21.313" transform="translate(2.187 5.667)" fill="#fff"/>
        <path id="Trazado_195827" data-name="Trazado 195827" d="M4,21.313A1.312,1.312,0,1,0,5.312,20,1.313,1.313,0,0,0,4,21.313" transform="translate(1.25 5.667)" fill="#fff"/>
        <path id="Trazado_195828" data-name="Trazado 195828" d="M10,21.313A1.312,1.312,0,1,0,11.312,20,1.313,1.313,0,0,0,10,21.313" transform="translate(3.125 5.667)" fill="#fff"/>
        <path id="Trazado_195829" data-name="Trazado 195829" d="M41,21.313A1.311,1.311,0,0,0,39.687,20H21.313a1.312,1.312,0,1,0,0,2.625H39.687A1.311,1.311,0,0,0,41,21.313" transform="translate(6.25 5.667)" fill="#fff"/>
        <path id="Trazado_195830" data-name="Trazado 195830" d="M8.312,7.625A1.312,1.312,0,1,0,7,6.312,1.313,1.313,0,0,0,8.312,7.625" transform="translate(2.187 0.979)" fill="#fff"/>
        <path id="Trazado_195831" data-name="Trazado 195831" d="M5.312,5A1.312,1.312,0,1,0,6.625,6.312,1.313,1.313,0,0,0,5.312,5" transform="translate(1.25 0.979)" fill="#fff"/>
        <path id="Trazado_195832" data-name="Trazado 195832" d="M11.312,7.625A1.312,1.312,0,1,0,10,6.312a1.313,1.313,0,0,0,1.312,1.312" transform="translate(3.125 0.979)" fill="#fff"/>
        <path id="Trazado_195833" data-name="Trazado 195833" d="M21.313,7.625H50.187a1.312,1.312,0,1,0,0-2.625H21.313a1.312,1.312,0,1,0,0,2.625" transform="translate(6.25 0.979)" fill="#fff"/>
        <path id="Trazado_195834" data-name="Trazado 195834" d="M72.687,27.875a6.57,6.57,0,0,1-6.562-6.562A1.311,1.311,0,0,0,64.812,20H41.187a1.311,1.311,0,0,0-1.312,1.313,6.57,6.57,0,0,1-6.562,6.562A1.312,1.312,0,0,0,32,29.187v6.188A34.909,34.909,0,0,0,51.938,66.892a1.756,1.756,0,0,0,2.128,0A34.908,34.908,0,0,0,74,35.376V29.187a1.311,1.311,0,0,0-1.312-1.312m-1.312,7.5A32.274,32.274,0,0,1,53,64.491,32.273,32.273,0,0,1,34.625,35.376V30.407a9.208,9.208,0,0,0,7.782-7.782H63.593a9.208,9.208,0,0,0,7.782,7.782Z" transform="translate(10 5.667)" fill="#fff"/>
        <path id="Trazado_195835" data-name="Trazado 195835" d="M60.611,24.786a1.314,1.314,0,0,0-1.2-.786H44.092a1.314,1.314,0,0,0-1.2.786,11.813,11.813,0,0,1-6.1,6.1,1.312,1.312,0,0,0-.786,1.2v2.034A29.57,29.57,0,0,0,51.109,59.962a1.664,1.664,0,0,0,.639.167,1.644,1.644,0,0,0,.639-.167A29.582,29.582,0,0,0,67.5,34.126V32.092a1.312,1.312,0,0,0-.786-1.2,11.813,11.813,0,0,1-6.1-6.1m-21.986,9.34v-1.2a14.414,14.414,0,0,0,6.3-6.3h5.515V56.461A26.965,26.965,0,0,1,38.625,34.126m26.25,0A26.976,26.976,0,0,1,53.061,56.461V26.625h5.518a14.414,14.414,0,0,0,6.3,6.3Z" transform="translate(11.25 6.917)" fill="#fff"/>
      </g>
    </g>
  </g>
</svg>
