<svg xmlns="http://www.w3.org/2000/svg" xmlns:xlink="http://www.w3.org/1999/xlink" width="120" height="120" viewBox="0 0 120 120">
  <defs>
    <clipPath id="clip-path">
      <rect id="Rectángulo_45024" data-name="Rectángulo 45024" width="81" height="70" transform="translate(0.5 0.438)" fill="#fff"/>
    </clipPath>
  </defs>
  <g id="Grupo_137597" data-name="Grupo 137597" transform="translate(-895 -3213)">
    <g id="Grupo_137593" data-name="Grupo 137593" transform="translate(520 1008)">
      <g id="Grupo_136727" data-name="Grupo 136727" transform="translate(-803 1304)">
        <circle id="Elipse_5412" data-name="Elipse 5412" cx="60" cy="60" r="60" transform="translate(1178 901)" fill="#b13e8d"/>
      </g>
    </g>
    <g id="Grupo_137480" data-name="Grupo 137480" transform="translate(914.5 3237.563)">
      <g id="Grupo_137479" data-name="Grupo 137479" clip-path="url(#clip-path)">
        <path id="Trazado_195806" data-name="Trazado 195806" d="M7,36.266A1.266,1.266,0,1,0,8.266,35,1.266,1.266,0,0,0,7,36.266" transform="translate(1.859 9.297)" fill="#fff"/>
        <path id="Trazado_195807" data-name="Trazado 195807" d="M4,36.266A1.266,1.266,0,1,0,5.266,35,1.266,1.266,0,0,0,4,36.266" transform="translate(1.063 9.297)" fill="#fff"/>
        <path id="Trazado_195808" data-name="Trazado 195808" d="M10,36.266A1.266,1.266,0,1,0,11.266,35,1.266,1.266,0,0,0,10,36.266" transform="translate(2.656 9.297)" fill="#fff"/>
        <path id="Trazado_195809" data-name="Trazado 195809" d="M21.266,35a1.266,1.266,0,0,0,0,2.531h5.189a1.266,1.266,0,1,0,0-2.531Z" transform="translate(5.313 9.297)" fill="#fff"/>
        <path id="Trazado_195810" data-name="Trazado 195810" d="M33.172,37.969H8.859v-3.8H36.425a1.266,1.266,0,0,0,0-2.531H3.8a1.266,1.266,0,0,1-1.266-1.266V22.781A1.266,1.266,0,0,1,3.8,21.516H56.953a1.257,1.257,0,0,1,1.1.642,1.265,1.265,0,1,0,2.21-1.234,3.786,3.786,0,0,0-3.307-1.939H54.422v-3.8h2.531a3.8,3.8,0,0,0,3.8-3.8V3.8a3.8,3.8,0,0,0-3.8-3.8H3.8A3.8,3.8,0,0,0,0,3.8v7.594a3.8,3.8,0,0,0,3.8,3.8H6.328v3.8H3.8a3.8,3.8,0,0,0-3.8,3.8v7.594a3.8,3.8,0,0,0,3.8,3.8H6.328v3.8H3.8a3.8,3.8,0,0,0-3.8,3.8v7.594a3.8,3.8,0,0,0,3.8,3.8H31.919a1.266,1.266,0,0,0,0-2.531H3.8a1.266,1.266,0,0,1-1.266-1.266V41.766A1.266,1.266,0,0,1,3.8,40.5H33.172a1.266,1.266,0,0,0,0-2.531M2.531,11.391V3.8A1.266,1.266,0,0,1,3.8,2.531H56.953A1.266,1.266,0,0,1,58.219,3.8v7.594a1.266,1.266,0,0,1-1.266,1.266H3.8a1.266,1.266,0,0,1-1.266-1.266m6.328,3.8H51.891v3.8H8.859Z" fill="#fff"/>
        <path id="Trazado_195811" data-name="Trazado 195811" d="M7,21.266A1.266,1.266,0,1,0,8.266,20,1.266,1.266,0,0,0,7,21.266" transform="translate(1.859 5.313)" fill="#fff"/>
        <path id="Trazado_195812" data-name="Trazado 195812" d="M4,21.266A1.266,1.266,0,1,0,5.266,20,1.266,1.266,0,0,0,4,21.266" transform="translate(1.063 5.313)" fill="#fff"/>
        <path id="Trazado_195813" data-name="Trazado 195813" d="M10,21.266A1.266,1.266,0,1,0,11.266,20,1.266,1.266,0,0,0,10,21.266" transform="translate(2.656 5.313)" fill="#fff"/>
        <path id="Trazado_195814" data-name="Trazado 195814" d="M21.266,20a1.266,1.266,0,0,0,0,2.531H37.326a1.266,1.266,0,0,0,0-2.531Z" transform="translate(5.313 5.313)" fill="#fff"/>
        <path id="Trazado_195815" data-name="Trazado 195815" d="M8.266,7.531A1.266,1.266,0,1,0,7,6.266,1.266,1.266,0,0,0,8.266,7.531" transform="translate(1.859 1.328)" fill="#fff"/>
        <path id="Trazado_195816" data-name="Trazado 195816" d="M5.266,5A1.266,1.266,0,1,0,6.531,6.266,1.266,1.266,0,0,0,5.266,5" transform="translate(1.063 1.328)" fill="#fff"/>
        <path id="Trazado_195817" data-name="Trazado 195817" d="M11.266,7.531A1.266,1.266,0,1,0,10,6.266a1.266,1.266,0,0,0,1.266,1.266" transform="translate(2.656 1.328)" fill="#fff"/>
        <path id="Trazado_195818" data-name="Trazado 195818" d="M21.266,7.531H49.109a1.266,1.266,0,0,0,0-2.531H21.266a1.266,1.266,0,0,0,0,2.531" transform="translate(5.313 1.328)" fill="#fff"/>
        <path id="Trazado_195819" data-name="Trazado 195819" d="M50.781,20A22.781,22.781,0,1,0,73.563,42.781,22.807,22.807,0,0,0,50.781,20m0,43.031a20.25,20.25,0,1,1,20.25-20.25,20.274,20.274,0,0,1-20.25,20.25" transform="translate(7.438 5.313)" fill="#fff"/>
        <path id="Trazado_195820" data-name="Trazado 195820" d="M56.428,41.007a10.934,10.934,0,0,0-14.357-13.3,1.266,1.266,0,0,0-.447,2.078l6.229,6.229a2.715,2.715,0,0,1-3.84,3.84l-6.229-6.229a1.266,1.266,0,0,0-2.078.447,10.934,10.934,0,0,0,13.3,14.357l4.88,4.879a5.247,5.247,0,0,0,7.42-7.42Zm3.089,10.511a2.721,2.721,0,0,1-3.841,0l-5.433-5.433a1.266,1.266,0,0,0-.895-.371,1.281,1.281,0,0,0-.448.082A8.4,8.4,0,0,1,37.583,37l4.641,4.641a5.246,5.246,0,1,0,7.419-7.419L45,29.583A8.4,8.4,0,0,1,53.8,40.9a1.266,1.266,0,0,0,.289,1.343l5.433,5.433a2.721,2.721,0,0,1,0,3.841" transform="translate(9.297 7.172)" fill="#fff"/>
      </g>
    </g>
  </g>
</svg>
