<svg xmlns="http://www.w3.org/2000/svg" xmlns:xlink="http://www.w3.org/1999/xlink" width="120" height="120" viewBox="0 0 120 120">
  <defs>
    <clipPath id="clip-path">
      <rect id="Rectángulo_45023" data-name="Rectángulo 45023" width="71" height="71" fill="#fff"/>
    </clipPath>
  </defs>
  <g id="Grupo_137598" data-name="Grupo 137598" transform="translate(-1134 -3213)">
    <g id="Grupo_137594" data-name="Grupo 137594" transform="translate(759 1008)">
      <g id="Grupo_136727" data-name="Grupo 136727" transform="translate(-803 1304)">
        <circle id="Elipse_5412" data-name="Elipse 5412" cx="60" cy="60" r="60" transform="translate(1178 901)" fill="#b13e8d"/>
      </g>
    </g>
    <g id="Grupo_137478" data-name="Grupo 137478" transform="translate(1158.5 3237.5)">
      <g id="Grupo_137477" data-name="Grupo 137477" transform="translate(0.5 0.5)" clip-path="url(#clip-path)">
        <path id="Trazado_195791" data-name="Trazado 195791" d="M25.109,15a1.109,1.109,0,1,0,1.109,1.109A1.11,1.11,0,0,0,25.109,15" transform="translate(2.164 1.18)" fill="#fff"/>
        <path id="Trazado_195792" data-name="Trazado 195792" d="M22.109,15a1.109,1.109,0,1,0,1.109,1.109A1.11,1.11,0,0,0,22.109,15" transform="translate(1.836 1.18)" fill="#fff"/>
        <path id="Trazado_195793" data-name="Trazado 195793" d="M28.109,15a1.109,1.109,0,1,0,1.109,1.109A1.11,1.11,0,0,0,28.109,15" transform="translate(2.492 1.18)" fill="#fff"/>
        <path id="Trazado_195794" data-name="Trazado 195794" d="M42.984,15H34.109a1.109,1.109,0,0,0,0,2.219h8.875a1.109,1.109,0,0,0,0-2.219" transform="translate(3.148 1.18)" fill="#fff"/>
        <path id="Trazado_195795" data-name="Trazado 195795" d="M25.109,11.219A1.109,1.109,0,1,0,24,10.109a1.11,1.11,0,0,0,1.109,1.109" transform="translate(2.164 0.523)" fill="#fff"/>
        <path id="Trazado_195796" data-name="Trazado 195796" d="M22.109,11.219A1.109,1.109,0,1,0,21,10.109a1.11,1.11,0,0,0,1.109,1.109" transform="translate(1.836 0.523)" fill="#fff"/>
        <path id="Trazado_195797" data-name="Trazado 195797" d="M28.109,11.219A1.109,1.109,0,1,0,27,10.109a1.11,1.11,0,0,0,1.109,1.109" transform="translate(2.492 0.523)" fill="#fff"/>
        <path id="Trazado_195798" data-name="Trazado 195798" d="M34.109,11.219h8.875a1.109,1.109,0,0,0,0-2.219H34.109a1.109,1.109,0,0,0,0,2.219" transform="translate(3.148 0.523)" fill="#fff"/>
        <path id="Trazado_195799" data-name="Trazado 195799" d="M25.109,5.219A1.109,1.109,0,1,0,24,4.109a1.11,1.11,0,0,0,1.109,1.109" transform="translate(2.164 -0.133)" fill="#fff"/>
        <path id="Trazado_195800" data-name="Trazado 195800" d="M22.109,5.219A1.109,1.109,0,1,0,21,4.109a1.11,1.11,0,0,0,1.109,1.109" transform="translate(1.836 -0.133)" fill="#fff"/>
        <path id="Trazado_195801" data-name="Trazado 195801" d="M28.109,5.219A1.109,1.109,0,1,0,27,4.109a1.11,1.11,0,0,0,1.109,1.109" transform="translate(2.492 -0.133)" fill="#fff"/>
        <path id="Trazado_195802" data-name="Trazado 195802" d="M34.109,5.219h8.875a1.109,1.109,0,1,0,0-2.219H34.109a1.109,1.109,0,1,0,0,2.219" transform="translate(3.148 -0.133)" fill="#fff"/>
        <path id="Trazado_195803" data-name="Trazado 195803" d="M48.109,55.219h2.219a1.109,1.109,0,0,0,0-2.219H48.109a1.109,1.109,0,0,0,0,2.219" transform="translate(4.68 5.336)" fill="#fff"/>
        <path id="Trazado_195804" data-name="Trazado 195804" d="M66.563,37.719H58.8a1.109,1.109,0,0,0,0,2.219h7.766a2.225,2.225,0,0,1,2.219,2.219V55.469H63.234V49.922a1.27,1.27,0,0,0-.322-.788l-5.547-5.547a1.282,1.282,0,0,0-.788-.322H55.469V33.281a4.436,4.436,0,0,0-4.437-4.437h-12.4a3.367,3.367,0,0,0-2.019-2.019V22.188H47.7a3.338,3.338,0,0,0,3.328-3.328V16.641a3.3,3.3,0,0,0-.865-2.219,3.3,3.3,0,0,0,.865-2.219V9.984a3.3,3.3,0,0,0-.865-2.219,3.3,3.3,0,0,0,.865-2.219V3.328A3.338,3.338,0,0,0,47.7,0H23.3a3.338,3.338,0,0,0-3.328,3.328V5.547a3.3,3.3,0,0,0,.865,2.219,3.3,3.3,0,0,0-.865,2.219V12.2a3.3,3.3,0,0,0,.865,2.219,3.3,3.3,0,0,0-.865,2.219v2.219A3.338,3.338,0,0,0,23.3,22.188H34.391v4.637a3.367,3.367,0,0,0-2.019,2.019h-12.4a4.436,4.436,0,0,0-4.437,4.438v9.984H8.875a1.113,1.113,0,0,0-1.109,1.109V55.469H2.219V42.156a2.225,2.225,0,0,1,2.219-2.219H12.2a1.109,1.109,0,0,0,0-2.219H4.438A4.436,4.436,0,0,0,0,42.156v17.75a4.436,4.436,0,0,0,4.438,4.438h6.656v4.438H8.875a1.109,1.109,0,0,0,0,2.219H24.406a1.109,1.109,0,0,0,0-2.219H22.188V64.344h6.656a4.436,4.436,0,0,0,4.438-4.437V42.156a4.436,4.436,0,0,0-4.437-4.437H21.078a1.109,1.109,0,0,0,0,2.219h7.766a2.225,2.225,0,0,1,2.219,2.219V55.469H25.516V49.922a1.27,1.27,0,0,0-.322-.788l-5.547-5.547a1.282,1.282,0,0,0-.788-.322H17.75V33.281a2.225,2.225,0,0,1,2.219-2.219h12.4a3.315,3.315,0,0,0,6.257,0h12.4a2.225,2.225,0,0,1,2.219,2.219v9.984H46.594a1.113,1.113,0,0,0-1.109,1.109V55.469H39.938V42.156a2.225,2.225,0,0,1,2.219-2.219h7.766a1.109,1.109,0,0,0,0-2.219H42.156a4.436,4.436,0,0,0-4.437,4.438v17.75a4.436,4.436,0,0,0,4.438,4.438h6.656v4.438H46.594a1.109,1.109,0,0,0,0,2.219H62.125a1.109,1.109,0,0,0,0-2.219H59.906V64.344h6.656A4.436,4.436,0,0,0,71,59.906V42.156a4.436,4.436,0,0,0-4.437-4.437M19.969,68.781H13.313V64.344h6.656ZM31.063,57.688v2.219a2.225,2.225,0,0,1-2.219,2.219H4.438a2.225,2.225,0,0,1-2.219-2.219V57.688ZM19.969,47.049l1.764,1.764H19.969Zm-1.109,3.983H23.3v4.438H9.984V45.484H17.75v4.438a1.113,1.113,0,0,0,1.109,1.109m3.328-47.7A1.113,1.113,0,0,1,23.3,2.219H47.7a1.113,1.113,0,0,1,1.109,1.109V5.547A1.113,1.113,0,0,1,47.7,6.656H23.3a1.113,1.113,0,0,1-1.109-1.109Zm0,6.656A1.113,1.113,0,0,1,23.3,8.875H47.7a1.113,1.113,0,0,1,1.109,1.109V12.2A1.113,1.113,0,0,1,47.7,13.313H23.3A1.113,1.113,0,0,1,22.188,12.2ZM23.3,19.969a1.113,1.113,0,0,1-1.109-1.109V16.641A1.113,1.113,0,0,1,23.3,15.531H47.7a1.113,1.113,0,0,1,1.109,1.109v2.219A1.113,1.113,0,0,1,47.7,19.969ZM35.5,31.063a1.109,1.109,0,1,1,1.109-1.109A1.113,1.113,0,0,1,35.5,31.063M57.688,47.049l1.764,1.764H57.688ZM47.7,45.484h7.766v4.438a1.113,1.113,0,0,0,1.109,1.109h4.438v4.438H47.7Zm9.984,23.3H51.031V64.344h6.656Zm11.094-8.875a2.225,2.225,0,0,1-2.219,2.219H42.156a2.225,2.225,0,0,1-2.219-2.219V57.688H68.781Z" transform="translate(-0.461 -0.461)" fill="#fff"/>
        <path id="Trazado_195805" data-name="Trazado 195805" d="M14.109,55.219h2.219a1.109,1.109,0,0,0,0-2.219H14.109a1.109,1.109,0,0,0,0,2.219" transform="translate(0.961 5.336)" fill="#fff"/>
      </g>
    </g>
  </g>
</svg>
