<svg xmlns="http://www.w3.org/2000/svg" xmlns:xlink="http://www.w3.org/1999/xlink" width="1328" height="978" viewBox="0 0 1328 978">
  <defs>
    <clipPath id="clip-path">
      <rect id="Rectángulo_40618" data-name="Rectángulo 40618" width="167" height="495" fill="#fff"/>
    </clipPath>
    <linearGradient id="linear-gradient" x1="0.5" x2="0.5" y2="1" gradientUnits="objectBoundingBox">
      <stop offset="0" stop-color="#6836bc"/>
      <stop offset="0.256" stop-color="#6d3dc3"/>
      <stop offset="0.637" stop-color="#7e51d6"/>
      <stop offset="1" stop-color="#936bef"/>
    </linearGradient>
    <linearGradient id="linear-gradient-2" x1="0.666" y1="-0.309" x2="0.346" y2="1.251" gradientUnits="objectBoundingBox">
      <stop offset="0" stop-color="#ffc431"/>
      <stop offset="1" stop-color="#ff8300"/>
    </linearGradient>
    <clipPath id="clip-path-2">
      <rect id="Rectángulo_40707" data-name="Rectángulo 40707" width="339" height="861" fill="#7fc733"/>
    </clipPath>
    <linearGradient id="linear-gradient-3" x1="0.666" y1="1.309" x2="0.346" y2="-0.251" gradientUnits="objectBoundingBox">
      <stop offset="0" stop-color="#84088c"/>
      <stop offset="0.999" stop-color="#b13f8c"/>
    </linearGradient>
  </defs>
  <g id="Grupo_137633" data-name="Grupo 137633" transform="translate(7557 13309)">
    <g id="Grupo_137632" data-name="Grupo 137632" transform="translate(-7557 -13309)">
      <g id="Grupo_128306" data-name="Grupo 128306" transform="translate(1161)">
        <g id="Enmascarar_grupo_120" data-name="Enmascarar grupo 120" opacity="0.1" clip-path="url(#clip-path)">
          <path id="Unión_16" data-name="Unión 16" d="M173.153,485.119s-60.438-1.425-67.815-65.853C99.92,371.911,69.771,309.794,54.172,280.195-113.161,12.707,160.58,0,160.58,0l92.39,152.859S341.415,482.4,255.8,482.573v2.546Z" transform="translate(30.65 26.405)" fill="url(#linear-gradient)"/>
        </g>
        <ellipse id="Elipse_4788" data-name="Elipse 4788" cx="45.799" cy="45.8" rx="45.799" ry="45.8" transform="matrix(0.259, 0.966, -0.966, 0.259, 116.796, 180.663)" fill="url(#linear-gradient-2)"/>
      </g>
      <g id="Enmascarar_grupo_124" data-name="Enmascarar grupo 124" transform="translate(0 117)" clip-path="url(#clip-path-2)">
        <path id="Unión_18" data-name="Unión 18" d="M131.032,3.162A203.827,203.827,0,0,0,87.921,16.19a174.152,174.152,0,0,0-39.048,22.9,133.654,133.654,0,0,0-30.187,32.75A113.959,113.959,0,0,0,2.159,114.416,146.736,146.736,0,0,0,.837,155.063a125.11,125.11,0,0,0,10.609,38.967c.646,1.4,1.344,2.828,2.141,4.362a107.86,107.86,0,0,0,31.888,36.962,127.569,127.569,0,0,0,21,12.569A142.567,142.567,0,0,0,89.6,256.558a158,158,0,0,0,43.033,5.6c22.223,0,43.941-3.7,66.936-7.624l.035-.01,1.7-.287c15.8-2.7,28.717-3.946,40.646-3.946a123.059,123.059,0,0,1,32.725,4.011A90.747,90.747,0,0,1,290.087,260a82.769,82.769,0,0,1,14.389,8.8A103.421,103.421,0,0,1,320.7,284.277a142.885,142.885,0,0,1,13.027,18.142c7.871,12.806,14.426,27.041,20.766,40.806l.02.041c5.7,12.369,11.6,25.16,18.439,36.938a166.3,166.3,0,0,0,11.188,16.968,117.892,117.892,0,0,0,13.535,15.11A114.274,114.274,0,0,0,474.868,442.8h.359a117.218,117.218,0,0,0,24.6-2.777,119.484,119.484,0,0,0,24.674-8.242c17.277-8.014,30.254-19.488,37.545-33.186a55.6,55.6,0,0,0,4.924-12.8,64.068,64.068,0,0,0,1.8-12.762c.389-8.494-.625-17.143-1.613-25.5V347.5c-1.355-11.475-2.75-23.346-.617-35.234a59.394,59.394,0,0,1,3.762-12.8,55,55,0,0,1,6.072-10.746,67.11,67.11,0,0,1,17.711-16.487c13.816-9.148,31.205-15.188,48.018-21.026l.033-.014c9.055-3.145,18.414-6.395,26.916-10.051,9.525-4.094,17.027-8.314,22.938-12.895q2.353-1.822,4.619-3.844H840.575V146.352S845.64,58.692,726.8,87.605c-.039.01-.078.019-.115.029l-.318.074c-4.15,1.018-8.4,2.162-12.713,3.424a451.341,451.341,0,0,1-64.221,13.543c-.117.018-.223.033-.338.049l-.7.1q-11.44,1.576-22.8,2.66l-.057.007-.83.077c-.189.02-.373.039-.559.055-.076.008-.145.014-.219.02-15.482,1.445-31.572,2.342-48.1,2.676-20.713.414-40.49-.084-58.553-1.074l-.445-.025c-.283-.014-.572-.029-.854-.046-.437-.026-.873-.051-1.311-.075l-.072,0q-3.34-.195-6.682-.415c-7.68-.51-15.363-1.121-23-1.83-12.295-1.146-23.219-2.432-32.377-3.649q-3.513-.467-6.955-.96l-.043,0c-15.152-2.16-23.93-3.9-23.93-3.9l-.055.006a219.446,219.446,0,0,1-31.809-10.418c-19.8-8.072-38.5-18.414-52.582-26.521-26.252-15.115-54.289-30.834-83-42.4a280.153,280.153,0,0,0-43.445-13.8,218.089,218.089,0,0,0-22.4-3.848A197.289,197.289,0,0,0,165.4,0,189.324,189.324,0,0,0,131.032,3.162Z" transform="translate(359 73.124) rotate(104)" fill="#7fc733" stroke="rgba(0,0,0,0)" stroke-miterlimit="10" stroke-width="1" opacity="0.1"/>
      </g>
      <circle id="Elipse_4812" data-name="Elipse 4812" cx="28.26" cy="28.26" r="28.26" transform="translate(8.999 442.916) rotate(-99.161)" fill="url(#linear-gradient-3)"/>
    </g>
  </g>
</svg>
