<svg xmlns="http://www.w3.org/2000/svg" xmlns:xlink="http://www.w3.org/1999/xlink" width="1328.692" height="374.616" viewBox="0 0 1328.692 374.616">
  <defs>
    <clipPath id="clip-path">
      <path id="Trazado_189409" data-name="Trazado 189409" d="M0,0H1328l.286,359.68c0,8.249-8.954,14.936-20,14.936L19.594,374.3c-11.046,0-20-6.687-20-14.936Z" transform="translate(136 2167)" fill="#7fc733"/>
    </clipPath>
    <linearGradient id="linear-gradient" x1="0.073" y1="0.062" x2="0.981" y2="-0.029" gradientUnits="objectBoundingBox">
      <stop offset="0" stop-color="#b13e8d"/>
      <stop offset="0.256" stop-color="#b13e8d"/>
      <stop offset="0.637" stop-color="#b13e8d"/>
      <stop offset="1" stop-color="#b13e8d" stop-opacity="0.51"/>
    </linearGradient>
  </defs>
  <g id="Enmascarar_grupo_133" data-name="Enmascarar grupo 133" transform="translate(1464.286 2541.616) rotate(180)" opacity="0.154" clip-path="url(#clip-path)">
    <g id="Grupo_131842" data-name="Grupo 131842" transform="translate(117.138 2182.397)">
      <path id="Trazado_189400" data-name="Trazado 189400" d="M-8240-9495.666s246.887-69.6,381.8,75.25,309.462,316.3,575.507,302.175,348.841-124.544,348.841-124.544,31.007-59.1,66.208-32.81,0,232.586,0,232.586H-8258.862V-9485.87Z" transform="translate(8258.862 9512.382)" fill="url(#linear-gradient)"/>
      <path id="Uni贸n_24" data-name="Uni贸n 24" d="M101.416,647.542a179.239,179.239,0,0,1-50.8-13.994A157.194,157.194,0,0,1,6.083,604.08a145.231,145.231,0,0,1-32.437-45.534c-8.474-18.644-13.354-39.568-14.5-62.194a276.451,276.451,0,0,1,3.771-61.3A259.428,259.428,0,0,1-19,374.718c.972-2.207,2.01-4.455,3.185-6.881A207.824,207.824,0,0,1,27.93,307.715a202.446,202.446,0,0,1,27.243-21.79A194.506,194.506,0,0,1,84.5,269.8a176.849,176.849,0,0,1,53.166-14.164c27.074-2.942,53.041-.218,80.534,2.668l.042.011,2.036.209c18.894,1.983,34.461,2.165,48.992.586a136.968,136.968,0,0,0,40.4-10.4,123.669,123.669,0,0,0,19.525-10.67,132.224,132.224,0,0,0,18.693-15.213,190.379,190.379,0,0,0,21.82-25.55,286.107,286.107,0,0,0,18.273-29.162c11.283-20.407,21.154-42.806,30.7-64.463l.029-.063c8.583-19.463,17.457-39.587,27.354-58.307,5.326-10.073,10.523-18.955,15.878-27.143A225.821,225.821,0,0,1,480.429-6.5c27.858-32.078,63.6-52.629,98.076-56.376l.438-.048a110.158,110.158,0,0,1,29.6.945,104.627,104.627,0,0,1,28.968,9.2c19.985,9.831,34.276,25.468,41.345,45.218a83.664,83.664,0,0,1,4.3,18.711,113.7,113.7,0,0,1,.5,19.063c-.649,12.8-3.031,26.01-5.343,38.783l0,.042c-3.169,17.535-6.44,35.673-5.418,53.369a95.092,95.092,0,0,0,2.891,18.859,72.723,72.723,0,0,0,5.974,15.447,68.856,68.856,0,0,0,19.394,22.59c15.621,12.006,36,18.838,55.712,25.441l.038.018c10.615,3.556,21.587,7.23,31.461,11.635,11.062,4.931,19.643,10.32,26.236,16.464q2.624,2.445,5.117,5.2L995.106,219,984.771,337.036s-5.436,131.9-146.389,103.912c-.048-.009-.092-.019-.137-.028l-.378-.071c-4.921-.988-9.952-2.157-15.033-3.5a405.58,405.58,0,0,0-76.443-11.978c-.141-.01-.267-.02-.406-.027l-.836-.055q-13.729-.87-27.426-1c-.023,0-.048,0-.069,0l-1-.008c-.229,0-.45-.008-.673-.009-.091,0-.175,0-.263,0-18.671-.134-38.154.641-58.24,2.323C632.3,428.71,608.14,432.083,586,435.972l-.546.1c-.346.059-.7.121-1.046.184-.535.1-1.069.191-1.606.288l-.088.016q-4.1.735-8.194,1.513c-9.425,1.789-18.865,3.729-28.264,5.814-15.128,3.359-28.606,6.75-39.925,9.806q-4.343,1.173-8.6,2.373l-.052.01c-18.745,5.272-29.667,9.059-29.667,9.059h-.067A288.707,288.707,0,0,0,427.815,485.1c-25.187,14.829-49.343,32.945-67.569,47.072-33.981,26.336-70.219,53.819-106.722,75.111A365.3,365.3,0,0,1,198.771,633.9a252.343,252.343,0,0,1-27.8,8.786,208.176,208.176,0,0,1-28.108,5.091A179.933,179.933,0,0,1,101.416,647.542Z" transform="translate(646.207 0) rotate(69)" fill="#6e590d" stroke="rgba(0,0,0,0)" stroke-miterlimit="10" stroke-width="1" opacity="0.15" style="mix-blend-mode: color-burn;isolation: isolate"/>
      <path id="Uni贸n_25" data-name="Uni贸n 25" d="M124.565,304.358a241,241,0,0,1-39.91-9.339A183.548,183.548,0,0,1,48.417,278.9C37,272.144,27.53,264.458,20.279,256.062a70.081,70.081,0,0,1-15.607-29.5,76.185,76.185,0,0,1-1.553-28.051,68.813,68.813,0,0,1,9.479-26.8c.584-.961,1.217-1.94,1.939-2.991,6.795-9.863,16.6-18.354,29.142-25.239a127.86,127.86,0,0,1,19.282-8.5,159.479,159.479,0,0,1,21.286-5.769,191.562,191.562,0,0,1,39.687-3.511c20.519.182,40.6,2.913,61.863,5.8l.033.008,1.574.212a295.63,295.63,0,0,0,37.558,3.054,149.385,149.385,0,0,0,30.183-2.5,101.749,101.749,0,0,0,14.18-3.812,82.179,82.179,0,0,0,13.213-5.953,87.15,87.15,0,0,0,14.857-10.541,102.3,102.3,0,0,0,11.882-12.41c7.161-8.769,13.1-18.536,18.839-27.98l.018-.028c5.163-8.486,10.5-17.262,16.722-25.332A115.039,115.039,0,0,1,355.048,34.61,92.791,92.791,0,0,1,367.421,24.3c19.01-13.21,44.892-20.655,71.019-20.425l.334,0a144.04,144.04,0,0,1,22.733,2.118,139.659,139.659,0,0,1,22.85,5.887c16.016,5.668,28.092,13.691,34.936,23.2a33.419,33.419,0,0,1,6.413,17.693c.429,5.862-.437,11.819-1.281,17.579v.02c-1.157,7.906-2.349,16.083-.283,24.3a34.233,34.233,0,0,0,3.58,8.86A37.825,37.825,0,0,0,533.414,111,60.285,60.285,0,0,0,549.9,122.515c12.83,6.423,28.936,10.732,44.506,14.9l.029.01c8.386,2.242,17.055,4.56,24.934,7.152a111.519,111.519,0,0,1,21.283,9.083q2.186,1.276,4.3,2.689l132.924,1.175.637,53.843s5.392,60.514-104.573,39.6l-.105-.021-.295-.055c-3.839-.735-7.776-1.56-11.765-2.465a547.208,547.208,0,0,0-59.4-9.867l-.312-.036-.644-.071q-10.578-1.181-21.075-2.021l-.054,0-.768-.061-.517-.042-.2-.016c-14.306-1.122-29.17-1.872-44.428-2.236-19.127-.455-37.384-.273-54.053.263l-.412.013c-.259.009-.526.017-.786.026l-1.21.041-.066,0q-3.082.107-6.166.231c-7.086.289-14.176.648-21.221,1.075-11.342.69-21.417,1.488-29.864,2.254q-3.237.293-6.414.606h-.039c-13.972,1.367-22.061,2.493-22.061,2.493l-.053,0A250.226,250.226,0,0,0,362.742,248c-18.215,5.406-35.4,12.389-48.332,17.867-24.115,10.213-49.871,20.828-76.283,28.572a320.6,320.6,0,0,1-40,9.163c-6.933,1.107-13.886,1.939-20.649,2.473-7.084.56-14.2.812-21.156.75A233.359,233.359,0,0,1,124.565,304.358Z" transform="translate(951.781 308.045) rotate(-2)" fill="#6a2554" stroke="rgba(0,0,0,0)" stroke-miterlimit="10" stroke-width="1" opacity="0.15" style="mix-blend-mode: color-burn;isolation: isolate"/>
      <circle id="Elipse_5165" data-name="Elipse 5165" cx="88.133" cy="88.133" r="88.133" transform="translate(20.752 143.102) rotate(30)" fill="#fff"/>
      <circle id="Elipse_5166" data-name="Elipse 5166" cx="25.133" cy="25.133" r="25.133" transform="translate(164.203 277.102) rotate(30)" fill="#fff"/>
    </g>
  </g>
</svg>
