<svg xmlns="http://www.w3.org/2000/svg" xmlns:xlink="http://www.w3.org/1999/xlink" width="1328" height="617" viewBox="0 0 1328 617">
  <defs>
    <clipPath id="clip-path">
      <path id="Rectángulo_40612" data-name="Rectángulo 40612" d="M0,0H1328a0,0,0,0,1,0,0V597a20,20,0,0,1-20,20H20A20,20,0,0,1,0,597V0A0,0,0,0,1,0,0Z" fill="#7fc733"/>
    </clipPath>
    <linearGradient id="linear-gradient" x1="0.927" y1="0.062" x2="0.019" y2="-0.029" gradientUnits="objectBoundingBox">
      <stop offset="0" stop-color="#6836bc"/>
      <stop offset="0.256" stop-color="#6d3dc3"/>
      <stop offset="0.637" stop-color="#7e51d6"/>
      <stop offset="1" stop-color="#936bef" stop-opacity="0.506"/>
    </linearGradient>
    <linearGradient id="linear-gradient-2" x1="0.666" y1="1.309" x2="0.346" y2="-0.251" gradientUnits="objectBoundingBox">
      <stop offset="0" stop-color="#ffc431"/>
      <stop offset="1" stop-color="#ff8300"/>
    </linearGradient>
    <linearGradient id="linear-gradient-4" x1="0.666" y1="1.309" x2="0.346" y2="-0.251" gradientUnits="objectBoundingBox">
      <stop offset="0" stop-color="#7fc533"/>
      <stop offset="1" stop-color="#52a333"/>
    </linearGradient>
  </defs>
  <g id="Enmascarar_grupo_119" data-name="Enmascarar grupo 119" opacity="0.15" clip-path="url(#clip-path)">
    <g id="Grupo_128158" data-name="Grupo 128158" transform="translate(-395.077 20.617)">
      <path id="Trazado_188010" data-name="Trazado 188010" d="M-6870.859-9490s-246.887-93.2-381.8,100.761-309.462,423.527-575.507,404.616-348.841-166.766-348.841-166.766-31.007-79.134-66.208-43.933,0,311.437,0,311.437H-6852v-593Z" transform="translate(8593.937 9512.383)" fill="url(#linear-gradient)"/>
      <path id="Unión_14" data-name="Unión 14" d="M204.827,4.944A318.568,318.568,0,0,0,137.437,25.31,272.2,272.2,0,0,0,76.4,61.111a208.881,208.881,0,0,0-47.187,51.2A178.128,178.128,0,0,0,3.374,178.854a229.39,229.39,0,0,0-2.066,63.539A195.559,195.559,0,0,0,17.893,303.3c1.009,2.192,2.1,4.421,3.346,6.819,11.7,22.489,28.469,41.926,49.847,57.777a199.325,199.325,0,0,0,32.821,19.649,222.961,222.961,0,0,0,36.158,13.5c21.1,5.887,43.094,8.75,67.269,8.75,34.74,0,68.689-5.788,104.634-11.918l.055-.016,2.661-.449c24.7-4.213,44.89-6.168,63.535-6.168,18.965,0,35.7,2.05,51.156,6.269a141.878,141.878,0,0,1,24.085,8.921,129.281,129.281,0,0,1,22.492,13.754,161.641,161.641,0,0,1,25.368,24.188,223.274,223.274,0,0,1,20.366,28.359c12.3,20.017,22.55,42.271,32.46,63.787l.03.063c8.912,19.336,18.125,39.33,28.823,57.742a259.69,259.69,0,0,0,17.49,26.523,184.137,184.137,0,0,0,21.157,23.621,178.636,178.636,0,0,0,120.66,47.707h.563a183.2,183.2,0,0,0,38.454-4.344,186.67,186.67,0,0,0,38.57-12.884c27-12.525,47.292-30.464,58.689-51.875a87.039,87.039,0,0,0,7.7-20.015,100.348,100.348,0,0,0,2.81-19.95c.608-13.278-.978-26.8-2.522-39.865v-.044c-2.116-17.938-4.3-36.5-.965-55.078a92.806,92.806,0,0,1,5.883-20.008,85.89,85.89,0,0,1,9.491-16.8c6.989-9.627,16.039-18.061,27.687-25.772,21.6-14.3,48.779-23.742,75.06-32.869l.051-.021c14.154-4.915,28.785-9.994,42.075-15.71,14.89-6.4,26.618-13,35.857-20.156q3.675-2.849,7.219-6.009h225.05V228.776s7.918-137.028-177.858-91.831c-.062.014-.121.028-.18.044l-.5.118c-6.486,1.589-13.137,3.379-19.871,5.352a705.593,705.593,0,0,1-100.39,21.17c-.183.026-.347.051-.529.075l-1.088.151q-17.886,2.464-35.645,4.157c-.03,0-.062.007-.09.011l-1.3.121c-.3.03-.583.06-.873.086l-.34.03c-24.2,2.258-49.355,3.659-75.185,4.182-32.376.647-63.293-.132-91.528-1.679l-.7-.039c-.44-.021-.893-.046-1.334-.072-.682-.042-1.364-.079-2.049-.118l-.111-.007q-5.222-.3-10.445-.649c-12-.8-24.017-1.751-35.954-2.861-19.217-1.79-36.294-3.8-50.61-5.7q-5.492-.731-10.873-1.5l-.066,0c-23.686-3.377-37.405-6.089-37.405-6.089l-.088.009a343.162,343.162,0,0,1-49.723-16.286c-30.948-12.618-60.186-28.783-82.2-41.458-41.036-23.628-84.862-48.2-129.736-66.277A437.866,437.866,0,0,0,329.4,8.141a340.947,340.947,0,0,0-35.016-6.016A308.68,308.68,0,0,0,258.549,0,295.882,295.882,0,0,0,204.827,4.944Z" transform="translate(1741.939 248.056) rotate(111)" fill="#912bd7" stroke="rgba(0,0,0,0)" stroke-miterlimit="10" stroke-width="1" opacity="0.15" style="mix-blend-mode: color-burn;isolation: isolate"/>
      <path id="Unión_15" data-name="Unión 15" d="M121.018,2.92A188.28,188.28,0,0,0,81.2,14.949,160.853,160.853,0,0,0,45.139,36.1,123.341,123.341,0,0,0,17.26,66.338,105.193,105.193,0,0,0,1.994,105.646,135.44,135.44,0,0,0,.773,143.177a115.518,115.518,0,0,0,9.8,35.981c.6,1.294,1.24,2.611,1.977,4.027A99.6,99.6,0,0,0,42,217.314a117.89,117.89,0,0,0,19.391,11.606,131.769,131.769,0,0,0,21.363,7.973,145.979,145.979,0,0,0,39.744,5.168c20.525,0,40.584-3.419,61.82-7.039l.033-.009,1.572-.266c14.594-2.488,26.521-3.644,37.537-3.644a113.646,113.646,0,0,1,30.225,3.7,83.921,83.921,0,0,1,14.23,5.269,76.33,76.33,0,0,1,13.289,8.125,95.553,95.553,0,0,1,14.988,14.286,132.027,132.027,0,0,1,12.033,16.753c7.268,11.822,13.322,24.968,19.178,37.678l.018.038c5.266,11.421,10.709,23.23,17.029,34.106a153.589,153.589,0,0,0,10.334,15.668,108.957,108.957,0,0,0,12.5,13.952,105.555,105.555,0,0,0,71.289,28.18h.334a108.247,108.247,0,0,0,22.719-2.565,110.328,110.328,0,0,0,22.789-7.61c15.955-7.4,27.941-18,34.676-30.643a51.416,51.416,0,0,0,4.547-11.822,59.277,59.277,0,0,0,1.66-11.784c.359-7.843-.578-15.828-1.49-23.548v-.025c-1.25-10.6-2.539-21.558-.57-32.534a54.762,54.762,0,0,1,3.477-11.818,50.6,50.6,0,0,1,5.607-9.922,61.953,61.953,0,0,1,16.357-15.224c12.76-8.447,28.82-14.024,44.348-19.416l.029-.013c8.363-2.9,17.008-5.9,24.859-9.279,8.8-3.78,15.727-7.677,21.186-11.906q2.171-1.683,4.266-3.55H776.332V135.135s4.678-80.94-105.084-54.244l-.105.026-.295.07c-3.832.938-7.762,2-11.74,3.161a417.087,417.087,0,0,1-59.312,12.5l-.312.044-.643.089q-10.567,1.456-21.061,2.456l-.053.007-.768.071-.516.05-.2.019c-14.3,1.334-29.16,2.162-44.42,2.47-19.129.383-37.4-.077-54.078-.991l-.412-.022c-.26-.014-.527-.028-.787-.044l-1.211-.069-.066,0q-3.085-.179-6.172-.384c-7.092-.47-14.189-1.034-21.242-1.689-11.354-1.058-21.443-2.245-29.9-3.37q-3.243-.431-6.424-.887l-.039,0c-13.994-1.994-22.1-3.6-22.1-3.6l-.053,0a202.79,202.79,0,0,1-29.377-9.619c-18.285-7.453-35.559-17-48.562-24.489-24.246-13.956-50.139-28.47-76.652-39.148A258.767,258.767,0,0,0,194.619,4.808a201.936,201.936,0,0,0-20.687-3.554A182.5,182.5,0,0,0,152.758,0,174.774,174.774,0,0,0,121.018,2.92Z" transform="matrix(-0.999, -0.035, 0.035, -0.999, 775.889, 821.089)" fill="#912bd7" stroke="rgba(0,0,0,0)" stroke-miterlimit="10" stroke-width="1" opacity="0.15" style="mix-blend-mode: color-burn;isolation: isolate"/>
      <ellipse id="Elipse_4785" data-name="Elipse 4785" cx="84.426" cy="84.426" rx="84.426" ry="84.426" transform="matrix(-0.259, 0.966, -0.966, -0.259, 1792.478, 550.085)" fill="url(#linear-gradient-2)"/>
      <ellipse id="Elipse_4786" data-name="Elipse 4786" cx="27.926" cy="27.926" rx="27.926" ry="27.926" transform="matrix(-0.259, 0.966, -0.966, -0.259, 1575.779, 547.338)" fill="url(#linear-gradient-2)"/>
      <ellipse id="Elipse_4787" data-name="Elipse 4787" cx="62.34" cy="62.34" rx="62.34" ry="62.34" transform="translate(354.925 578.325) rotate(-99.161)" fill="url(#linear-gradient-4)"/>
    </g>
  </g>
</svg>
