<svg xmlns="http://www.w3.org/2000/svg" xmlns:xlink="http://www.w3.org/1999/xlink" width="130" height="130" viewBox="0 0 130 130">
  <defs>
    <clipPath id="clip-path">
      <rect id="Rectángulo_45022" data-name="Rectángulo 45022" width="85.667" height="86.371" fill="none" stroke="#fff" stroke-width="2"/>
    </clipPath>
  </defs>
  <g id="Grupo_137476" data-name="Grupo 137476" transform="translate(-960 -682)">
    <g id="Grupo_136758" data-name="Grupo 136758" transform="translate(24 -719)">
      <circle id="Elipse_5536" data-name="Elipse 5536" cx="65" cy="65" r="65" transform="translate(936 1401)" fill="#b13e8d"/>
    </g>
    <g id="Grupo_137475" data-name="Grupo 137475">
      <g id="Grupo_137472" data-name="Grupo 137472" transform="translate(678.198 739.119)">
        <g id="Grupo_137474" data-name="Grupo 137474">
          <path id="Trazado_195787" data-name="Trazado 195787" d="M38.128,36.7a16.435,16.435,0,0,1-24.18-22.259,16.293,16.293,0,0,1,23.032-.757" transform="translate(321.072 -17.507)" fill="none" stroke="#fff" stroke-linecap="round" stroke-linejoin="round" stroke-width="4"/>
        </g>
      </g>
      <g id="Grupo_137471" data-name="Grupo 137471" transform="translate(982 704)">
        <g id="Grupo_137470" data-name="Grupo 137470" transform="translate(0 0)" clip-path="url(#clip-path)">
          <path id="Trazado_195789" data-name="Trazado 195789" d="M78.466,64.549l4.469-10.1-8.208-6.059a33.943,33.943,0,0,0,.31-10.805l8.572-5.767L79.746,21.572,69.62,23.216a32.761,32.761,0,0,0-7.314-7.778L64.411,5.289,54.476.9,48.384,9.279A32.714,32.714,0,0,0,37.709,9.1L32.113.5,21.933,4.536l1.5,10.221a33.941,33.941,0,0,0-7.783,7.5l-10.009-2-4.466,10.1,8.216,6.059a33.691,33.691,0,0,0-.318,10.8L.5,52.986,4.365,63.233l10.126-1.647a32.662,32.662,0,0,0,7.314,7.778L19.7,79.518l9.932,4.392,6.1-8.39A32.7,32.7,0,0,0,46.4,75.7l5.593,8.605,10.18-4.041-1.5-10.221a33.8,33.8,0,0,0,7.78-7.5ZM53.539,52.983a15.621,15.621,0,1,1-1.091-21.876" transform="translate(0.781 0.78)" fill="none" stroke="#fff" stroke-linecap="round" stroke-linejoin="round" stroke-width="2"/>
          <path id="Trazado_195790" data-name="Trazado 195790" d="M59.664,45.434A28.171,28.171,0,1,1,45.3,8.274,28.174,28.174,0,0,1,59.664,45.434Z" transform="translate(8.934 9.146)" fill="none" stroke="#fff" stroke-linecap="round" stroke-linejoin="round" stroke-width="2"/>
        </g>
      </g>
    </g>
  </g>
</svg>
