<svg xmlns="http://www.w3.org/2000/svg" xmlns:xlink="http://www.w3.org/1999/xlink" width="130.5" height="112" viewBox="0 0 130.5 112">
  <defs>
    <linearGradient id="linear-gradient" x1="0.5" x2="0.5" y2="1" gradientUnits="objectBoundingBox">
      <stop offset="0" stop-color="#f7ca2e" stop-opacity="0"/>
      <stop offset="0.091" stop-color="#f7ca2e" stop-opacity="0.129"/>
      <stop offset="0.283" stop-color="#f7ca2e" stop-opacity="0.388"/>
      <stop offset="0.465" stop-color="#f7ca2e" stop-opacity="0.612"/>
      <stop offset="0.633" stop-color="#f7ca2e" stop-opacity="0.78"/>
      <stop offset="0.784" stop-color="#f7ca2e" stop-opacity="0.902"/>
      <stop offset="0.911" stop-color="#f7ca2e" stop-opacity="0.969"/>
      <stop offset="1" stop-color="#f7ca2e"/>
    </linearGradient>
    <linearGradient id="linear-gradient-2" x1="0.5" x2="0.5" y2="1" gradientUnits="objectBoundingBox">
      <stop offset="0" stop-color="#b13e8d" stop-opacity="0"/>
      <stop offset="0.091" stop-color="#b13e8d" stop-opacity="0.129"/>
      <stop offset="0.283" stop-color="#b13e8d" stop-opacity="0.388"/>
      <stop offset="0.465" stop-color="#b13e8d" stop-opacity="0.612"/>
      <stop offset="0.633" stop-color="#b13e8d" stop-opacity="0.78"/>
      <stop offset="0.784" stop-color="#b13e8d"/>
      <stop offset="0.911" stop-color="#b13e8d" stop-opacity="0.969"/>
      <stop offset="1" stop-color="#b13e8d"/>
    </linearGradient>
    <filter id="Rectángulo_40720" x="11.5" y="4" width="108" height="108" filterUnits="userSpaceOnUse">
      <feOffset dy="3" input="SourceAlpha"/>
      <feGaussianBlur stdDeviation="3" result="blur"/>
      <feFlood flood-opacity="0.161"/>
      <feComposite operator="in" in2="blur"/>
      <feComposite in="SourceGraphic"/>
    </filter>
  </defs>
  <g id="Grupo_137466" data-name="Grupo 137466" transform="translate(-209.5 -1584)">
    <g id="Grupo_136922" data-name="Grupo 136922" transform="translate(0 361)">
      <g id="Grupo_108405" data-name="Grupo 108405" transform="translate(209.5 1287)">
        <path id="Rectángulo_5242" data-name="Rectángulo 5242" d="M0,0H12a0,0,0,0,1,0,0V43.333a3,3,0,0,1-3,3H3a3,3,0,0,1-3-3V0A0,0,0,0,1,0,0Z" transform="translate(0 0)" fill="url(#linear-gradient)"/>
      </g>
      <g id="Grupo_108406" data-name="Grupo 108406" transform="translate(340 1275) rotate(180)">
        <path id="Rectángulo_5242-2" data-name="Rectángulo 5242" d="M0,0H12a0,0,0,0,1,0,0V49a3,3,0,0,1-3,3H3a3,3,0,0,1-3-3V0A0,0,0,0,1,0,0Z" transform="translate(0 0)" fill="url(#linear-gradient-2)"/>
      </g>
      <g id="Grupo_136283" data-name="Grupo 136283">
        <g transform="matrix(1, 0, 0, 1, 209.5, 1223)" filter="url(#Rectángulo_40720)">
          <path id="Rectángulo_40720-2" data-name="Rectángulo 40720" d="M10,0H80A10,10,0,0,1,90,10V90a0,0,0,0,1,0,0H10A10,10,0,0,1,0,80V10A10,10,0,0,1,10,0Z" transform="translate(20.5 10)" fill="#f6f6f6"/>
        </g>
      </g>
    </g>
    <g id="Grupo_137389" data-name="Grupo 137389" transform="translate(116.331 727.941)">
      <g id="folder_setting" transform="translate(128.669 879.058)">
        <g id="Grupo_135795" data-name="Grupo 135795" transform="translate(0 0)">
          <g id="Grupo_135792" data-name="Grupo 135792">
            <path id="Trazado_193937" data-name="Trazado 193937" d="M60.934,48.215h-.393a12.245,12.245,0,0,0-.688-1.657l.28-.281a2.072,2.072,0,0,0,0-2.927l-1.126-1.126V30.366a2.636,2.636,0,0,0-2.635-2.631H54.364l1.574-17.551A2.031,2.031,0,0,0,55.391,8.4l-3.76-3.9a1.508,1.508,0,0,0-1.175-.54L48.99,3.829h-.005L17.617,1.013a2.949,2.949,0,0,0-3.2,2.673l-2.1,23.4H6.126a2.5,2.5,0,0,0-1.787.689A2.229,2.229,0,0,0,3.691,29.4L3.669,56.617c0,2.063,1,4.5,5.652,4.65a1.036,1.036,0,0,0,.38.077H38.719l1.711,1.711a2.123,2.123,0,0,0,2.925,0l.28-.28a12.118,12.118,0,0,0,1.656.687v.4a2.073,2.073,0,0,0,2.072,2.069h3.418a2.072,2.072,0,0,0,2.069-2.069v-.4a11.978,11.978,0,0,0,1.656-.686l.283.283a2.077,2.077,0,0,0,2.925,0l2.418-2.418a2.071,2.071,0,0,0,0-2.924l-.283-.284a12.247,12.247,0,0,0,.688-1.658h.393A2.074,2.074,0,0,0,63.007,53.7V50.283a2.074,2.074,0,0,0-2.073-2.069ZM49.842,6.008l.364.033,3.66,3.8c0,.049-.009.1-.014.159l0,.018-4.335-.393ZM16.5,3.872a.847.847,0,0,1,.3-.578.834.834,0,0,1,.622-.195L47.755,5.821l-.34,3.758A1.957,1.957,0,0,0,49.188,11.7l4.475.406-1.4,15.633H38.509a2.665,2.665,0,0,0-2.331,1.81l-3.141,5.6H13.694ZM8.653,37.383V59.13c-2.88-.3-2.89-1.765-2.89-2.513L5.785,29.4a.225.225,0,0,1,.031-.134.635.635,0,0,1,.319-.079h5.992l-.536,5.967h-.7a2.237,2.237,0,0,0-2.234,2.234Zm2.094,0a.142.142,0,0,1,.14-.14H33.65a1.049,1.049,0,0,0,.913-.534l3.276-5.831.192-.356c.125-.238.335-.636.479-.693H56.373a.546.546,0,0,1,.54.537V40.444a2.082,2.082,0,0,0-2.127.488l-.279.279a11.991,11.991,0,0,0-1.656-.686v-.4a2.072,2.072,0,0,0-2.069-2.07H47.364a2.073,2.073,0,0,0-2.072,2.07v.4a12.126,12.126,0,0,0-1.656.687l-.28-.28a2.073,2.073,0,0,0-2.925,0L38.011,43.35a2.071,2.071,0,0,0,0,2.926l.28.28a12.13,12.13,0,0,0-.687,1.659h-.4a2.072,2.072,0,0,0-2.069,2.069V53.7a2.071,2.071,0,0,0,2.069,2.069h.4a12.071,12.071,0,0,0,.687,1.659l-.28.281a2.056,2.056,0,0,0-.6,1.538H10.748Zm49.01,16.294a1.046,1.046,0,0,0-1.014.786,10.112,10.112,0,0,1-1.086,2.618,1.047,1.047,0,0,0,.159,1.27l.836.8-2.385,2.419-.834-.835a1.048,1.048,0,0,0-1.277-.159,9.933,9.933,0,0,1-2.614,1.084,1.048,1.048,0,0,0-.786,1.014l.025,1.155-3.4.026v-1.18a1.046,1.046,0,0,0-.785-1.014,10.061,10.061,0,0,1-2.616-1.086,1.048,1.048,0,0,0-1.275.161l-.8.835L39.494,59.19l.835-.839a1.046,1.046,0,0,0,.157-1.273A9.941,9.941,0,0,1,39.4,54.463a1.048,1.048,0,0,0-1.014-.786l-1.155.026-.026-3.393h1.18a1.047,1.047,0,0,0,1.014-.786A10.027,10.027,0,0,1,40.487,46.9a1.047,1.047,0,0,0-.161-1.274l-.835-.8,2.382-2.419.835.835a1.048,1.048,0,0,0,1.275.161A10.061,10.061,0,0,1,46.6,42.321a1.046,1.046,0,0,0,.785-1.013l-.022-1.155,3.393-.025v1.179a1.048,1.048,0,0,0,.786,1.014,9.938,9.938,0,0,1,2.614,1.084,1.05,1.05,0,0,0,1.277-.159l.8-.835L58.652,44.8l-.834.838a1.047,1.047,0,0,0-.16,1.271,10.133,10.133,0,0,1,1.086,2.618,1.047,1.047,0,0,0,1.014.786l1.155-.026.021,3.393H59.758Z" transform="translate(-3.669 -1)" fill="#6836bf"/>
            <path id="Trazado_193938" data-name="Trazado 193938" d="M47.333,43.194A6.807,6.807,0,1,0,54.139,50,6.815,6.815,0,0,0,47.333,43.194Zm0,11.519A4.712,4.712,0,1,1,52.045,50,4.718,4.718,0,0,1,47.333,54.713Z" transform="translate(-1.928 0.993)" fill="#6836bf"/>
          </g>
          <g id="Grupo_135793" data-name="Grupo 135793" transform="translate(17.984 12.352)">
            <path id="Trazado_193939" data-name="Trazado 193939" d="M44.334,16.9c-.031,0-.063,0-.095,0L21.8,14.885a1.047,1.047,0,0,1,.187-2.086l22.443,2.015a1.047,1.047,0,0,1-.093,2.09Z" transform="translate(-20.842 -12.794)" fill="#6836bf"/>
          </g>
          <g id="Grupo_135794" data-name="Grupo 135794" transform="translate(17.448 18.311)">
            <path id="Trazado_193940" data-name="Trazado 193940" d="M43.825,22.593c-.031,0-.063,0-.095,0L21.284,20.574a1.047,1.047,0,0,1,.187-2.086L43.917,20.5a1.047,1.047,0,0,1-.093,2.09Z" transform="translate(-20.33 -18.485)" fill="#6836bf"/>
          </g>
        </g>
      </g>
    </g>
  </g>
</svg>
