<svg xmlns="http://www.w3.org/2000/svg" xmlns:xlink="http://www.w3.org/1999/xlink" width="130.5" height="114" viewBox="0 0 130.5 114">
  <defs>
    <linearGradient id="linear-gradient" x1="0.5" x2="0.5" y2="1" gradientUnits="objectBoundingBox">
      <stop offset="0" stop-color="#f7ca2e" stop-opacity="0"/>
      <stop offset="0.091" stop-color="#f7ca2e" stop-opacity="0.129"/>
      <stop offset="0.283" stop-color="#f7ca2e" stop-opacity="0.388"/>
      <stop offset="0.465" stop-color="#f7ca2e" stop-opacity="0.612"/>
      <stop offset="0.633" stop-color="#f7ca2e" stop-opacity="0.78"/>
      <stop offset="0.784" stop-color="#f7ca2e" stop-opacity="0.902"/>
      <stop offset="0.911" stop-color="#f7ca2e" stop-opacity="0.969"/>
      <stop offset="1" stop-color="#f7ca2e"/>
    </linearGradient>
    <linearGradient id="linear-gradient-2" x1="0.5" x2="0.5" y2="1" gradientUnits="objectBoundingBox">
      <stop offset="0" stop-color="#b13e8d" stop-opacity="0"/>
      <stop offset="0.091" stop-color="#b13e8d" stop-opacity="0.129"/>
      <stop offset="0.283" stop-color="#b13e8d" stop-opacity="0.388"/>
      <stop offset="0.465" stop-color="#b13e8d" stop-opacity="0.612"/>
      <stop offset="0.633" stop-color="#b13e8d" stop-opacity="0.78"/>
      <stop offset="0.784" stop-color="#b13e8d"/>
      <stop offset="0.911" stop-color="#b13e8d" stop-opacity="0.969"/>
      <stop offset="1" stop-color="#b13e8d"/>
    </linearGradient>
    <filter id="Rectángulo_40720" x="11.5" y="6" width="108" height="108" filterUnits="userSpaceOnUse">
      <feOffset dy="3" input="SourceAlpha"/>
      <feGaussianBlur stdDeviation="3" result="blur"/>
      <feFlood flood-opacity="0.161"/>
      <feComposite operator="in" in2="blur"/>
      <feComposite in="SourceGraphic"/>
    </filter>
    <clipPath id="clip-path">
      <rect id="Rectángulo_45020" data-name="Rectángulo 45020" width="55.604" height="79.334" fill="#6836bf"/>
    </clipPath>
  </defs>
  <g id="Grupo_137464" data-name="Grupo 137464" transform="translate(-209.5 -2315)">
    <g id="Grupo_136926" data-name="Grupo 136926" transform="translate(0 1092)">
      <g id="Grupo_108405" data-name="Grupo 108405" transform="translate(209.5 1287)">
        <path id="Rectángulo_5242" data-name="Rectángulo 5242" d="M0,0H12a0,0,0,0,1,0,0V43.333a3,3,0,0,1-3,3H3a3,3,0,0,1-3-3V0A0,0,0,0,1,0,0Z" transform="translate(0 0)" fill="url(#linear-gradient)"/>
      </g>
      <g id="Grupo_108406" data-name="Grupo 108406" transform="translate(340 1275) rotate(180)">
        <path id="Rectángulo_5242-2" data-name="Rectángulo 5242" d="M0,0H12a0,0,0,0,1,0,0V49a3,3,0,0,1-3,3H3a3,3,0,0,1-3-3V0A0,0,0,0,1,0,0Z" transform="translate(0 0)" fill="url(#linear-gradient-2)"/>
      </g>
      <g id="Grupo_136283" data-name="Grupo 136283" transform="translate(0 2)">
        <g transform="matrix(1, 0, 0, 1, 209.5, 1221)" filter="url(#Rectángulo_40720)">
          <path id="Rectángulo_40720-2" data-name="Rectángulo 40720" d="M10,0H80A10,10,0,0,1,90,10V90a0,0,0,0,1,0,0H10A10,10,0,0,1,0,80V10A10,10,0,0,1,10,0Z" transform="translate(20.5 12)" fill="#f6f6f6"/>
        </g>
      </g>
    </g>
    <g id="Grupo_137460" data-name="Grupo 137460" transform="translate(247 2332)">
      <g id="Grupo_137459" data-name="Grupo 137459" clip-path="url(#clip-path)">
        <path id="Trazado_195782" data-name="Trazado 195782" d="M12.177,39.667h3.229a1.24,1.24,0,1,0,0-2.479H12.177a9.594,9.594,0,0,1-2.733-18.82,1.239,1.239,0,0,0,.891-1.259c0-.1-.017-.2-.043-.374a6.526,6.526,0,0,1,9.676-5.7,1.241,1.241,0,0,0,1.769-.721,11.276,11.276,0,0,1,22.014,3.32,11.059,11.059,0,0,1-.384,2.839,1.24,1.24,0,0,0,1.072,1.552,9.6,9.6,0,0,1-1.01,19.162H40.2a1.24,1.24,0,1,0,0,2.479h3.23a12.079,12.079,0,0,0,2.623-23.891,13.106,13.106,0,0,0,.178-2.141,13.76,13.76,0,0,0-26.379-5.36,8.75,8.75,0,0,0-2.986-.528A9.034,9.034,0,0,0,7.823,16.3a12.071,12.071,0,0,0,4.353,23.369" fill="#6836bf"/>
        <path id="Trazado_195783" data-name="Trazado 195783" d="M29.346,26.151V44.745a1.24,1.24,0,0,0,2.479,0V27.391h3.719a1.239,1.239,0,0,0,.992-1.983L29.1,15.491a1.284,1.284,0,0,0-1.983,0l-7.438,9.917a1.239,1.239,0,0,0,.992,1.983h3.719V44.745a1.24,1.24,0,0,0,2.479,0V26.151a1.239,1.239,0,0,0-1.24-1.24H23.148L28.106,18.3l4.958,6.611H30.585a1.239,1.239,0,0,0-1.24,1.24" transform="translate(4.655 3.599)" fill="#6836bf"/>
        <path id="Trazado_195784" data-name="Trazado 195784" d="M18.866,46.833V28.24a1.24,1.24,0,1,0-2.479,0V45.594H12.669a1.24,1.24,0,0,0-.941,2.047l7.438,8.677a1.239,1.239,0,0,0,1.882,0l7.438-8.677a1.24,1.24,0,0,0-.941-2.047H23.825V28.24a1.24,1.24,0,1,0-2.479,0V46.833a1.239,1.239,0,0,0,1.24,1.24h2.263l-4.743,5.532-4.743-5.532h2.263a1.239,1.239,0,0,0,1.24-1.24" transform="translate(2.738 6.469)" fill="#6836bf"/>
        <path id="Trazado_195785" data-name="Trazado 195785" d="M52.252,58.792H48.534V37.719A3.723,3.723,0,0,0,44.815,34H39.856a1.24,1.24,0,0,0,0,2.479h4.958a1.241,1.241,0,0,1,1.24,1.24V58.792H8.867V37.719a1.241,1.241,0,0,1,1.24-1.24h4.958a1.24,1.24,0,1,0,0-2.479H10.106a3.723,3.723,0,0,0-3.719,3.719V58.792H2.669a1.239,1.239,0,0,0-1.24,1.24V64.99a6.205,6.205,0,0,0,6.2,6.2H47.294a6.205,6.205,0,0,0,6.2-6.2V60.031a1.239,1.239,0,0,0-1.24-1.24M41.1,61.271v1.24a1.241,1.241,0,0,1-1.24,1.24H15.065a1.241,1.241,0,0,1-1.24-1.24v-1.24Zm9.917,3.719a3.723,3.723,0,0,1-3.719,3.719H7.627A3.723,3.723,0,0,1,3.908,64.99V61.271h7.438v1.24a3.723,3.723,0,0,0,3.719,3.719H39.856a3.723,3.723,0,0,0,3.719-3.719v-1.24h7.438Z" transform="translate(0.342 8.146)" fill="#6836bf"/>
      </g>
    </g>
  </g>
</svg>
