<svg xmlns="http://www.w3.org/2000/svg" xmlns:xlink="http://www.w3.org/1999/xlink" width="1328" height="547" viewBox="0 0 1328 547">
  <defs>
    <clipPath id="clip-path">
      <path id="Rect치ngulo_41192" data-name="Rect치ngulo 41192" d="M0,0H1328a0,0,0,0,1,0,0V527a20,20,0,0,1-20,20H20A20,20,0,0,1,0,527V0A0,0,0,0,1,0,0Z" transform="translate(8 -3)" fill="#7fc733"/>
    </clipPath>
  </defs>
  <g id="Enmascarar_grupo_135" data-name="Enmascarar grupo 135" transform="translate(-8 3)" opacity="0.147" clip-path="url(#clip-path)">
    <path id="Sustracci칩n_35" data-name="Sustracci칩n 35" d="M682.679,271.149c38.238,11.112,152.018,45.986,504.254,7.969S1492.772,4.152,1492.772,4.152V531.326S877.042,295.5,378.235,324.225,17.545,1275.9,17.545,1275.9V76.027S130.937-25.649,257.189,121.553,361.072,238.939,361.072,238.939H549.512S644.439,260.037,682.679,271.149Z" transform="translate(-145.235 -55.362)" fill="#6836bf"/>
  </g>
</svg>
